<?xml version='1.0' encoding='UTF-8' standalone='no'?>
<!-- Created with Fritzing (http://www.fritzing.org/) -->
<svg xmlns="http://www.w3.org/2000/svg" version="1.2" y="0in" height="2.75591in" width="3.93701in"  baseProfile="tiny" x="0in" viewBox="0 0 283.465 198.425" xmlns:svg="http://www.w3.org/2000/svg">
 <g transform="matrix(-1, 0, 0, 1, 283.465, 0)">
  <g partID="57831">
   <g id="silkscreen">
    <rect fill="none" height="197.849" y="0.288" width="282.889" stroke-width="0.576" x="0.288" stroke="black"/>
   </g>
  </g>
  <g partID="57830">
   <g id="board">
    <rect fill="none" height="197.849" y="0.288" width="282.889" stroke-width="0.5" x="0.288" id="boardoutline" fill-opacity="0.5" stroke="black"/>
   </g>
  </g>
  <g partID="855412971">
   <g transform="translate(106.437,81.9184)">
    <g gorn="0.3" id="silkscreen">
     <text fill="black" y="12.7085" font-size="2.99999" gorn="0.3.0" style="font-family:DroidSans;" x="24.9894" id="text4">GND</text>
     <text fill="black" y="12.7085" font-size="2.99999" gorn="0.3.1" style="font-family:DroidSans;" x="32.442" id="text10">VDD</text>
     <text fill="black" y="12.7085" font-size="2.99999" gorn="0.3.2" style="font-family:DroidSans;" x="39.9957" id="text16">SCK</text>
     <text fill="black" y="12.7085" font-size="2.99999" gorn="0.3.3" style="font-family:DroidSans;" x="47.0308" id="text22">SDA</text>
     <line fill="none" y2="77.2798" stroke-width="0.749997" gorn="0.3.4" x2="77.2557" y1="0.719998" id="line28" x1="77.2557" stroke="black"/>
     <line fill="none" y2="0.719998" stroke-width="0.749997" gorn="0.3.5" x2="77.2557" y1="0.719998" id="line30" x1="0.719997" stroke="black"/>
     <line fill="none" y2="77.2798" stroke-width="0.749997" gorn="0.3.6" x2="0.719997" y1="0.719998" id="line32" x1="0.719997" stroke="black"/>
     <line fill="none" y2="77.2798" stroke-width="0.749997" gorn="0.3.7" x2="77.2557" y1="77.2798" id="line34" x1="0.719997" stroke="black"/>
    </g>
   </g>
  </g>
  <g partID="855372742">
   <g transform="translate(48.8304,99.756)">
    <g id="silkscreen">
     <line y2="4.91432" stroke-linecap="round" stroke-width="1.512" x2="22.1521" y1="4.77719" x1="7.45186" stroke="black"/>
    </g>
   </g>
  </g>
  <g partID="855338061">
   <g transform="translate(190.282,90.608)">
    <g gorn="0.2" id="silkscreen">
     <path d="M44.2001,27.4999c12,0,21.7,9.69998,21.7,21.6999s-9.70002,21.6999,-21.7,21.6999s-21.7,-9.69998,-21.7,-21.6999S32.3001,27.4999,44.2001,27.4999M44.2001,26.4999c-12.5,0,-22.7,10.2,-22.7,22.6999s10.2,22.6999,22.7,22.6999c12.5,0,22.7,-10.2,22.7,-22.6999S56.7001,26.4999,44.2001,26.4999L44.2001,26.4999z"/>
     <g>
      <circle fill="black" cx="44.2001" cy="16.3" r="2.3"/>
      <path d="M44.2001,14.4c1,0,1.8,0.799998,1.8,1.8c0,0.999997,-0.800001,1.8,-1.8,1.8s-1.8,-0.799998,-1.8,-1.8C42.4001,15.3,43.2001,14.4,44.2001,14.4M44.2001,13.4c-1.6,0,-2.80001,1.3,-2.80001,2.79999s1.3,2.79999,2.80001,2.79999c1.6,0,2.80001,-1.3,2.80001,-2.79999S45.8001,13.4,44.2001,13.4L44.2001,13.4z"/>
     </g>
     <g>
      <path fill="black" d="M44.2001,84.1998c-1.3,0,-2.3,-0.999997,-2.3,-2.29999l0,-1.4c0,-1.3,1,-2.29999,2.3,-2.29999s2.3,0.999997,2.3,2.29999l0,1.4C46.5001,83.1998,45.5001,84.1998,44.2001,84.1998z"/>
      <path d="M44.2001,78.5998c1,0,1.8,0.799998,1.8,1.8l0,1.4c0,0.999997,-0.800001,1.8,-1.8,1.8s-1.8,-0.799998,-1.8,-1.8l0,-1.4C42.4001,79.4998,43.2001,78.5998,44.2001,78.5998M44.2001,77.5998c-1.6,0,-2.80001,1.3,-2.80001,2.79999l0,1.4c0,1.6,1.3,2.79999,2.80001,2.79999s2.80001,-1.3,2.80001,-2.79999l0,-1.4C47.0001,78.8998,45.8001,77.5998,44.2001,77.5998L44.2001,77.5998z"/>
     </g>
    </g>
   </g>
  </g>
  <g partID="855312541">
   <g transform="translate(39.1824,88.308)">
    <g gorn="0.4" id="silkscreen">
     <path fill="none" stroke-width="0.576" gorn="0.4.0" d="M0.288,0.288l0,93.023l49.824,0L50.112,0.288L0.288,0.288" id="path16551" stroke="black"/>
     <circle fill="none" stroke-width="0.25" cx="3.6" gorn="0.4.1" cy="68.4" r="2.88" id="circle16553" stroke="black"/>
     <circle fill="none" stroke-width="0.25" cx="3.6" gorn="0.4.2" cy="61.2" r="2.88" id="circle16555" stroke="black"/>
     <circle fill="none" stroke-width="0.25" cx="3.6" gorn="0.4.3" cy="46.8" r="2.88" id="circle16557" stroke="black"/>
     <circle fill="none" stroke-width="0.25" cx="3.6" gorn="0.4.4" cy="90" r="2.88" id="circle16559" stroke="black"/>
     <circle fill="none" stroke-width="0.25" cx="46.8" gorn="0.4.5" cy="90" r="2.88" id="circle16561" stroke="black"/>
     <g gorn="0.4.6" id="g16571">
      <title id="title16565">element:JP1</title>
      <g gorn="0.4.6.1" id="g16569">
       <title id="title16567">package:1X06</title>
      </g>
     </g>
     <g gorn="0.4.7" id="g16579">
      <title id="title16573">element:JP6</title>
      <g gorn="0.4.7.1" id="g16577">
       <title id="title16575">package:1X12</title>
      </g>
     </g>
     <g gorn="0.4.8" id="g16587">
      <title id="title16581">element:JP7</title>
      <g gorn="0.4.8.1" id="g16585">
       <title id="title16583">package:1X12</title>
      </g>
     </g>
     <g gorn="0.4.9" id="g16595">
      <title id="title16589">element:U$11</title>
      <g gorn="0.4.9.1" id="g16593">
       <title id="title16591">package:SFE-NEW-WEBLOGO</title>
      </g>
     </g>
    </g>
   </g>
  </g>
  <g partID="855162351">
   <g transform="translate(156.936,164.662)">
    <g transform="matrix(1,0,0,1,0,0)">
     <g id="silkscreen">
      <line y2="12.0586" stroke-width="0.72" x2="20.137" y1="6.38928" x1="20.137" stroke="black"/>
      <line y2="0.72" stroke-width="0.72" x2="18.0115" y1="0.72" x1="5.96376" stroke="black"/>
      <line y2="17.7278" stroke-width="0.72" x2="18.0115" y1="17.7278" x1="5.96376" stroke="black"/>
      <line y2="12.0586" stroke-width="0.72" x2="3.12912" y1="6.38928" x1="3.12912" stroke="black"/>
      <line y2="10.6416" stroke-width="0.72" x2="11.633" y1="7.80696" x1="11.633" stroke="black"/>
      <line y2="9.22392" stroke-width="0.72" x2="10.2161" y1="9.22392" x1="13.0507" stroke="black"/>
     </g>
    </g>
   </g>
  </g>
  <g partID="57831">
   <g id="silkscreen">
    <rect fill="none" height="197.849" y="0.288" width="282.889" stroke-width="0.576" x="0.288" stroke="black"/>
   </g>
  </g>
  <g partID="855427562">
   <g transform="translate(62.7794,106.281)">
    <g id="silkscreen">
     <line y2="7.452" stroke-linecap="round" stroke-width="1.512" x2="4.75227" y1="25.0556" x1="4.75204" stroke="black"/>
    </g>
   </g>
  </g>
  <g partID="855428271">
   <g transform="translate(101.462,137.628)">
    <g transform="matrix(0,1,-1,0,0,0)">
     <g id="silkscreen">
      <g transform="matrix(1, 0, 0, 1, -1.43333, -1.16)">
       <path fill="none" stroke-opacity="1" stroke-width="0.576" style="stroke-linecap:round;stroke-linejoin:round;stroke-miterlimit:4;stroke-dasharray:none" d="m6.65907,2.30036a1.84667,1.58,0,0,1,2.51037,0.001464" id="path2830" stroke="black"/>
      </g>
      <g transform="matrix(-1, 0, 0, -1, 14.3952, 6.92)">
       <path fill="none" stroke-opacity="1" stroke-width="0.576" style="stroke-linecap:round;stroke-linejoin:round;stroke-miterlimit:4;stroke-dasharray:none" d="m6.65907,2.30036a1.84667,1.58,0,0,1,2.51037,0.001464" id="path2830-1" stroke="black"/>
      </g>
     </g>
    </g>
   </g>
  </g>
  <g partID="855428291">
   <g transform="translate(31.4784,101.808)">
    <g transform="matrix(0,1,-1,0,0,0)">
     <g id="silkscreen">
      <line y2="3.096" stroke-width="0.72" x2="10.584" y1="3.096" x1="5.4" stroke="black"/>
      <line y2="3.096" stroke-width="0.72" x2="28.8" y1="3.096" x1="24.984" stroke="black"/>
      <line y2="0.72" stroke-width="0.72" x2="24.984" y1="0.72" x1="10.584" stroke="black"/>
      <line y2="5.472" stroke-width="0.72" x2="24.984" y1="0.72" x1="24.984" stroke="black"/>
      <line y2="5.472" stroke-width="0.72" x2="10.584" y1="5.472" x1="24.984" stroke="black"/>
      <line y2="0.72" stroke-width="0.72" x2="10.584" y1="5.472" x1="10.584" stroke="black"/>
     </g>
    </g>
   </g>
  </g>
  <g partID="855428311">
   <g transform="translate(20.6784,101.808)">
    <g transform="matrix(0,1,-1,0,0,0)">
     <g id="silkscreen">
      <line y2="3.096" stroke-width="0.72" x2="10.584" y1="3.096" x1="5.4" stroke="black"/>
      <line y2="3.096" stroke-width="0.72" x2="28.8" y1="3.096" x1="24.984" stroke="black"/>
      <line y2="0.72" stroke-width="0.72" x2="24.984" y1="0.72" x1="10.584" stroke="black"/>
      <line y2="5.472" stroke-width="0.72" x2="24.984" y1="0.72" x1="24.984" stroke="black"/>
      <line y2="5.472" stroke-width="0.72" x2="10.584" y1="5.472" x1="24.984" stroke="black"/>
      <line y2="0.72" stroke-width="0.72" x2="10.584" y1="5.472" x1="10.584" stroke="black"/>
     </g>
    </g>
   </g>
  </g>
  <g partID="855428331">
   <g transform="translate(103.622,118.548)">
    <g transform="matrix(-1,0,0,-1,0,0)">
     <g id="silkscreen">
      <line y2="15.84" stroke-width="0.72" x2="1.44" y1="1.44" x1="1.44" stroke="black"/>
      <line y2="15.84" stroke-width="0.72" x2="8.64" y1="15.84" x1="1.44" stroke="black"/>
      <line y2="1.44" stroke-width="0.72" x2="8.64" y1="15.84" x1="8.64" stroke="black"/>
      <line y2="1.44" stroke-width="0.72" x2="1.44" y1="1.44" x1="8.64" stroke="black"/>
      <line y2="1.44" stroke-width="0.36" x2="3.96" y1="3.96" x1="1.44" stroke="black"/>
      <!-- 120 -->
     </g>
    </g>
   </g>
  </g>
  <g partID="855428351">
   <g transform="translate(14.7024,150.588)">
    <g transform="matrix(0,-1,1,0,0,0)">
     <g id="silkscreen">
      <g transform="matrix(1, 0, 0, 1, -1.43333, -1.16)">
       <path fill="none" stroke-opacity="1" stroke-width="0.576" style="stroke-linecap:round;stroke-linejoin:round;stroke-miterlimit:4;stroke-dasharray:none" d="m6.65907,2.30036a1.84667,1.58,0,0,1,2.51037,0.001464" id="path2830" stroke="black"/>
      </g>
      <g transform="matrix(-1, 0, 0, -1, 14.3952, 6.92)">
       <path fill="none" stroke-opacity="1" stroke-width="0.576" style="stroke-linecap:round;stroke-linejoin:round;stroke-miterlimit:4;stroke-dasharray:none" d="m6.65907,2.30036a1.84667,1.58,0,0,1,2.51037,0.001464" id="path2830-1" stroke="black"/>
      </g>
     </g>
    </g>
   </g>
  </g>
  <g partID="855428371">
   <g transform="translate(25.5024,150.588)">
    <g transform="matrix(0,-1,1,0,0,0)">
     <g id="silkscreen">
      <g transform="matrix(1, 0, 0, 1, -1.43333, -1.16)">
       <path fill="none" stroke-opacity="1" stroke-width="0.576" style="stroke-linecap:round;stroke-linejoin:round;stroke-miterlimit:4;stroke-dasharray:none" d="m6.65907,2.30036a1.84667,1.58,0,0,1,2.51037,0.001464" id="path2830" stroke="black"/>
      </g>
      <g transform="matrix(-1, 0, 0, -1, 14.3952, 6.92)">
       <path fill="none" stroke-opacity="1" stroke-width="0.576" style="stroke-linecap:round;stroke-linejoin:round;stroke-miterlimit:4;stroke-dasharray:none" d="m6.65907,2.30036a1.84667,1.58,0,0,1,2.51037,0.001464" id="path2830-1" stroke="black"/>
      </g>
     </g>
    </g>
   </g>
  </g>
  <g id="partLabel" partID="855162350">
   <g transform="translate(176.18,160.779)">
    <g transform="matrix(1,0,0,1,0,0)">
     <g fill="#000000" font-size="5" font-weight="normal" font-family="'OCRA'" font-style="normal" id="silkscreenLabel" fill-opacity="1" stroke="none">
      <text y="3.75" x="0">SW1</text>
     </g>
    </g>
   </g>
  </g>
  <g id="partLabel" partID="855312540">
   <g transform="translate(46.9576,175.802)">
    <g fill="#000000" font-size="5" font-weight="normal" font-family="'OCRA'" font-style="normal" id="silkscreenLabel" fill-opacity="1" stroke="none">
     <text y="3.75" x="0">Arduino</text>
    </g>
   </g>
  </g>
  <g id="partLabel" partID="855338060">
   <g transform="translate(267.409,85.008)">
    <g fill="#000000" font-size="5" font-weight="normal" font-family="'OCRA'" font-style="normal" id="silkscreenLabel" fill-opacity="1" stroke="none">
     <text y="3.75" x="0">enc</text>
    </g>
   </g>
  </g>
  <g id="partLabel" partID="855372740">
   <g transform="translate(66.7815,77.7147)">
    <g transform="matrix(-1,0,0,1,0,0)">
     <g fill="#000000" font-size="5" font-weight="normal" font-family="'OCRA'" font-style="normal" id="silkscreenLabel" fill-opacity="1" stroke="none">
      <text y="3.75" x="0">Jumper1</text>
     </g>
    </g>
   </g>
  </g>
  <g id="partLabel" partID="855428270">
   <g transform="translate(96.8814,155.319)">
    <g transform="matrix(-1,0,0,-1,0,0)">
     <g fill="#000000" font-size="5" font-weight="normal" font-family="'OCRA'" font-style="normal" id="silkscreenLabel" fill-opacity="1" stroke="none">
      <text y="3.75" x="0">C3</text>
     </g>
    </g>
   </g>
  </g>
  <g id="partLabel" partID="855428290">
   <g transform="translate(8.10017,117.189)">
    <g transform="matrix(-1,0,0,-1,0,0)">
     <g fill="#000000" font-size="5" font-weight="normal" font-family="'OCRA'" font-style="normal" id="silkscreenLabel" fill-opacity="1" stroke="none">
      <text y="3.75" x="0">R6</text>
     </g>
    </g>
   </g>
  </g>
  <g id="partLabel" partID="855428310">
   <g transform="translate(12.0541,111.114)">
    <g transform="matrix(-1,0,0,-1,0,0)">
     <g fill="#000000" font-size="5" font-weight="normal" font-family="'OCRA'" font-style="normal" id="silkscreenLabel" fill-opacity="1" stroke="none">
      <text y="3.75" x="0">R7</text>
     </g>
    </g>
   </g>
  </g>
  <g id="partLabel" partID="855428330">
   <g transform="translate(103.622,95.668)">
    <g fill="#000000" font-size="5" font-weight="normal" font-family="'OCRA'" font-style="normal" id="silkscreenLabel" fill-opacity="1" stroke="none">
     <text y="3.75" x="0">J2</text>
    </g>
   </g>
  </g>
  <g id="partLabel" partID="855428350">
   <g transform="translate(24.6992,154.902)">
    <g transform="matrix(-1,0,0,-1,0,0)">
     <g fill="#000000" font-size="5" font-weight="normal" font-family="'OCRA'" font-style="normal" id="silkscreenLabel" fill-opacity="1" stroke="none">
      <text y="3.75" x="0">C5</text>
     </g>
    </g>
   </g>
  </g>
  <g id="partLabel" partID="855428370">
   <g transform="translate(38.3921,155.77)">
    <g transform="matrix(-1,0,0,-1,0,0)">
     <g fill="#000000" font-size="5" font-weight="normal" font-family="'OCRA'" font-style="normal" id="silkscreenLabel" fill-opacity="1" stroke="none">
      <text y="3.75" x="0">C4</text>
     </g>
    </g>
   </g>
  </g>
  <g id="partLabel" partID="855412970">
   <g transform="translate(184.414,76.3184)">
    <g fill="#000000" font-size="5" font-weight="normal" font-family="'OCRA'" font-style="normal" id="silkscreenLabel" fill-opacity="1" stroke="none">
     <text y="3.75" x="0">OLED</text>
    </g>
   </g>
  </g>
  <g partID="855412972">
   <g transform="translate(106.437,81.9184)">
    <g gorn="0.4" id="copper1">
     <g gorn="0.4.0" id="copper0">
      <rect fill="white" height="4.17199" y="4.30299" width="4.17499" stroke-width="2.15999" gorn="0.4.0.0" x="26.0559" id="square" stroke="white"/>
      <circle fill="white" cx="49.7478" stroke-width="2.16" gorn="0.4.0.1" style="stroke-miterlimit:4;stroke-dasharray:none" cy="6.38898" r="2.08899" id="connector8pin" stroke="white"/>
      <circle fill="white" cx="42.5478" stroke-width="2.15999" gorn="0.4.0.2" cy="6.38998" r="2.08799" id="connector7pin" stroke="white"/>
      <circle fill="white" cx="35.3459" stroke-width="2.15999" gorn="0.4.0.3" cy="6.38998" r="2.08799" id="connector5pin" stroke="white"/>
      <circle fill="white" cx="28.1429" stroke-width="2.15999" gorn="0.4.0.4" cy="6.38998" r="2.08799" id="connector4pin" stroke="white"/>
     </g>
    </g>
   </g>
  </g>
  <g partID="855372743">
   <g transform="translate(48.8304,99.756)">
    <g id="copper1">
     <circle fill="white" cx="4.752" stroke-width="2.16" cy="4.752" r="1.98" id="connector0pad" stroke="white"/>
     <circle fill="white" cx="24.852" stroke-width="2.16" cy="4.9395" r="1.98" id="connector1pad" stroke="white"/>
    </g>
   </g>
  </g>
  <g partID="855338062">
   <g transform="translate(190.282,90.608)">
    <g gorn="0.1.0" id="copper1">
     <g>
      <path fill="white" stroke-width="0.72" d="M34.3001,93.4998c-1.1,0,-2.1,-0.899998,-2.1,-2.09999s0.900002,-2.09999,2.1,-2.09999s2.1,0.899998,2.1,2.09999S35.4001,93.4998,34.3001,93.4998z" stroke="white"/>
      <path fill="white" stroke-width="0.72" gorn="0.1.0.0.1" d="M34.3001,89.9998c0.700001,0,1.3,0.599998,1.3,1.3s-0.600001,1.3,-1.3,1.3S33.0001,92.0998,33.0001,91.3998S33.6001,89.9998,34.3001,89.9998M34.3001,88.4998c-1.6,0,-2.80001,1.3,-2.80001,2.79999s1.3,2.79999,2.80001,2.79999s2.80001,-1.3,2.80001,-2.79999S35.9001,88.4998,34.3001,88.4998L34.3001,88.4998z" id="connector0pin" stroke="white"/>
     </g>
     <g>
      <path fill="white" stroke-width="0.72" d="M54.1001,93.4998c-1.1,0,-2.1,-0.899998,-2.1,-2.09999s0.900002,-2.09999,2.1,-2.09999s2.1,0.899998,2.1,2.09999S55.3001,93.4998,54.1001,93.4998z" stroke="white"/>
      <path fill="white" stroke-width="0.72" gorn="0.1.0.1.1" d="M54.1001,89.9998c0.700001,0,1.3,0.599998,1.3,1.3s-0.600001,1.3,-1.3,1.3s-1.3,-0.599998,-1.3,-1.3S53.4001,89.9998,54.1001,89.9998M54.1001,88.4998c-1.6,0,-2.80001,1.3,-2.80001,2.79999s1.3,2.79999,2.80001,2.79999c1.6,0,2.80001,-1.3,2.80001,-2.79999S55.7001,88.4998,54.1001,88.4998L54.1001,88.4998z" id="connector2pin" stroke="white"/>
     </g>
     <g>
      <path fill="white" stroke-width="0.72" d="M37.3001,5.19999c-1.1,0,-2.1,-0.899998,-2.1,-2.09999s0.900002,-2.09999,2.1,-2.09999s2.1,0.899998,2.1,2.09999S38.4001,5.19999,37.3001,5.19999z" stroke="white"/>
      <path fill="white" stroke-width="0.72" gorn="0.1.0.2.1" d="M37.3001,1.8c0.700001,0,1.3,0.599998,1.3,1.3S38.0001,4.49999,37.3001,4.49999S36.0001,3.89999,36.0001,3.09999S36.6001,1.8,37.3001,1.8M37.3001,0.299999c-1.6,0,-2.80001,1.3,-2.80001,2.79999S35.7001,5.99998,37.3001,5.99998s2.80001,-1.3,2.80001,-2.79999S38.9001,0.299999,37.3001,0.299999L37.3001,0.299999z" id="connector1pin" stroke="white"/>
     </g>
     <g>
      <path fill="white" stroke-width="0.72" d="M84.9002,55.3999c-1.7,0,-3.00001,-1.4,-3.00001,-2.99999l0,-7.09998c0,-1.7,1.4,-2.99999,3.00001,-2.99999c1.7,0,3.00001,1.4,3.00001,2.99999l0,7.09998C87.9002,54.0999,86.6002,55.3999,84.9002,55.3999z" stroke="white"/>
      <path fill="white" stroke-width="0.72" d="M84.9002,42.7999c1.4,0,2.5,1.1,2.5,2.49999l0,7.09998c0,1.4,-1.1,2.49999,-2.5,2.49999c-1.4,0,-2.5,-1.1,-2.5,-2.49999l0,-7.09998C82.3001,43.8999,83.5002,42.7999,84.9002,42.7999M84.9002,41.7999L84.9002,41.7999c-2,0,-3.50001,1.6,-3.50001,3.49999l0,7.09998c0,1.99999,1.6,3.49999,3.50001,3.49999l0,0c2,0,3.50001,-1.6,3.50001,-3.49999l0,-7.09998C88.4002,43.2999,86.8002,41.7999,84.9002,41.7999L84.9002,41.7999z" stroke="white"/>
     </g>
     <g>
      <path fill="white" stroke-width="0.72" d="M3.50001,55.3999c-1.7,0,-3.00001,-1.4,-3.00001,-2.99999l0,-7.09998c0,-1.7,1.4,-2.99999,3.00001,-2.99999c1.7,0,3.00001,1.4,3.00001,2.99999l0,7.09998C6.60001,54.0999,5.20001,55.3999,3.50001,55.3999z" stroke="white"/>
      <path fill="white" stroke-width="0.72" d="M3.50001,42.7999c1.4,0,2.5,1.1,2.5,2.49999l0,7.09998c0,1.4,-1.1,2.49999,-2.5,2.49999S1,53.7999,1,52.3999l0,-7.09998C1,43.8999,2.1,42.7999,3.50001,42.7999M3.50001,41.7999c-2,0,-3.50001,1.6,-3.50001,3.49999l0,7.09998c0,1.99999,1.6,3.49999,3.50001,3.49999c2,0,3.50001,-1.6,3.50001,-3.49999l0,-7.09998C7.10001,43.2999,5.50001,41.7999,3.50001,41.7999L3.50001,41.7999z" stroke="white"/>
     </g>
    </g>
   </g>
  </g>
  <g partID="855312542">
   <g transform="translate(39.1824,88.308)">
    <g gorn="0.5" id="copper1">
     <g gorn="0.5.0" id="copper0">
      <circle fill="white" stroke-width="1.944" cx="46.8" gorn="0.5.0.0" cy="10.8" r="2.052" id="connector38pad" stroke="white"/>
      <circle fill="white" stroke-width="1.944" cx="46.8" gorn="0.5.0.1" cy="18" r="2.052" id="connector37pad" stroke="white"/>
      <circle fill="white" stroke-width="1.944" cx="46.8" gorn="0.5.0.2" cy="25.2" r="2.052" id="connector36pad" stroke="white"/>
      <circle fill="white" stroke-width="1.944" cx="46.8" gorn="0.5.0.3" cy="32.4" r="2.052" id="connector35pad" stroke="white"/>
      <circle fill="white" stroke-width="1.944" cx="46.8" gorn="0.5.0.4" cy="39.6" r="2.052" id="connector34pad" stroke="white"/>
      <circle fill="white" stroke-width="1.944" cx="46.8" gorn="0.5.0.5" cy="46.8" r="2.052" id="connector33pad" stroke="white"/>
      <circle fill="white" stroke-width="1.944" cx="46.8" gorn="0.5.0.6" cy="54" r="2.052" id="connector32pad" stroke="white"/>
      <circle fill="white" stroke-width="1.944" cx="46.8" gorn="0.5.0.7" cy="61.2" r="2.052" id="connector31pad" stroke="white"/>
      <circle fill="white" stroke-width="1.944" cx="46.8" gorn="0.5.0.8" cy="68.4" r="2.052" id="connector30pad" stroke="white"/>
      <circle fill="white" stroke-width="1.944" cx="46.8" gorn="0.5.0.9" cy="75.6" r="2.052" id="connector29pad" stroke="white"/>
      <circle fill="white" stroke-width="1.944" cx="46.8" gorn="0.5.0.10" cy="82.8" r="2.052" id="connector28pad" stroke="white"/>
      <circle fill="white" stroke-width="1.944" cx="46.8" gorn="0.5.0.11" cy="90" r="2.052" id="connector27pad" stroke="white"/>
      <circle fill="white" stroke-width="1.944" cx="3.6" gorn="0.5.0.12" cy="90" r="2.052" id="connector26pad" stroke="white"/>
      <circle fill="white" stroke-width="1.944" cx="3.6" gorn="0.5.0.13" cy="82.8" r="2.052" id="connector25pad" stroke="white"/>
      <circle fill="white" stroke-width="1.944" cx="3.6" gorn="0.5.0.14" cy="75.6" r="2.052" id="connector23pad" stroke="white"/>
      <circle fill="white" stroke-width="1.944" cx="3.6" gorn="0.5.0.15" cy="68.4" r="2.052" id="connector22pad" stroke="white"/>
      <circle fill="white" stroke-width="1.944" cx="3.6" gorn="0.5.0.16" cy="61.2" r="2.052" id="connector21pad" stroke="white"/>
      <circle fill="white" stroke-width="1.944" cx="3.6" gorn="0.5.0.17" cy="54" r="2.052" id="connector20pad" stroke="white"/>
      <circle fill="white" stroke-width="1.944" cx="3.6" gorn="0.5.0.18" cy="46.8" r="2.052" id="connector19pad" stroke="white"/>
      <circle fill="white" stroke-width="1.944" cx="3.6" gorn="0.5.0.19" cy="39.6" r="2.052" id="connector18pad" stroke="white"/>
      <circle fill="white" stroke-width="1.944" cx="3.6" gorn="0.5.0.20" cy="32.4" r="2.052" id="connector17pad" stroke="white"/>
      <circle fill="white" stroke-width="1.944" cx="3.6" gorn="0.5.0.21" cy="25.2" r="2.052" id="connector16pad" stroke="white"/>
      <circle fill="white" stroke-width="1.944" cx="3.6" gorn="0.5.0.22" cy="18" r="2.052" id="connector15pad" stroke="white"/>
      <circle fill="white" stroke-width="1.944" cx="3.6" gorn="0.5.0.23" cy="10.8" r="2.052" id="connector0pad" stroke="white"/>
      <rect fill="white" height="3.78569" y="8.90715" width="3.78569" stroke-width="2.26231" gorn="0.5.0.24" x="1.70716" id="connector14pad" stroke="white"/>
     </g>
    </g>
   </g>
  </g>
  <g partID="855162352">
   <g transform="translate(156.936,164.662)">
    <g transform="matrix(1,0,0,1,0,0)">
     <g id="copper1">
      <g id="copper0">
       <circle fill="white" cx="20.8462" stroke-width="2.16" cy="15.6024" id="connector0pad" r="1.98" stroke="white"/>
       <circle fill="white" cx="2.42064" stroke-width="2.16" cy="15.6024" id="connector1pad" r="1.98" stroke="white"/>
       <circle fill="white" cx="20.8462" stroke-width="2.16" cy="2.84616" id="connector2pad" r="1.98" stroke="white"/>
       <circle fill="white" cx="2.42064" stroke-width="2.16" cy="2.84616" id="connector3pad" r="1.98" stroke="white"/>
      </g>
     </g>
    </g>
   </g>
  </g>
  <g partID="855427563">
   <g transform="translate(62.7794,106.281)">
    <g id="copper1">
     <circle fill="white" cx="4.752" stroke-width="2.16" cy="27.7556" r="1.98" id="connector0pad" stroke="white"/>
     <circle fill="white" cx="4.75231" stroke-width="2.16" cy="4.752" r="1.98" id="connector1pad" stroke="white"/>
    </g>
   </g>
  </g>
  <g partID="855428272">
   <g transform="translate(101.462,137.628)">
    <g transform="matrix(0,1,-1,0,0,0)">
     <g id="copper1">
      <circle fill="white" cx="2.88" stroke-width="2.16" cy="2.88" id="connector0pin" r="1.8" stroke="white"/>
      <circle fill="white" cx="10.0933" stroke-width="2.16" cy="2.88" id="connector1pin" r="1.8" stroke="white"/>
     </g>
    </g>
   </g>
  </g>
  <g partID="855428292">
   <g transform="translate(31.4784,101.808)">
    <g transform="matrix(0,1,-1,0,0,0)">
     <g id="copper1">
      <!-- <rect width="55" x="10" y="15.5" fill="none" height="55" stroke="rgb(255, 191, 0)" stroke-width="20" />  -->
      <circle fill="white" cx="2.7" stroke-width="2.16" cy="3.096" r="1.98" id="connector0pin" stroke="white"/>
      <circle fill="white" cx="31.5" stroke-width="2.16" cy="3.096" r="1.98" id="connector1pin" stroke="white"/>
     </g>
    </g>
   </g>
  </g>
  <g partID="855428312">
   <g transform="translate(20.6784,101.808)">
    <g transform="matrix(0,1,-1,0,0,0)">
     <g id="copper1">
      <!-- <rect width="55" x="10" y="15.5" fill="none" height="55" stroke="rgb(255, 191, 0)" stroke-width="20" />  -->
      <circle fill="white" cx="2.7" stroke-width="2.16" cy="3.096" r="1.98" id="connector0pin" stroke="white"/>
      <circle fill="white" cx="31.5" stroke-width="2.16" cy="3.096" r="1.98" id="connector1pin" stroke="white"/>
     </g>
    </g>
   </g>
  </g>
  <g partID="855428332">
   <g transform="translate(103.622,118.548)">
    <g transform="matrix(-1,0,0,-1,0,0)">
     <g id="copper1">
      <g id="copper0">
       <circle fill="white" cx="5.04" stroke-width="2.16" cy="5.04" id="connector0pin" r="2.088" stroke="white"/>
       <circle fill="white" cx="5.04" stroke-width="2.16" cy="12.24" id="connector1pin" r="2.088" stroke="white"/>
      </g>
     </g>
    </g>
   </g>
  </g>
  <g partID="855428352">
   <g transform="translate(14.7024,150.588)">
    <g transform="matrix(0,-1,1,0,0,0)">
     <g id="copper1">
      <circle fill="white" cx="2.88" stroke-width="2.16" cy="2.88" id="connector0pin" r="1.8" stroke="white"/>
      <circle fill="white" cx="10.0933" stroke-width="2.16" cy="2.88" id="connector1pin" r="1.8" stroke="white"/>
     </g>
    </g>
   </g>
  </g>
  <g partID="855428372">
   <g transform="translate(25.5024,150.588)">
    <g transform="matrix(0,-1,1,0,0,0)">
     <g id="copper1">
      <circle fill="white" cx="2.88" stroke-width="2.16" cy="2.88" id="connector0pin" r="1.8" stroke="white"/>
      <circle fill="white" cx="10.0933" stroke-width="2.16" cy="2.88" id="connector1pin" r="1.8" stroke="white"/>
     </g>
    </g>
   </g>
  </g>
 </g>
</svg>
