<?xml version='1.0' encoding='UTF-8' standalone='no'?>
<!-- Created with Fritzing (http://www.fritzing.org/) -->
<svg xmlns="http://www.w3.org/2000/svg" version="1.2" y="0in" height="2.75591in" width="3.93701in"  baseProfile="tiny" x="0in" viewBox="0 0 283.465 198.425" xmlns:svg="http://www.w3.org/2000/svg">
 <g transform="matrix(-1, 0, 0, 1, 283.465, 0)">
  <g partID="57830">
   <g  id="board">
    <rect fill="none" height="197.849" y="0.288" width="282.889" stroke-width="0.5"  x="0.288" id="boardoutline" fill-opacity="0.5" stroke="black"/>
   </g>
  </g>
  <g partID="855428330">
   <g transform="translate(103.622,118.548)">
    <g transform="matrix(-1,0,0,-1,0,0)">
     <g  id="copper0">
      <circle fill="none" cx="5.04" stroke-width="1.44"  cy="5.04" id="connector0pin" r="2.088" stroke="black"/>
      <circle fill="none" cx="5.04" stroke-width="1.44"  cy="12.24" id="connector1pin" r="2.088" stroke="black"/>
     </g>
    </g>
   </g>
  </g>
  <g partID="855406250">
   <g transform="translate(94.9221,135.371)">
    <g transform="matrix(1,0,0,1,0,0)">
     <g transform="matrix(-1, 0, 0, 1, 100.739, 0)">
      <g _flipped_="1" id="copper0">
       <text fill="black" y="6.47606" xml:space="preserve" font-size="7.19563" stroke-width="0" text-anchor="middle" font-family="OCRA" x="50.3694" xmlns:xml="http://www.w3.org/XML/1998/namespace" id="label">BreakfastBerry</text>
      </g>
     </g>
    </g>
   </g>
  </g>
  <g partID="855406300">
   <g transform="translate(104.463,148.274)">
    <g transform="matrix(1,0,0,1,0,0)">
     <g transform="matrix(-1, 0, 0, 1, 35.9781, 0)">
      <g _flipped_="1" id="copper0">
       <text fill="black" y="6.47606" xml:space="preserve" font-size="7.19562" stroke-width="0" text-anchor="middle" font-family="OCRA" x="17.9891" xmlns:xml="http://www.w3.org/XML/1998/namespace" id="label">v0.15</text>
      </g>
     </g>
    </g>
   </g>
  </g>
  <g partID="855412970">
   <g transform="translate(106.437,81.9184)">
    <g gorn="0.4.0"  id="copper0">
     <rect fill="none" height="4.17199" y="4.30299" width="4.17499" stroke-width="1.43999" gorn="0.4.0.0"  x="26.0559" id="square" stroke="black"/>
     <circle fill="none" cx="49.7478" stroke-width="1.44" gorn="0.4.0.1" style="stroke-miterlimit:4;stroke-dasharray:none"  cy="6.38898" r="2.08899" id="connector8pin" stroke="black"/>
     <circle fill="none" cx="42.5478" stroke-width="1.43999" gorn="0.4.0.2"  cy="6.38998" r="2.08799" id="connector7pin" stroke="black"/>
     <circle fill="none" cx="35.3459" stroke-width="1.43999" gorn="0.4.0.3"  cy="6.38998" r="2.08799" id="connector5pin" stroke="black"/>
     <circle fill="none" cx="28.1429" stroke-width="1.43999" gorn="0.4.0.4"  cy="6.38998" r="2.08799" id="connector4pin" stroke="black"/>
    </g>
   </g>
  </g>
  <g partID="855428310">
   <g transform="translate(20.6784,101.808)">
    <g transform="matrix(0,1,-1,0,0,0)">
     <g  id="copper0">
      <g  id="copper1">
       <!-- <rect width="55" x="10" y="15.5" fill="none" height="55" stroke="rgb(255, 191, 0)" stroke-width="20" />  -->
       <circle fill="none" cx="2.7" stroke-width="1.44"  cy="3.096" r="1.98" id="connector0pin" stroke="black"/>
       <circle fill="none" cx="31.5" stroke-width="1.44"  cy="3.096" r="1.98" id="connector1pin" stroke="black"/>
      </g>
     </g>
    </g>
   </g>
  </g>
  <g partID="855428290">
   <g transform="translate(31.4784,101.808)">
    <g transform="matrix(0,1,-1,0,0,0)">
     <g  id="copper0">
      <g  id="copper1">
       <!-- <rect width="55" x="10" y="15.5" fill="none" height="55" stroke="rgb(255, 191, 0)" stroke-width="20" />  -->
       <circle fill="none" cx="2.7" stroke-width="1.44"  cy="3.096" r="1.98" id="connector0pin" stroke="black"/>
       <circle fill="none" cx="31.5" stroke-width="1.44"  cy="3.096" r="1.98" id="connector1pin" stroke="black"/>
      </g>
     </g>
    </g>
   </g>
  </g>
  <g partID="855341680">
   <g transform="translate(20.8426,85.6859)">
    <g transform="matrix(0,1,-1,0,0,0)">
     <g id="copper0" flipped="1">
      <g transform="matrix(-1, 0, 0, 1, 14.4567, 0)">
       <g>
        <g>
         <g>
          <rect fill="black" height="5.38583" y="0.566929" width="4.53543" stroke-width="0" x="0.566929" id="connector0pad" fill-opacity="1" stroke="none"/>
          <rect fill="black" height="5.38583" y="0.566929" width="4.53543" stroke-width="0" x="9.35433" id="connector1pad" fill-opacity="1" stroke="none"/>
         </g>
        </g>
       </g>
      </g>
     </g>
    </g>
   </g>
  </g>
  <g partID="855341600">
   <g transform="translate(31.6426,85.6859)">
    <g transform="matrix(0,1,-1,0,0,0)">
     <g id="copper0" flipped="1">
      <g transform="matrix(-1, 0, 0, 1, 14.4567, 0)">
       <g>
        <g>
         <g>
          <rect fill="black" height="5.38583" y="0.566929" width="4.53543" stroke-width="0" x="0.566929" id="connector0pad" fill-opacity="1" stroke="none"/>
          <rect fill="black" height="5.38583" y="0.566929" width="4.53543" stroke-width="0" x="9.35433" id="connector1pad" fill-opacity="1" stroke="none"/>
         </g>
        </g>
       </g>
      </g>
     </g>
    </g>
   </g>
  </g>
  <g partID="855428350">
   <g transform="translate(14.7024,150.588)">
    <g transform="matrix(0,-1,1,0,0,0)">
     <g  id="copper0">
      <g  id="copper1">
       <circle fill="none" cx="2.88" stroke-width="1.44"  cy="2.88" id="connector0pin" r="1.8" stroke="black"/>
       <circle fill="none" cx="10.0933" stroke-width="1.44"  cy="2.88" id="connector1pin" r="1.8" stroke="black"/>
      </g>
     </g>
    </g>
   </g>
  </g>
  <g partID="855428370">
   <g transform="translate(25.5024,150.588)">
    <g transform="matrix(0,-1,1,0,0,0)">
     <g  id="copper0">
      <g  id="copper1">
       <circle fill="none" cx="2.88" stroke-width="1.44"  cy="2.88" id="connector0pin" r="1.8" stroke="black"/>
       <circle fill="none" cx="10.0933" stroke-width="1.44"  cy="2.88" id="connector1pin" r="1.8" stroke="black"/>
      </g>
     </g>
    </g>
   </g>
  </g>
  <g partID="855372740">
   <g transform="translate(48.8304,99.756)">
    <g  id="copper0">
     <circle fill="none" cx="4.752" stroke-width="1.44"  cy="4.752" r="1.98" id="connector0pad" stroke="black"/>
     <circle fill="none" cx="24.852" stroke-width="1.44"  cy="4.9395" r="1.98" id="connector1pad" stroke="black"/>
    </g>
   </g>
  </g>
  <g partID="855338060">
   <g transform="translate(190.282,90.608)">
    <g gorn="0.1"  id="copper0">
     <g gorn="0.1.0"  id="copper1">
      <g >
       <path fill="black"  d="M34.3001,93.4998c-1.1,0,-2.1,-0.899998,-2.1,-2.09999s0.900002,-2.09999,2.1,-2.09999s2.1,0.899998,2.1,2.09999S35.4001,93.4998,34.3001,93.4998z"/>
       <path fill="black" gorn="0.1.0.0.1"  d="M34.3001,89.9998c0.700001,0,1.3,0.599998,1.3,1.3s-0.600001,1.3,-1.3,1.3S33.0001,92.0998,33.0001,91.3998S33.6001,89.9998,34.3001,89.9998M34.3001,88.4998c-1.6,0,-2.80001,1.3,-2.80001,2.79999s1.3,2.79999,2.80001,2.79999s2.80001,-1.3,2.80001,-2.79999S35.9001,88.4998,34.3001,88.4998L34.3001,88.4998z" id="connector0pin"/>
      </g>
      <g >
       <path fill="black"  d="M54.1001,93.4998c-1.1,0,-2.1,-0.899998,-2.1,-2.09999s0.900002,-2.09999,2.1,-2.09999s2.1,0.899998,2.1,2.09999S55.3001,93.4998,54.1001,93.4998z"/>
       <path fill="black" gorn="0.1.0.1.1"  d="M54.1001,89.9998c0.700001,0,1.3,0.599998,1.3,1.3s-0.600001,1.3,-1.3,1.3s-1.3,-0.599998,-1.3,-1.3S53.4001,89.9998,54.1001,89.9998M54.1001,88.4998c-1.6,0,-2.80001,1.3,-2.80001,2.79999s1.3,2.79999,2.80001,2.79999c1.6,0,2.80001,-1.3,2.80001,-2.79999S55.7001,88.4998,54.1001,88.4998L54.1001,88.4998z" id="connector2pin"/>
      </g>
      <g >
       <path fill="black"  d="M37.3001,5.19999c-1.1,0,-2.1,-0.899998,-2.1,-2.09999s0.900002,-2.09999,2.1,-2.09999s2.1,0.899998,2.1,2.09999S38.4001,5.19999,37.3001,5.19999z"/>
       <path fill="black" gorn="0.1.0.2.1"  d="M37.3001,1.8c0.700001,0,1.3,0.599998,1.3,1.3S38.0001,4.49999,37.3001,4.49999S36.0001,3.89999,36.0001,3.09999S36.6001,1.8,37.3001,1.8M37.3001,0.299999c-1.6,0,-2.80001,1.3,-2.80001,2.79999S35.7001,5.99998,37.3001,5.99998s2.80001,-1.3,2.80001,-2.79999S38.9001,0.299999,37.3001,0.299999L37.3001,0.299999z" id="connector1pin"/>
      </g>
      <g >
       <path fill="black"  d="M84.9002,55.3999c-1.7,0,-3.00001,-1.4,-3.00001,-2.99999l0,-7.09998c0,-1.7,1.4,-2.99999,3.00001,-2.99999c1.7,0,3.00001,1.4,3.00001,2.99999l0,7.09998C87.9002,54.0999,86.6002,55.3999,84.9002,55.3999z"/>
       <path fill="black"  d="M84.9002,42.7999c1.4,0,2.5,1.1,2.5,2.49999l0,7.09998c0,1.4,-1.1,2.49999,-2.5,2.49999c-1.4,0,-2.5,-1.1,-2.5,-2.49999l0,-7.09998C82.3001,43.8999,83.5002,42.7999,84.9002,42.7999M84.9002,41.7999L84.9002,41.7999c-2,0,-3.50001,1.6,-3.50001,3.49999l0,7.09998c0,1.99999,1.6,3.49999,3.50001,3.49999l0,0c2,0,3.50001,-1.6,3.50001,-3.49999l0,-7.09998C88.4002,43.2999,86.8002,41.7999,84.9002,41.7999L84.9002,41.7999z"/>
      </g>
      <g >
       <path fill="black"  d="M3.50001,55.3999c-1.7,0,-3.00001,-1.4,-3.00001,-2.99999l0,-7.09998c0,-1.7,1.4,-2.99999,3.00001,-2.99999c1.7,0,3.00001,1.4,3.00001,2.99999l0,7.09998C6.60001,54.0999,5.20001,55.3999,3.50001,55.3999z"/>
       <path fill="black"  d="M3.50001,42.7999c1.4,0,2.5,1.1,2.5,2.49999l0,7.09998c0,1.4,-1.1,2.49999,-2.5,2.49999S1,53.7999,1,52.3999l0,-7.09998C1,43.8999,2.1,42.7999,3.50001,42.7999M3.50001,41.7999c-2,0,-3.50001,1.6,-3.50001,3.49999l0,7.09998c0,1.99999,1.6,3.49999,3.50001,3.49999c2,0,3.50001,-1.6,3.50001,-3.49999l0,-7.09998C7.10001,43.2999,5.50001,41.7999,3.50001,41.7999L3.50001,41.7999z"/>
      </g>
     </g>
    </g>
   </g>
  </g>
  <g partID="855312540">
   <g transform="translate(39.1824,88.308)">
    <g gorn="0.5.0"  id="copper0">
     <circle fill="none" stroke-width="1.224" cx="46.8" gorn="0.5.0.0"  cy="10.8" r="2.052" id="connector38pad" stroke="black"/>
     <circle fill="none" stroke-width="1.224" cx="46.8" gorn="0.5.0.1"  cy="18" r="2.052" id="connector37pad" stroke="black"/>
     <circle fill="none" stroke-width="1.224" cx="46.8" gorn="0.5.0.2"  cy="25.2" r="2.052" id="connector36pad" stroke="black"/>
     <circle fill="none" stroke-width="1.224" cx="46.8" gorn="0.5.0.3"  cy="32.4" r="2.052" id="connector35pad" stroke="black"/>
     <circle fill="none" stroke-width="1.224" cx="46.8" gorn="0.5.0.4"  cy="39.6" r="2.052" id="connector34pad" stroke="black"/>
     <circle fill="none" stroke-width="1.224" cx="46.8" gorn="0.5.0.5"  cy="46.8" r="2.052" id="connector33pad" stroke="black"/>
     <circle fill="none" stroke-width="1.224" cx="46.8" gorn="0.5.0.6"  cy="54" r="2.052" id="connector32pad" stroke="black"/>
     <circle fill="none" stroke-width="1.224" cx="46.8" gorn="0.5.0.7"  cy="61.2" r="2.052" id="connector31pad" stroke="black"/>
     <circle fill="none" stroke-width="1.224" cx="46.8" gorn="0.5.0.8"  cy="68.4" r="2.052" id="connector30pad" stroke="black"/>
     <circle fill="none" stroke-width="1.224" cx="46.8" gorn="0.5.0.9"  cy="75.6" r="2.052" id="connector29pad" stroke="black"/>
     <circle fill="none" stroke-width="1.224" cx="46.8" gorn="0.5.0.10"  cy="82.8" r="2.052" id="connector28pad" stroke="black"/>
     <circle fill="none" stroke-width="1.224" cx="46.8" gorn="0.5.0.11"  cy="90" r="2.052" id="connector27pad" stroke="black"/>
     <circle fill="none" stroke-width="1.224" cx="3.6" gorn="0.5.0.12"  cy="90" r="2.052" id="connector26pad" stroke="black"/>
     <circle fill="none" stroke-width="1.224" cx="3.6" gorn="0.5.0.13"  cy="82.8" r="2.052" id="connector25pad" stroke="black"/>
     <circle fill="none" stroke-width="1.224" cx="3.6" gorn="0.5.0.14"  cy="75.6" r="2.052" id="connector23pad" stroke="black"/>
     <circle fill="none" stroke-width="1.224" cx="3.6" gorn="0.5.0.15"  cy="68.4" r="2.052" id="connector22pad" stroke="black"/>
     <circle fill="none" stroke-width="1.224" cx="3.6" gorn="0.5.0.16"  cy="61.2" r="2.052" id="connector21pad" stroke="black"/>
     <circle fill="none" stroke-width="1.224" cx="3.6" gorn="0.5.0.17"  cy="54" r="2.052" id="connector20pad" stroke="black"/>
     <circle fill="none" stroke-width="1.224" cx="3.6" gorn="0.5.0.18"  cy="46.8" r="2.052" id="connector19pad" stroke="black"/>
     <circle fill="none" stroke-width="1.224" cx="3.6" gorn="0.5.0.19"  cy="39.6" r="2.052" id="connector18pad" stroke="black"/>
     <circle fill="none" stroke-width="1.224" cx="3.6" gorn="0.5.0.20"  cy="32.4" r="2.052" id="connector17pad" stroke="black"/>
     <circle fill="none" stroke-width="1.224" cx="3.6" gorn="0.5.0.21"  cy="25.2" r="2.052" id="connector16pad" stroke="black"/>
     <circle fill="none" stroke-width="1.224" cx="3.6" gorn="0.5.0.22"  cy="18" r="2.052" id="connector15pad" stroke="black"/>
     <circle fill="none" stroke-width="1.224" cx="3.6" gorn="0.5.0.23"  cy="10.8" r="2.052" id="connector0pad" stroke="black"/>
     <rect fill="none" height="3.78569" y="8.90715" width="3.78569" stroke-width="1.54231" gorn="0.5.0.24"  x="1.70716" id="connector14pad" stroke="black"/>
    </g>
   </g>
  </g>
  <g partID="855307150">
   <g transform="translate(76.0044,123.968)">
    <g transform="matrix(-1,0,0,-1,0,0)">
     <g id="copper0" flipped="1">
      <g transform="matrix(-1, 0, 0, 1, 14.4567, 0)">
       <g>
        <g>
         <g>
          <rect fill="black" height="5.38583" y="0.566929" width="4.53543" stroke-width="0" x="0.566929" id="connector0pad" fill-opacity="1" stroke="none"/>
          <rect fill="black" height="5.38583" y="0.566929" width="4.53543" stroke-width="0" x="9.35433" id="connector1pad" fill-opacity="1" stroke="none"/>
         </g>
        </g>
       </g>
      </g>
     </g>
    </g>
   </g>
  </g>
  <g partID="855307130">
   <g transform="translate(76.0044,147.368)">
    <g transform="matrix(-1,0,0,-1,0,0)">
     <g id="copper0" flipped="1">
      <g transform="matrix(-1, 0, 0, 1, 14.4567, 0)">
       <g>
        <g>
         <g>
          <rect fill="black" height="5.38583" y="0.566929" width="4.53543" stroke-width="0" x="0.566929" id="connector0pad" fill-opacity="1" stroke="none"/>
          <rect fill="black" height="5.38583" y="0.566929" width="4.53543" stroke-width="0" x="9.35433" id="connector1pad" fill-opacity="1" stroke="none"/>
         </g>
        </g>
       </g>
      </g>
     </g>
    </g>
   </g>
  </g>
  <g partID="855162350">
   <g transform="translate(156.936,164.662)">
    <g transform="matrix(1,0,0,1,0,0)">
     <g  id="copper0">
      <circle fill="none" cx="20.8462" stroke-width="1.44"  cy="15.6024" id="connector0pad" r="1.98" stroke="black"/>
      <circle fill="none" cx="2.42064" stroke-width="1.44"  cy="15.6024" id="connector1pad" r="1.98" stroke="black"/>
      <circle fill="none" cx="20.8462" stroke-width="1.44"  cy="2.84616" id="connector2pad" r="1.98" stroke="black"/>
      <circle fill="none" cx="2.42064" stroke-width="1.44"  cy="2.84616" id="connector3pad" r="1.98" stroke="black"/>
     </g>
    </g>
   </g>
  </g>
  <g partID="855307110">
   <g transform="translate(101.843,155.886)">
    <g transform="matrix(0,1,-1,0,0,0)">
     <g id="copper0" flipped="1">
      <g transform="matrix(-1, 0, 0, 1, 14.4567, 0)">
       <g>
        <g>
         <g>
          <rect fill="black" height="5.38583" y="0.566929" width="4.53543" stroke-width="0" x="0.566929" id="connector0pad" fill-opacity="1" stroke="none"/>
          <rect fill="black" height="5.38583" y="0.566929" width="4.53543" stroke-width="0" x="9.35433" id="connector1pad" fill-opacity="1" stroke="none"/>
         </g>
        </g>
       </g>
      </g>
     </g>
    </g>
   </g>
  </g>
  <g partID="855428270">
   <g transform="translate(101.462,137.628)">
    <g transform="matrix(0,1,-1,0,0,0)">
     <g  id="copper0">
      <g  id="copper1">
       <circle fill="none" cx="2.88" stroke-width="1.44"  cy="2.88" id="connector0pin" r="1.8" stroke="black"/>
       <circle fill="none" cx="10.0933" stroke-width="1.44"  cy="2.88" id="connector1pin" r="1.8" stroke="black"/>
      </g>
     </g>
    </g>
   </g>
  </g>
  <g partID="855427560">
   <g transform="translate(62.7794,106.281)">
    <g  id="copper0">
     <circle fill="none" cx="4.752" stroke-width="1.44"  cy="27.7556" r="1.98" id="connector0pad" stroke="black"/>
     <circle fill="none" cx="4.75231" stroke-width="1.44"  cy="4.752" r="1.98" id="connector1pad" stroke="black"/>
    </g>
   </g>
  </g>
  <g partID="855412250">
   <line y2="141.632" stroke-linecap="round" stroke-width="1.728" x2="100.09" y1="145.9" x1="105.814" stroke="black"/>
  </g>
  <g partID="855411980">
   <line y2="145.9" stroke-linecap="round" stroke-width="1.728" x2="105.814" y1="156.794" x1="105.718" stroke="black"/>
  </g>
  <g partID="855397520">
   <line y2="156.794" stroke-linecap="round" stroke-width="1.728" x2="105.718" y1="160.277" x1="109.394" stroke="black"/>
  </g>
  <g partID="855402150">
   <line y2="176.465" stroke-linecap="round" stroke-width="1.728" x2="166.981" y1="180.146" x1="163.3" stroke="black"/>
  </g>
  <g partID="855401900">
   <line y2="160.269" stroke-linecap="round" stroke-width="1.728" x2="163.3" y1="163.95" x1="166.981" stroke="black"/>
  </g>
  <g partID="855401620">
   <line y2="160.277" stroke-linecap="round" stroke-width="1.728" x2="109.394" y1="160.269" x1="163.3" stroke="black"/>
  </g>
  <g partID="855397640">
   <line y2="163.949" stroke-linecap="round" stroke-width="1.728" x2="166.981" y1="176.465" x1="166.981" stroke="black"/>
  </g>
  <g partID="855397530">
   <line y2="180.146" stroke-linecap="round" stroke-width="1.728" x2="163.3" y1="180.202" x1="161.416" stroke="black"/>
  </g>
  <g partID="855397810">
   <line y2="149.601" stroke-linecap="round" stroke-width="1.728" x2="98.5825" y1="156.853" x1="98.5827" stroke="black"/>
  </g>
  <g partID="855400730">
   <line y2="113.508" stroke-linecap="round" stroke-width="1.728" x2="88.2224" y1="113.508" x1="96.4144" stroke="black"/>
  </g>
  <g partID="855400770">
   <line y2="106.308" stroke-linecap="round" stroke-width="1.728" x2="96.4144" y1="106.308" x1="88.2224" stroke="black"/>
  </g>
  <g partID="855401450">
   <line y2="106.322" stroke-linecap="round" stroke-width="1.728" x2="100.75" y1="106.331" x1="102.193" stroke="black"/>
  </g>
  <g partID="855401050">
   <line y2="106.331" stroke-linecap="round" stroke-width="1.728" x2="102.193" y1="110.006" x1="105.868" stroke="black"/>
  </g>
  <g partID="855412700">
   <line y2="110.006" stroke-linecap="round" stroke-width="1.728" x2="105.868" y1="117.111" x1="105.868" stroke="black"/>
  </g>
  <g partID="855411590">
   <line y2="117.111" stroke-linecap="round" stroke-width="1.728" x2="105.868" y1="124.292" x1="98.5594" stroke="black"/>
  </g>
  <g partID="855401060">
   <line y2="124.292" stroke-linecap="round" stroke-width="1.728" x2="98.5594" y1="138.628" x1="98.5797" stroke="black"/>
  </g>
  <g partID="855413110">
   <line y2="104.14" stroke-linecap="round" stroke-width="1.728" x2="98.5875" y1="91.8782" x1="98.6162" stroke="black"/>
  </g>
  <g partID="855413170">
   <line y2="91.8782" stroke-linecap="round" stroke-width="1.728" x2="98.6162" y1="88.3054" x1="102.188" stroke="black"/>
  </g>
  <g partID="855413120">
   <line y2="88.3054" stroke-linecap="round" stroke-width="1.728" x2="102.188" y1="88.3078" x1="132.411" stroke="black"/>
  </g>
  <g partID="855414290">
   <line y2="83.0064" stroke-linecap="round" stroke-width="1.728" x2="138.221" y1="83.0064" x1="76.9104" stroke="black"/>
  </g>
  <g partID="855413960">
   <line y2="83.0068" stroke-linecap="round" stroke-width="1.728" x2="76.91" y1="86.4256" x1="73.4912" stroke="black"/>
  </g>
  <g partID="855413930">
   <line y2="86.5083" stroke-linecap="round" stroke-width="1.728" x2="140.574" y1="83.0064" x1="138.221" stroke="black"/>
  </g>
  <g partID="855413900">
   <line y2="86.425" stroke-linecap="round" stroke-width="1.728" x2="73.4913" y1="102.635" x1="73.6609" stroke="black"/>
  </g>
  <g partID="855414410">
   <line y2="86.1379" stroke-linecap="round" stroke-width="1.728" x2="156.202" y1="83.0064" x1="156.226" stroke="black"/>
  </g>
  <g partID="855414010">
   <line y2="83.0062" stroke-linecap="round" stroke-width="1.728" x2="156.226" y1="75.7128" x1="148.933" stroke="black"/>
  </g>
  <g partID="855414380">
   <line y2="75.7134" stroke-linecap="round" stroke-width="1.728" x2="148.933" y1="75.6064" x1="73.484" stroke="black"/>
  </g>
  <g partID="855414050">
   <line y2="75.6064" stroke-linecap="round" stroke-width="1.728" x2="73.484" y1="84.6861" x1="64.4042" stroke="black"/>
  </g>
  <g partID="855427720">
   <line y2="84.6861" stroke-linecap="round" stroke-width="1.728" x2="64.4042" y1="100.963" x1="64.3995" stroke="black"/>
  </g>
  <g partID="855427690">
   <line y2="100.963" stroke-linecap="round" stroke-width="1.728" x2="64.3995" y1="106.275" x1="60.7876" stroke="black"/>
  </g>
  <g partID="855427660">
   <line y2="106.275" stroke-linecap="round" stroke-width="1.728" x2="60.7876" y1="113.499" x1="60.7876" stroke="black"/>
  </g>
  <g partID="855427630">
   <line y2="113.499" stroke-linecap="round" stroke-width="1.728" x2="60.7876" y1="117.111" x1="64.3995" stroke="black"/>
  </g>
  <g partID="855414020">
   <line y2="117.111" stroke-linecap="round" stroke-width="1.728" x2="64.3995" y1="118.415" x1="64.3933" stroke="black"/>
  </g>
  <g partID="855414350">
   <line y2="86.3034" stroke-linecap="round" stroke-width="1.728" x2="68.2238" y1="79.2872" x1="75.2023" stroke="black"/>
  </g>
  <g partID="855427860">
   <line y2="141.815" stroke-linecap="round" stroke-width="1.728" x2="64.3898" y1="138.782" x1="64.3995" stroke="black"/>
  </g>
  <g partID="855414170">
   <line y2="138.782" stroke-linecap="round" stroke-width="1.728" x2="64.3995" y1="135.756" x1="66.3966" stroke="black"/>
  </g>
  <g partID="855414100">
   <line y2="79.2872" stroke-linecap="round" stroke-width="1.728" x2="75.2023" y1="79.2872" x1="145.386" stroke="black"/>
  </g>
  <g partID="855414320">
   <line y2="79.287" stroke-linecap="round" stroke-width="1.728" x2="145.386" y1="82.968" x1="149.067" stroke="black"/>
  </g>
  <g partID="855414110">
   <line y2="82.9681" stroke-linecap="round" stroke-width="1.728" x2="149.067" y1="86.1403" x1="149.018" stroke="black"/>
  </g>
  <g partID="855414220">
   <line y2="90.1491" stroke-linecap="round" stroke-width="1.728" x2="135.724" y1="93.8392" x1="138.018" stroke="black"/>
  </g>
  <g partID="855414230">
   <line y2="93.8394" stroke-linecap="round" stroke-width="1.728" x2="138.018" y1="93.7612" x1="224.482" stroke="black"/>
  </g>
  <g partID="855369670">
   <line y2="88.5208" stroke-linecap="round" stroke-width="1.728" x2="26.0898" y1="88.5208" x1="19.8756" stroke="black"/>
  </g>
  <g partID="855371190">
   <line y2="102.448" stroke-linecap="round" stroke-width="1.728" x2="17.5825" y1="99.1757" x1="17.5826" stroke="black"/>
  </g>
  <g partID="855371230">
   <line y2="99.1757" stroke-linecap="round" stroke-width="1.728" x2="28.3826" y1="102.448" x1="28.3825" stroke="black"/>
  </g>
  <g partID="855373860">
   <line y2="111.683" stroke-linecap="round" stroke-width="1.728" x2="28.3985" y1="117.137" x1="22.9445" stroke="black"/>
  </g>
  <g partID="855373830">
   <line y2="106.568" stroke-linecap="round" stroke-width="1.728" x2="28.387" y1="111.683" x1="28.3985" stroke="black"/>
  </g>
  <g partID="855371290">
   <line y2="117.137" stroke-linecap="round" stroke-width="1.728" x2="22.9445" y1="117.137" x1="15.8128" stroke="black"/>
  </g>
  <g partID="855374430">
   <line y2="180.098" stroke-linecap="round" stroke-width="1.728" x2="35.696" y1="183.664" x1="39.2624" stroke="black"/>
  </g>
  <g partID="855374400">
   <line y2="162.01" stroke-linecap="round" stroke-width="1.728" x2="35.696" y1="180.098" x1="35.696" stroke="black"/>
  </g>
  <g partID="855374370">
   <line y2="156.661" stroke-linecap="round" stroke-width="1.728" x2="30.0915" y1="162.01" x1="35.696" stroke="black"/>
  </g>
  <g partID="855374340">
   <line y2="156.693" stroke-linecap="round" stroke-width="1.728" x2="15.8056" y1="156.661" x1="30.0915" stroke="black"/>
  </g>
  <g partID="855373960">
   <line y2="183.664" stroke-linecap="round" stroke-width="1.728" x2="39.2624" y1="183.624" x1="69.8544" stroke="black"/>
  </g>
  <g partID="855373930">
   <line y2="183.624" stroke-linecap="round" stroke-width="1.728" x2="69.8544" y1="187.325" x1="73.3488" stroke="black"/>
  </g>
  <g partID="855372400">
   <line y2="153.038" stroke-linecap="round" stroke-width="1.728" x2="12.1496" y1="156.693" x1="15.8056" stroke="black"/>
  </g>
  <g partID="855371890">
   <line y2="117.137" stroke-linecap="round" stroke-width="1.728" x2="15.813" y1="120.721" x1="12.1496" stroke="black"/>
  </g>
  <g partID="855371360">
   <line y2="187.325" stroke-linecap="round" stroke-width="1.728" x2="73.3488" y1="187.227" x1="215.634" stroke="black"/>
  </g>
  <g partID="855371330">
   <line y2="120.721" stroke-linecap="round" stroke-width="1.728" x2="12.1496" y1="153.038" x1="12.1496" stroke="black"/>
  </g>
  <g partID="855371300">
   <line y2="187.227" stroke-linecap="round" stroke-width="1.728" x2="215.634" y1="183.492" x1="221.918" stroke="black"/>
  </g>
  <g partID="855371390">
   <line y2="135.368" stroke-linecap="round" stroke-width="1.728" x2="17.5824" y1="138.615" x1="17.5824" stroke="black"/>
  </g>
  <g partID="855371430">
   <line y2="138.615" stroke-linecap="round" stroke-width="1.728" x2="28.3824" y1="135.368" x1="28.3824" stroke="black"/>
  </g>
  <g partID="855371470">
   <line y2="147.708" stroke-linecap="round" stroke-width="1.728" x2="26.5024" y1="147.708" x1="19.4624" stroke="black"/>
  </g>
  <g partID="855371550">
   <line y2="147.711" stroke-linecap="round" stroke-width="1.728" x2="30.2624" y1="147.715" x1="33.8677" stroke="black"/>
  </g>
  <g partID="855371660">
   <line y2="147.715" stroke-linecap="round" stroke-width="1.728" x2="33.8677" y1="145.898" x1="35.6848" stroke="black"/>
  </g>
  <g partID="855371610">
   <line y2="145.898" stroke-linecap="round" stroke-width="1.728" x2="35.6848" y1="128.03" x1="35.6848" stroke="black"/>
  </g>
  <g partID="855371560">
   <line y2="128.03" stroke-linecap="round" stroke-width="1.728" x2="35.6848" y1="122.316" x1="41.2234" stroke="black"/>
  </g>
  <g partID="855372240">
   <line y2="131.248" stroke-linecap="round" stroke-width="1.728" x2="17.5935" y1="124.269" x1="17.6313" stroke="black"/>
  </g>
  <g partID="855372020">
   <line y2="124.269" stroke-linecap="round" stroke-width="1.728" x2="17.6313" y1="120.773" x1="21.1271" stroke="black"/>
  </g>
  <g partID="855373740">
   <line y2="120.773" stroke-linecap="round" stroke-width="1.728" x2="21.1271" y1="120.773" x1="26.5808" stroke="black"/>
  </g>
  <g partID="855373710">
   <line y2="120.773" stroke-linecap="round" stroke-width="1.728" x2="26.5806" y1="113.567" x1="33.8456" stroke="black"/>
  </g>
  <g partID="855372120">
   <line y2="113.567" stroke-linecap="round" stroke-width="1.728" x2="33.846" y1="106.281" x1="33.8456" stroke="black"/>
  </g>
  <g partID="855378880">
   <line y2="106.281" stroke-linecap="round" stroke-width="1.728" x2="33.8456" y1="100.995" x1="41.068" stroke="black"/>
  </g>
  <g partID="855372030">
   <line y2="100.995" stroke-linecap="round" stroke-width="1.728" x2="41.068" y1="101.278" x1="40.8114" stroke="black"/>
  </g>
  <g partID="855372080">
   <line y2="131.248" stroke-linecap="round" stroke-width="1.728" x2="28.3861" y1="124.269" x1="28.3985" stroke="black"/>
  </g>
  <g partID="855372180">
   <line y2="124.269" stroke-linecap="round" stroke-width="1.728" x2="28.3985" y1="115.348" x1="37.4256" stroke="black"/>
  </g>
  <g partID="855372150">
   <line y2="115.348" stroke-linecap="round" stroke-width="1.728" x2="37.4256" y1="109.96" x1="37.4256" stroke="black"/>
  </g>
  <g partID="855372090">
   <line y2="109.96" stroke-linecap="round" stroke-width="1.728" x2="37.4256" y1="107.57" x1="40.9316" stroke="black"/>
  </g>
  <g partID="855372480">
   <line y2="106.568" stroke-linecap="round" stroke-width="1.728" x2="17.5995" y1="109.933" x1="17.6274" stroke="black"/>
  </g>
  <g partID="855374080">
   <line y2="187.231" stroke-linecap="round" stroke-width="1.728" x2="37.4792" y1="187.324" x1="66.1541" stroke="black"/>
  </g>
  <g partID="855374020">
   <line y2="187.324" stroke-linecap="round" stroke-width="1.728" x2="66.1541" y1="190.819" x1="69.8536" stroke="black"/>
  </g>
  <g partID="855372610">
   <line y2="190.819" stroke-linecap="round" stroke-width="1.728" x2="69.8536" y1="190.974" x1="233.62" stroke="black"/>
  </g>
  <g partID="855374550">
   <line y2="154.875" stroke-linecap="round" stroke-width="1.728" x2="8.64" y1="160.349" x1="14.0504" stroke="black"/>
  </g>
  <g partID="855374520">
   <line y2="160.349" stroke-linecap="round" stroke-width="1.728" x2="14.0504" y1="160.227" x1="28.3083" stroke="black"/>
  </g>
  <g partID="855374490">
   <line y2="160.227" stroke-linecap="round" stroke-width="1.728" x2="28.3083" y1="163.794" x1="31.8747" stroke="black"/>
  </g>
  <g partID="855374460">
   <line y2="163.794" stroke-linecap="round" stroke-width="1.728" x2="31.8747" y1="181.881" x1="31.8747" stroke="black"/>
  </g>
  <g partID="855372580">
   <line y2="181.881" stroke-linecap="round" stroke-width="1.728" x2="31.8747" y1="187.231" x1="37.4792" stroke="black"/>
  </g>
  <g partID="855372550">
   <line y2="118.935" stroke-linecap="round" stroke-width="1.728" x2="8.62559" y1="154.875" x1="8.64" stroke="black"/>
  </g>
  <g partID="855372520">
   <line y2="109.933" stroke-linecap="round" stroke-width="1.728" x2="17.6274" y1="118.935" x1="8.62559" stroke="black"/>
  </g>
  <g partID="855372490">
   <line y2="190.974" stroke-linecap="round" stroke-width="1.728" x2="233.62" y1="183.905" x1="242.011" stroke="black"/>
  </g>
  <g partID="855372840">
   <line y2="106.756" stroke-linecap="round" stroke-width="1.728" x2="73.6571" y1="122.511" x1="73.4632" stroke="black"/>
  </g>
  <g partID="855372770">
   <line y2="122.511" stroke-linecap="round" stroke-width="1.728" x2="73.4632" y1="120.708" x1="73.1698" stroke="black"/>
  </g>
  <g partID="855372930">
   <line y2="102.448" stroke-linecap="round" stroke-width="1.728" x2="53.5838" y1="91.8376" x1="53.5896" stroke="black"/>
  </g>
  <g partID="855372990">
   <line y2="91.8375" stroke-linecap="round" stroke-width="1.728" x2="53.5896" y1="88.4088" x1="49.916" stroke="black"/>
  </g>
  <g partID="855372940">
   <line y2="88.4089" stroke-linecap="round" stroke-width="1.728" x2="49.9158" y1="88.5089" x1="30.6756" stroke="black"/>
  </g>
  <g partID="855316530">
   <line y2="123.001" stroke-linecap="round" stroke-width="1.728" x2="63.2436" y1="127.946" x1="60.7876" stroke="black"/>
  </g>
  <g partID="855316540">
   <line y2="127.946" stroke-linecap="round" stroke-width="1.728" x2="60.7876" y1="127.913" x1="45.0224" stroke="black"/>
  </g>
  <g partID="855322230">
   <line y2="120.708" stroke-linecap="round" stroke-width="1.728" x2="83.7424" y1="120.708" x1="75.0375" stroke="black"/>
  </g>
  <g partID="855322330">
   <line y2="141.815" stroke-linecap="round" stroke-width="1.728" x2="73.1698" y1="123.001" x1="73.1698" stroke="black"/>
  </g>
  <g partID="855322410">
   <line y2="138.782" stroke-linecap="round" stroke-width="1.728" x2="64.3995" y1="135.17" x1="60.7876" stroke="black"/>
  </g>
  <g partID="855427770">
   <line y2="141.815" stroke-linecap="round" stroke-width="1.728" x2="64.3898" y1="138.782" x1="64.3995" stroke="black"/>
  </g>
  <g partID="855322420">
   <line y2="135.17" stroke-linecap="round" stroke-width="1.728" x2="60.7876" y1="135.116" x1="45.0224" stroke="black"/>
  </g>
  <g partID="855329160">
   <line y2="167.508" stroke-linecap="round" stroke-width="1.728" x2="100.876" y1="167.508" x1="157.297" stroke="black"/>
  </g>
  <g partID="855329440">
   <line y2="169.376" stroke-linecap="round" stroke-width="1.728" x2="98.5727" y1="180.146" x1="98.5152" stroke="black"/>
  </g>
  <g partID="855329600">
   <line y2="174.693" stroke-linecap="round" stroke-width="1.728" x2="73.3534" y1="171.161" x1="69.8216" stroke="black"/>
  </g>
  <g partID="855329570">
   <line y2="180.167" stroke-linecap="round" stroke-width="1.728" x2="73.3536" y1="174.693" x1="73.3536" stroke="black"/>
  </g>
  <g partID="855329540">
   <line y2="183.699" stroke-linecap="round" stroke-width="1.728" x2="77.062" y1="180.167" x1="73.3536" stroke="black"/>
  </g>
  <g partID="855329510">
   <line y2="183.827" stroke-linecap="round" stroke-width="1.728" x2="95.079" y1="183.699" x1="77.0616" stroke="black"/>
  </g>
  <g partID="855329480">
   <line y2="180.146" stroke-linecap="round" stroke-width="1.728" x2="98.5148" y1="183.827" x1="95.0792" stroke="black"/>
  </g>
  <g partID="855329450">
   <line y2="171.161" stroke-linecap="round" stroke-width="1.728" x2="69.8216" y1="171.112" x1="45.0224" stroke="black"/>
  </g>
  <g partID="855427910">
   <line y2="108.974" stroke-linecap="round" stroke-width="1.728" x2="67.5893" y1="86.3034" x1="68.2238" stroke="black"/>
  </g>
  <g partID="855428110">
   <line y2="126.176" stroke-linecap="round" stroke-width="1.728" x2="93.2626" y1="122.053" x1="87.7735" stroke="black"/>
  </g>
  <g partID="855428140">
   <line y2="142.346" stroke-linecap="round" stroke-width="1.728" x2="93.1279" y1="126.176" x1="93.2626" stroke="black"/>
  </g>
  <g partID="855428170">
   <line y2="146.402" stroke-linecap="round" stroke-width="1.728" x2="97.2434" y1="142.346" x1="93.1279" stroke="black"/>
  </g>
 </g>
</svg>
