<?xml version='1.0' encoding='UTF-8' standalone='no'?>
<!-- Created with Fritzing (http://www.fritzing.org/) -->
<svg xmlns:svg='http://www.w3.org/2000/svg' xmlns='http://www.w3.org/2000/svg' version='1.2' baseProfile='tiny' x='0in' y='0in' width='4.82417in' height='2.93671in' viewBox='0 0 347.34 211.443' >
<g partID='66550'><g transform='translate(15.121,33.2962)' ><g transform='matrix(0,1,-1,0,0,0)'  ><g id="schematic">
<path stroke-width="0.9" d="M29.15,0.36c3.977,0,7.2,3.223,7.201,7.199c0.001,3.976,-3.223,7.2,-7.199,7.201c0,0,-0.001,0,-0.002,0l-14.4,0c-3.977,0.001,-7.2,-3.223,-7.201,-7.199c0,-3.977,3.223,-7.2,7.199,-7.201c0.001,0,0.001,0,0.002,0L29.15,0.36z" stroke="#000000" fill="#FFFFFF"/>
<line stroke-width="0.5" y2="1.8" stroke-linecap="round" stroke="#000000" x1="17.63" y1="0.36" x2="17.63" fill="none"/>
<path stroke-width="0.5" d="M17.63,1.8c0,0.795,0.646,1.44,1.44,1.44" stroke="#000000" fill="none"/>
<line stroke-width="0.5" y2="3.24" stroke-linecap="round" stroke="#000000" x1="19.07" y1="3.24" x2="25.55" fill="none"/>
<path stroke-width="0.5" d="M25.55,3.24c0.597,0,1.081,0.483,1.081,1.08c0,0.596,-0.483,1.08,-1.08,1.08c0,0,0,0,-0.001,0" stroke="#000000" fill="none"/>
<line stroke-width="0.5" y2="5.4" stroke-linecap="round" stroke="#000000" x1="18.35" y1="5.4" x2="25.55" fill="none"/>
<path stroke-width="0.5" d="M18.35,7.56c-0.597,0,-1.08,-0.483,-1.08,-1.08s0.483,-1.08,1.08,-1.08l0,0" stroke="#000000" fill="none"/>
<line stroke-width="0.5" y2="7.56" stroke-linecap="round" stroke="#000000" x1="18.35" y1="7.56" x2="25.55" fill="none"/>
<path stroke-width="0.5" d="M25.55,7.56c0.597,0,1.081,0.483,1.081,1.079c0.001,0.597,-0.482,1.081,-1.079,1.081c-0.001,0,-0.001,0,-0.002,0" stroke="#000000" fill="none"/>
<line stroke-width="0.5" y2="9.72" stroke-linecap="round" stroke="#000000" x1="18.35" y1="9.72" x2="25.55" fill="none"/>
<path stroke-width="0.5" d="M18.35,11.88c-0.597,0,-1.08,-0.484,-1.08,-1.08c0,-0.597,0.483,-1.08,1.08,-1.08l0,0" stroke="#000000" fill="none"/>
<line stroke-width="0.5" y2="11.88" stroke-linecap="round" stroke="#000000" x1="18.35" y1="11.88" x2="24.83" fill="none"/>
<path stroke-width="0.5" d="M26.27,13.32c0,-0.795,-0.645,-1.439,-1.44,-1.439l0,0" stroke="#000000" fill="none"/>
<line stroke-width="0.5" y2="14.76" stroke-linecap="round" stroke="#000000" x1="26.27" y1="13.32" x2="26.27" fill="none"/>
<line id="connector0pin" stroke-width="0.75" y2="7.56" stroke-linecap="round" stroke="#787878" x1="0.35" y1="7.56" x2="7.55" fill="none"/>
<g width="0" id="connector0terminal" x="0.35" y="7.56" height="0" fill="none"/>
<g transform="matrix(1, 0, 0, 1, 3.2615, 6.5103)">
<text font-family="'DroidSans'" font-size="2.5" fill="#8C8C8C">1</text>
</g>
<line id="connector1pin" stroke-width="0.75" y2="7.56" stroke-linecap="round" stroke="#787878" x1="43.551" y1="7.56" x2="36.35" fill="none"/>
<g width="0" id="connector1terminal" x="43.551" y="7.56" height="0" fill="none"/>
<g transform="matrix(1, 0, 0, 1, 39.2615, 6.5103)">
<text font-family="'DroidSans'" font-size="2.5" fill="#8C8C8C">2</text>
</g>
</g>
</g></g></g><g partID='58200'><g transform='translate(79.561,15.6463)' ><g id="schematic">
<rect class="interior rect" width="78.3" x="14.85" stroke-width="0.9" stroke-linecap="round" stroke="#000000" y="14.85" height="135.9" fill="#FFFFFF"/>
<line class="pin" stroke-width="0.699999" id="connector61pin" y2="28.8" stroke-linecap="round" x1="93.2499" stroke="#787878" y1="28.8" x2="107.65" fill="none"/>
<text class="text" stroke-width="0" x="91.8499" font-family="'Droid Sans'" stroke="none" font-size="3.49999" y="29.4999" text-anchor="end" fill="#8c8c8c">D0/RX</text>
<g class="terminal" width="0.699999" x="107.65" stroke-width="0" id="connector61terminal" stroke="none" y="28.4499" height="0.699999" fill="none"/>
<line class="pin" stroke-width="0.699999" id="connector62pin" y2="36" stroke-linecap="round" x1="93.2499" stroke="#787878" y1="36" x2="107.65" fill="none"/>
<text class="text" stroke-width="0" x="91.8499" font-family="'Droid Sans'" stroke="none" font-size="3.49999" y="36.6999" text-anchor="end" fill="#8c8c8c">D1/TX</text>
<g class="terminal" width="0.699999" x="107.65" stroke-width="0" id="connector62terminal" stroke="none" y="35.6499" height="0.699999" fill="none"/>
<line class="pin" stroke-width="0.699999" id="connector63pin" y2="43.2" stroke-linecap="round" x1="93.2499" stroke="#787878" y1="43.2" x2="107.65" fill="none"/>
<text class="text" stroke-width="0" x="91.8499" font-family="'Droid Sans'" stroke="none" font-size="3.49999" y="43.8999" text-anchor="end" fill="#8c8c8c">D2</text>
<g class="terminal" width="0.699999" x="107.65" stroke-width="0" id="connector63terminal" stroke="none" y="42.8499" height="0.699999" fill="none"/>
<line class="pin" stroke-width="0.699999" id="connector64pin" y2="50.4" stroke-linecap="round" x1="93.2499" stroke="#787878" y1="50.4" x2="107.65" fill="none"/>
<text class="text" stroke-width="0" x="91.8499" font-family="'Droid Sans'" stroke="none" font-size="3.49999" y="51.0999" text-anchor="end" fill="#8c8c8c">D3 PWM</text>
<g class="terminal" width="0.699999" x="107.65" stroke-width="0" id="connector64terminal" stroke="none" y="50.0499" height="0.699999" fill="none"/>
<line class="pin" stroke-width="0.699999" id="connector65pin" y2="57.6" stroke-linecap="round" x1="93.2499" stroke="#787878" y1="57.6" x2="107.65" fill="none"/>
<text class="text" stroke-width="0" x="91.8499" font-family="'Droid Sans'" stroke="none" font-size="3.49999" y="58.2999" text-anchor="end" fill="#8c8c8c">D4</text>
<g class="terminal" width="0.699999" x="107.65" stroke-width="0" id="connector65terminal" stroke="none" y="57.2499" height="0.699999" fill="none"/>
<line class="pin" stroke-width="0.699999" id="connector66pin" y2="64.8" stroke-linecap="round" x1="93.2499" stroke="#787878" y1="64.8" x2="107.65" fill="none"/>
<text class="text" stroke-width="0" x="91.8499" font-family="'Droid Sans'" stroke="none" font-size="3.49999" y="65.4999" text-anchor="end" fill="#8c8c8c">D5 PWM</text>
<g class="terminal" width="0.699999" x="107.65" stroke-width="0" id="connector66terminal" stroke="none" y="64.4499" height="0.699999" fill="none"/>
<line class="pin" stroke-width="0.699999" id="connector67pin" y2="72" stroke-linecap="round" x1="93.2499" stroke="#787878" y1="72" x2="107.65" fill="none"/>
<text class="text" stroke-width="0" x="91.8499" font-family="'Droid Sans'" stroke="none" font-size="3.49999" y="72.6999" text-anchor="end" fill="#8c8c8c">D6 PWM</text>
<g class="terminal" width="0.699999" x="107.65" stroke-width="0" id="connector67terminal" stroke="none" y="71.6499" height="0.699999" fill="none"/>
<line class="pin" stroke-width="0.699999" id="connector68pin" y2="79.2" stroke-linecap="round" x1="93.2499" stroke="#787878" y1="79.2" x2="107.65" fill="none"/>
<text class="text" stroke-width="0" x="91.8499" font-family="'Droid Sans'" stroke="none" font-size="3.49999" y="79.8999" text-anchor="end" fill="#8c8c8c">D7</text>
<g class="terminal" width="0.699999" x="107.65" stroke-width="0" id="connector68terminal" stroke="none" y="78.8499" height="0.699999" fill="none"/>
<line class="pin" stroke-width="0.699999" id="connector51pin" y2="86.4" stroke-linecap="round" x1="93.2499" stroke="#787878" y1="86.4" x2="107.65" fill="none"/>
<text class="text" stroke-width="0" x="91.8499" font-family="'Droid Sans'" stroke="none" font-size="3.49999" y="87.0999" text-anchor="end" fill="#8c8c8c">D8</text>
<g class="terminal" width="0.699999" x="107.65" stroke-width="0" id="connector51terminal" stroke="none" y="86.0499" height="0.699999" fill="none"/>
<line class="pin" stroke-width="0.699999" id="connector52pin" y2="93.6" stroke-linecap="round" x1="93.2499" stroke="#787878" y1="93.6" x2="107.65" fill="none"/>
<text class="text" stroke-width="0" x="91.8499" font-family="'Droid Sans'" stroke="none" font-size="3.49999" y="94.2999" text-anchor="end" fill="#8c8c8c">D9 PWM</text>
<g class="terminal" width="0.699999" x="107.65" stroke-width="0" id="connector52terminal" stroke="none" y="93.2499" height="0.699999" fill="none"/>
<line class="pin" stroke-width="0.699999" id="connector53pin" y2="100.8" stroke-linecap="round" x1="93.2499" stroke="#787878" y1="100.8" x2="107.65" fill="none"/>
<text class="text" stroke-width="0" x="91.8499" font-family="'Droid Sans'" stroke="none" font-size="3.49999" y="101.5" text-anchor="end" fill="#8c8c8c">D10 PWM/SS</text>
<g class="terminal" width="0.699999" x="107.65" stroke-width="0" id="connector53terminal" stroke="none" y="100.45" height="0.699999" fill="none"/>
<line class="pin" stroke-width="0.699999" id="connector54pin" y2="108" stroke-linecap="round" x1="93.2499" stroke="#787878" y1="108" x2="107.65" fill="none"/>
<text class="text" stroke-width="0" x="91.8499" font-family="'Droid Sans'" stroke="none" font-size="3.49999" y="108.7" text-anchor="end" fill="#8c8c8c">D11 PWM/MOSI</text>
<g class="terminal" width="0.699999" x="107.65" stroke-width="0" id="connector54terminal" stroke="none" y="107.65" height="0.699999" fill="none"/>
<line class="pin" stroke-width="0.699999" id="connector55pin" y2="115.2" stroke-linecap="round" x1="93.2499" stroke="#787878" y1="115.2" x2="107.65" fill="none"/>
<text class="text" stroke-width="0" x="91.8499" font-family="'Droid Sans'" stroke="none" font-size="3.49999" y="115.9" text-anchor="end" fill="#8c8c8c">D12/MISO</text>
<g class="terminal" width="0.699999" x="107.65" stroke-width="0" id="connector55terminal" stroke="none" y="114.85" height="0.699999" fill="none"/>
<line class="pin" stroke-width="0" id="connector41pin" y2="122.4" stroke-linecap="round" x1="93.2499" stroke="none" y1="122.4" x2="107.65" fill="none"/>
<rect class="terminal" width="0.699999" x="107.65" stroke-width="0" id="connector41terminal" stroke="none" y="122.05" height="0.699999" fill="none"/>
<line class="pin" stroke-width="0.699999" id="connector56pin" y2="122.4" stroke-linecap="round" x1="93.2499" stroke="#787878" y1="122.4" x2="107.65" fill="none"/>
<text class="text" stroke-width="0" x="91.8499" font-family="'Droid Sans'" stroke="none" font-size="3.49999" y="123.1" text-anchor="end" fill="#8c8c8c">D13/SCK</text>
<g class="terminal" width="0.699999" x="107.65" stroke-width="0" id="connector56terminal" stroke="none" y="122.05" height="0.699999" fill="none"/>
<line class="pin" stroke-width="0" id="connector43pin" y2="28.8" stroke-linecap="round" x1="0.349999" stroke="none" y1="28.8" x2="14.75" fill="none"/>
<rect class="terminal" width="0.699999" x="-0.349999" stroke-width="0" id="connector43terminal" stroke="none" y="28.4499" height="0.699999" fill="none"/>
<line class="pin" stroke-width="0.699999" id="connector85pin" y2="28.8" stroke-linecap="round" x1="0.349999" stroke="#787878" y1="28.8" x2="14.75" fill="none"/>
<text class="text" stroke-width="0" x="16.15" font-family="'Droid Sans'" stroke="none" font-size="3.49999" y="29.4999" text-anchor="start" fill="#8c8c8c">RESET</text>
<g class="terminal" width="0.699999" x="-0.349999" stroke-width="0" id="connector85terminal" stroke="none" y="28.4499" height="0.699999" fill="none"/>
<line class="pin" stroke-width="0.699999" id="connector49pin" y2="36" stroke-linecap="round" x1="0.349999" stroke="#787878" y1="36" x2="14.75" fill="none"/>
<text class="text" stroke-width="0" x="16.15" font-family="'Droid Sans'" stroke="none" font-size="3.49999" y="36.6999" text-anchor="start" fill="#8c8c8c">RESET2</text>
<rect class="terminal" width="0.699999" x="-0.349999" stroke-width="0" id="connector49terminal" stroke="none" y="35.6499" height="0.699999" fill="none"/>
<line class="pin" stroke-width="0.699999" id="connector58pin" y2="43.2" stroke-linecap="round" x1="0.349999" stroke="#787878" y1="43.2" x2="14.75" fill="none"/>
<text class="text" stroke-width="0" x="16.15" font-family="'Droid Sans'" stroke="none" font-size="3.49999" y="43.8999" text-anchor="start" fill="#8c8c8c">AREF</text>
<g class="terminal" width="0.699999" x="-0.349999" stroke-width="0" id="connector58terminal" stroke="none" y="42.8499" height="0.699999" fill="none"/>
<line class="pin" stroke-width="0.699999" id="connector84pin" y2="50.4" stroke-linecap="round" x1="0.349999" stroke="#787878" y1="50.4" x2="14.75" fill="none"/>
<text class="text" stroke-width="0" x="16.15" font-family="'Droid Sans'" stroke="none" font-size="3.49999" y="51.0999" text-anchor="start" fill="#8c8c8c">ioref</text>
<g class="terminal" width="0.699999" x="-0.349999" stroke-width="0" id="connector84terminal" stroke="none" y="50.0499" height="0.699999" fill="none"/>
<line class="pin" stroke-width="0.699999" id="connector0pin" y2="64.8" stroke-linecap="round" x1="0.349999" stroke="#787878" y1="64.8" x2="14.75" fill="none"/>
<text class="text" stroke-width="0" x="16.15" font-family="'Droid Sans'" stroke="none" font-size="3.49999" y="65.4999" text-anchor="start" fill="#8c8c8c">A0</text>
<g class="terminal" width="0.699999" x="-0.349999" stroke-width="0" id="connector0terminal" stroke="none" y="64.4499" height="0.699999" fill="none"/>
<line class="pin" stroke-width="0.699999" id="connector1pin" y2="72" stroke-linecap="round" x1="0.349999" stroke="#787878" y1="72" x2="14.75" fill="none"/>
<text class="text" stroke-width="0" x="16.15" font-family="'Droid Sans'" stroke="none" font-size="3.49999" y="72.6999" text-anchor="start" fill="#8c8c8c">A1</text>
<g class="terminal" width="0.699999" x="-0.349999" stroke-width="0" id="connector1terminal" stroke="none" y="71.6499" height="0.699999" fill="none"/>
<line class="pin" stroke-width="0.699999" id="connector2pin" y2="79.2" stroke-linecap="round" x1="0.349999" stroke="#787878" y1="79.2" x2="14.75" fill="none"/>
<text class="text" stroke-width="0" x="16.15" font-family="'Droid Sans'" stroke="none" font-size="3.49999" y="79.8999" text-anchor="start" fill="#8c8c8c">A2</text>
<g class="terminal" width="0.699999" x="-0.349999" stroke-width="0" id="connector2terminal" stroke="none" y="78.8499" height="0.699999" fill="none"/>
<line class="pin" stroke-width="0.699999" id="connector3pin" y2="86.4" stroke-linecap="round" x1="0.349999" stroke="#787878" y1="86.4" x2="14.75" fill="none"/>
<text class="text" stroke-width="0" x="16.15" font-family="'Droid Sans'" stroke="none" font-size="3.49999" y="87.0999" text-anchor="start" fill="#8c8c8c">A3</text>
<g class="terminal" width="0.699999" x="-0.349999" stroke-width="0" id="connector3terminal" stroke="none" y="86.0499" height="0.699999" fill="none"/>
<line class="pin" stroke-width="0" id="connector48pin" y2="93.6" stroke-linecap="round" x1="0.349999" stroke="none" y1="93.6" x2="14.75" fill="none"/>
<rect class="terminal" width="0.699999" x="-0.349999" stroke-width="0" id="connector48terminal" stroke="none" y="93.2499" height="0.699999" fill="none"/>
<line class="pin" stroke-width="0" id="connector45pin" y2="93.6" stroke-linecap="round" x1="0.349999" stroke="none" y1="93.6" x2="14.75" fill="none"/>
<rect class="terminal" width="0.699999" x="-0.349999" stroke-width="0" id="connector45terminal" stroke="none" y="93.2499" height="0.699999" fill="none"/>
<line class="pin" stroke-width="0" id="connector4pin" y2="93.6" stroke-linecap="round" x1="0.349999" stroke="none" y1="93.6" x2="14.75" fill="none"/>
<g class="terminal" width="0.699999" x="-0.349999" stroke-width="0" id="connector4terminal" stroke="none" y="93.2499" height="0.699999" fill="none"/>
<line class="pin" stroke-width="0" id="connector39pin" y2="93.6" stroke-linecap="round" x1="0.349999" stroke="none" y1="93.6" x2="14.75" fill="none"/>
<rect class="terminal" width="0.699999" x="-0.349999" stroke-width="0" id="connector39terminal" stroke="none" y="93.2499" height="0.699999" fill="none"/>
<line class="pin" stroke-width="0" id="connector47pin" y2="93.6" stroke-linecap="round" x1="0.349999" stroke="none" y1="93.6" x2="14.75" fill="none"/>
<rect class="terminal" width="0.699999" x="-0.349999" stroke-width="0" id="connector47terminal" stroke="none" y="93.2499" height="0.699999" fill="none"/>
<line class="pin" stroke-width="0" id="connector42pin" y2="93.6" stroke-linecap="round" x1="0.349999" stroke="none" y1="93.6" x2="14.75" fill="none"/>
<rect class="terminal" width="0.699999" x="-0.349999" stroke-width="0" id="connector42terminal" stroke="none" y="93.2499" height="0.699999" fill="none"/>
<line class="pin" stroke-width="0.699999" id="connector59pin" y2="93.6" stroke-linecap="round" x1="0.349999" stroke="#787878" y1="93.6" x2="14.75" fill="none"/>
<text class="text" stroke-width="0" x="16.15" font-family="'Droid Sans'" stroke="none" font-size="3.49999" y="94.2999" text-anchor="start" fill="#8c8c8c">A4/SDA</text>
<g class="terminal" width="0.699999" x="-0.349999" stroke-width="0" id="connector59terminal" stroke="none" y="93.2499" height="0.699999" fill="none"/>
<line class="pin" stroke-width="0" id="connector5pin" y2="100.8" stroke-linecap="round" x1="0.349999" stroke="none" y1="100.8" x2="14.75" fill="none"/>
<g class="terminal" width="0.699999" x="-0.349999" stroke-width="0" id="connector5terminal" stroke="none" y="100.45" height="0.699999" fill="none"/>
<line class="pin" stroke-width="0.699999" id="connector60pin" y2="100.8" stroke-linecap="round" x1="0.349999" stroke="#787878" y1="100.8" x2="14.75" fill="none"/>
<text class="text" stroke-width="0" x="16.15" font-family="'Droid Sans'" stroke="none" font-size="3.49999" y="101.5" text-anchor="start" fill="#8c8c8c">A5/SCL</text>
<g class="terminal" width="0.699999" x="-0.349999" stroke-width="0" id="connector60terminal" stroke="none" y="100.45" height="0.699999" fill="none"/>
<line class="pin" stroke-width="0.699999" id="connector91pin" y2="136.8" stroke-linecap="round" x1="0.349999" stroke="#787878" y1="136.8" x2="14.75" fill="none"/>
<text class="text" stroke-width="0" x="16.15" font-family="'Droid Sans'" stroke="none" font-size="3.49999" y="137.5" text-anchor="start" fill="#8c8c8c">N/C</text>
<g class="terminal" width="0.699999" x="-0.349999" stroke-width="0" id="connector91terminal" stroke="none" y="136.45" height="0.699999" fill="none"/>
<line class="pin" stroke-width="0" id="connector88pin" y2="165.25" stroke-linecap="round" x1="57.6" stroke="none" y1="150.85" x2="57.6" fill="none"/>
<g class="terminal" width="0.699999" x="57.2499" stroke-width="0" id="connector88terminal" stroke="none" y="165.25" height="0.699999" fill="none"/>
<line class="pin" stroke-width="0" id="connector57pin" y2="165.25" stroke-linecap="round" x1="57.6" stroke="none" y1="150.85" x2="57.6" fill="none"/>
<g class="terminal" width="0.699999" x="57.2499" stroke-width="0" id="connector57terminal" stroke="none" y="165.25" height="0.699999" fill="none"/>
<line class="pin" stroke-width="0" id="connector44pin" y2="165.25" stroke-linecap="round" x1="57.6" stroke="none" y1="150.85" x2="57.6" fill="none"/>
<rect class="terminal" width="0.699999" x="57.2499" stroke-width="0" id="connector44terminal" stroke="none" y="165.25" height="0.699999" fill="none"/>
<line class="pin" stroke-width="0" id="connector50pin" y2="165.25" stroke-linecap="round" x1="57.6" stroke="none" y1="150.85" x2="57.6" fill="none"/>
<rect class="terminal" width="0.699999" x="57.2499" stroke-width="0" id="connector50terminal" stroke="none" y="165.25" height="0.699999" fill="none"/>
<line class="pin" stroke-width="0.699999" id="connector89pin" y2="165.25" stroke-linecap="round" x1="57.6" stroke="#787878" y1="150.85" x2="57.6" fill="none"/>
<g transform="matrix(1, 0, 0, 1, 58.2999, 149.45)">
<g>
<g transform="rotate(270)">
<g>
<text class="text" stroke-width="0" x="0" font-family="'Droid Sans'" stroke="none" font-size="3.49999" y="0" text-anchor="start" fill="#8c8c8c">GND</text>
</g>
</g>
</g>
</g>
<g class="terminal" width="0.699999" x="57.2499" stroke-width="0" id="connector89terminal" stroke="none" y="165.25" height="0.699999" fill="none"/>
<line class="pin" stroke-width="0.699999" id="connector86pin" y2="14.75" stroke-linecap="round" x1="36" stroke="#787878" y1="0.349999" x2="36" fill="none"/>
<g transform="matrix(1, 0, 0, 1, 36.6999, 16.15)">
<g>
<g transform="rotate(270)">
<g>
<text class="text" stroke-width="0" x="0" font-family="'Droid Sans'" stroke="none" font-size="3.49999" y="0" text-anchor="end" fill="#8c8c8c">3V3</text>
</g>
</g>
</g>
</g>
<g class="terminal" width="0.699999" x="35.6499" stroke-width="0" id="connector86terminal" stroke="none" y="-0.349999" height="0.699999" fill="none"/>
<line class="pin" stroke-width="0" id="connector40pin" y2="14.75" stroke-linecap="round" x1="50.4" stroke="none" y1="0.349999" x2="50.4" fill="none"/>
<rect class="terminal" width="0.699999" x="50.0499" stroke-width="0" id="connector40terminal" stroke="none" y="-0.349999" height="0.699999" fill="none"/>
<line class="pin" stroke-width="0" id="connector46pin" y2="14.75" stroke-linecap="round" x1="50.4" stroke="none" y1="0.349999" x2="50.4" fill="none"/>
<rect class="terminal" width="0.699999" x="50.0499" stroke-width="0" id="connector46terminal" stroke="none" y="-0.349999" height="0.699999" fill="none"/>
<line class="pin" stroke-width="0.699999" id="connector87pin" y2="14.75" stroke-linecap="round" x1="50.4" stroke="#787878" y1="0.349999" x2="50.4" fill="none"/>
<g transform="matrix(1, 0, 0, 1, 51.0999, 16.15)">
<g>
<g transform="rotate(270)">
<g>
<text class="text" stroke-width="0" x="0" font-family="'Droid Sans'" stroke="none" font-size="3.49999" y="0" text-anchor="end" fill="#8c8c8c">5V</text>
</g>
</g>
</g>
</g>
<g class="terminal" width="0.699999" x="50.0499" stroke-width="0" id="connector87terminal" stroke="none" y="-0.349999" height="0.699999" fill="none"/>
<line class="pin" stroke-width="0.699999" id="connector90pin" y2="14.75" stroke-linecap="round" x1="64.8" stroke="#787878" y1="0.349999" x2="64.8" fill="none"/>
<g transform="matrix(1, 0, 0, 1, 65.4999, 16.15)">
<g>
<g transform="rotate(270)">
<g>
<text class="text" stroke-width="0" x="0" font-family="'Droid Sans'" stroke="none" font-size="3.49999" y="0" text-anchor="end" fill="#8c8c8c">VIN</text>
</g>
</g>
</g>
</g>
<g class="terminal" width="0.699999" x="64.4499" stroke-width="0" id="connector90terminal" stroke="none" y="-0.349999" height="0.699999" fill="none"/>
<text class="text" id="label" stroke-width="0" x="54.4501" font-family="'Droid Sans'" stroke="none" font-size="4.25001" y="76.4498" text-anchor="middle" fill="#000000">Arduino</text>
<text class="text" id="label" stroke-width="0" x="54.4501" font-family="'Droid Sans'" stroke="none" font-size="4.25001" y="80.9833" text-anchor="middle" fill="#000000">Uno</text>
<text class="text" id="label" stroke-width="0" x="54.4501" font-family="'Droid Sans'" stroke="none" font-size="4.25001" y="85.5167" text-anchor="middle" fill="#000000">(Rev3)</text>
</g>
</g></g><g partID='58330'><g transform='translate(10.6573,144.896)' ><g transform='matrix(0,1,-1,0,0,0)'  ><g id="schematic" xmlns="http://www.w3.org/2000/svg">
<line class="other" stroke-width="0.432002" y2="0.216" xmlns="http://www.w3.org/2000/svg" stroke-linecap="round" x1="7.55002" stroke="#000000" y1="3.096" x2="8.63003"/>
<line class="other" stroke-width="0.432002" y2="5.976" xmlns="http://www.w3.org/2000/svg" stroke-linecap="round" x1="8.63003" stroke="#000000" y1="0.216" x2="10.43"/>
<line class="other" stroke-width="0.432002" y2="0.216" xmlns="http://www.w3.org/2000/svg" stroke-linecap="round" x1="10.43" stroke="#000000" y1="5.976" x2="12.23"/>
<line class="other" stroke-width="0.432002" y2="5.976" xmlns="http://www.w3.org/2000/svg" stroke-linecap="round" x1="12.23" stroke="#000000" y1="0.216" x2="14.03"/>
<line class="other" stroke-width="0.432002" y2="0.216" xmlns="http://www.w3.org/2000/svg" stroke-linecap="round" x1="14.03" stroke="#000000" y1="5.976" x2="15.8301"/>
<line class="other" stroke-width="0.432002" y2="5.976" xmlns="http://www.w3.org/2000/svg" stroke-linecap="round" x1="15.8301" stroke="#000000" y1="0.216" x2="17.6301"/>
<line class="other" stroke-width="0.432002" y2="0.216" xmlns="http://www.w3.org/2000/svg" stroke-linecap="round" x1="17.6301" stroke="#000000" y1="5.976" x2="19.4301"/>
<line class="other" stroke-width="0.432002" y2="5.976" xmlns="http://www.w3.org/2000/svg" stroke-linecap="round" x1="19.4301" stroke="#000000" y1="0.216" x2="21.2301"/>
<line class="other" stroke-width="0.432002" y2="3.096" xmlns="http://www.w3.org/2000/svg" stroke-linecap="round" x1="21.2301" stroke="#000000" y1="5.976" x2="21.9501"/>
<line class="pin" id="connector1pin" stroke-width="0.700001" y2="3.096" xmlns="http://www.w3.org/2000/svg" stroke-linecap="round" x1="29.1502" stroke="#787878" y1="3.096" x2="21.9501" connectorname="2"/>
<g class="terminal" width="0.000283466" id="connector1terminal" x="29.1502" stroke-width="0" xmlns="http://www.w3.org/2000/svg" stroke="none" y="3.096" height="0.000283465" fill="none"/>
<text class="text" stroke-width="0" x="25.5501" xmlns="http://www.w3.org/2000/svg" font-family="'Droid Sans'" stroke="none" font-size="2.50001" y="2.046" text-anchor="middle" fill="#8c8c8c">2</text>
<line class="pin" id="connector0pin" stroke-width="0.700001" y2="3.096" xmlns="http://www.w3.org/2000/svg" stroke-linecap="round" x1="0.350001" stroke="#787878" y1="3.096" x2="7.55002" connectorname="1"/>
<g class="terminal" width="0.000283466" id="connector0terminal" x="0.350001" stroke-width="0" xmlns="http://www.w3.org/2000/svg" stroke="none" y="3.096" height="0.000283465" fill="none"/>
<text class="text" stroke-width="0" x="3.95001" xmlns="http://www.w3.org/2000/svg" font-family="'Droid Sans'" stroke="none" font-size="2.50001" y="2.046" text-anchor="middle" fill="#8c8c8c">1</text>
</g>
</g></g></g><g partID='59080'><g transform='translate(277.057,166.496)' ><g transform='matrix(0,1,-1,0,0,0)'  ><g id="schematic" xmlns="http://www.w3.org/2000/svg">
<line class="other" stroke-width="0.432002" y2="0.216" xmlns="http://www.w3.org/2000/svg" stroke-linecap="round" x1="7.55002" stroke="#000000" y1="3.096" x2="8.63003"/>
<line class="other" stroke-width="0.432002" y2="5.976" xmlns="http://www.w3.org/2000/svg" stroke-linecap="round" x1="8.63003" stroke="#000000" y1="0.216" x2="10.43"/>
<line class="other" stroke-width="0.432002" y2="0.216" xmlns="http://www.w3.org/2000/svg" stroke-linecap="round" x1="10.43" stroke="#000000" y1="5.976" x2="12.23"/>
<line class="other" stroke-width="0.432002" y2="5.976" xmlns="http://www.w3.org/2000/svg" stroke-linecap="round" x1="12.23" stroke="#000000" y1="0.216" x2="14.03"/>
<line class="other" stroke-width="0.432002" y2="0.216" xmlns="http://www.w3.org/2000/svg" stroke-linecap="round" x1="14.03" stroke="#000000" y1="5.976" x2="15.8301"/>
<line class="other" stroke-width="0.432002" y2="5.976" xmlns="http://www.w3.org/2000/svg" stroke-linecap="round" x1="15.8301" stroke="#000000" y1="0.216" x2="17.6301"/>
<line class="other" stroke-width="0.432002" y2="0.216" xmlns="http://www.w3.org/2000/svg" stroke-linecap="round" x1="17.6301" stroke="#000000" y1="5.976" x2="19.4301"/>
<line class="other" stroke-width="0.432002" y2="5.976" xmlns="http://www.w3.org/2000/svg" stroke-linecap="round" x1="19.4301" stroke="#000000" y1="0.216" x2="21.2301"/>
<line class="other" stroke-width="0.432002" y2="3.096" xmlns="http://www.w3.org/2000/svg" stroke-linecap="round" x1="21.2301" stroke="#000000" y1="5.976" x2="21.9501"/>
<line class="pin" id="connector1pin" stroke-width="0.700001" y2="3.096" xmlns="http://www.w3.org/2000/svg" stroke-linecap="round" x1="29.1502" stroke="#787878" y1="3.096" x2="21.9501" connectorname="2"/>
<g class="terminal" width="0.000283466" id="connector1terminal" x="29.1502" stroke-width="0" xmlns="http://www.w3.org/2000/svg" stroke="none" y="3.096" height="0.000283465" fill="none"/>
<text class="text" stroke-width="0" x="25.5501" xmlns="http://www.w3.org/2000/svg" font-family="'Droid Sans'" stroke="none" font-size="2.50001" y="2.046" text-anchor="middle" fill="#8c8c8c">2</text>
<line class="pin" id="connector0pin" stroke-width="0.700001" y2="3.096" xmlns="http://www.w3.org/2000/svg" stroke-linecap="round" x1="0.350001" stroke="#787878" y1="3.096" x2="7.55002" connectorname="1"/>
<g class="terminal" width="0.000283466" id="connector0terminal" x="0.350001" stroke-width="0" xmlns="http://www.w3.org/2000/svg" stroke="none" y="3.096" height="0.000283465" fill="none"/>
<text class="text" stroke-width="0" x="3.95001" xmlns="http://www.w3.org/2000/svg" font-family="'Droid Sans'" stroke="none" font-size="2.50001" y="2.046" text-anchor="middle" fill="#8c8c8c">1</text>
</g>
</g></g></g><g partID='59110'><g transform='translate(235.26,123.43)' ><g id="schematic">
<g>
<path d="M13.5,14.966L9.9,14.966c-0.193,0,-0.35,-0.156,-0.35,-0.35s0.156,-0.35,0.35,-0.35L13.5,14.266c0.193,0,0.35,0.156,0.35,0.35S13.694,14.966,13.5,14.966z"/>
</g>
<g>
<path d="M9.9,14.966L6.3,14.966c-0.193,0,-0.35,-0.156,-0.35,-0.35s0.157,-0.35,0.35,-0.35l3.6,0c0.193,0,0.35,0.156,0.35,0.35S10.093,14.966,9.9,14.966z"/>
</g>
<g>
<polygon points="9.9,14.616,6.3,7.416,9.9,7.416,13.5,7.416" fill="#FFFFFF"/>
<path d="M9.9,15.398L5.734,7.066l8.333,0L9.9,15.398zM6.866,7.766L9.9,13.834l3.034,-6.068L6.866,7.766z"/>
</g>
<g>
<path d="M9.9,14.841c-0.124,0,-0.225,-0.101,-0.225,-0.225l0,-7.2c0,-0.124,0.101,-0.225,0.225,-0.225s0.225,0.101,0.225,0.225l0,7.2C10.124,14.74,10.024,14.841,9.9,14.841z"/>
</g>
<g>
<path d="M1.8,12.141c-0.058,0,-0.115,-0.021,-0.159,-0.065c-0.088,-0.088,-0.088,-0.23,0,-0.318l2.34,-2.341c0.088,-0.088,0.23,-0.088,0.318,0s0.088,0.23,0,0.318l-2.34,2.341C1.915,12.12,1.858,12.141,1.8,12.141z"/>
</g>
<g>
<path d="M2.16,15.381c-0.058,0,-0.115,-0.021,-0.159,-0.065c-0.088,-0.088,-0.088,-0.23,0,-0.318l2.34,-2.34c0.088,-0.088,0.23,-0.088,0.318,0s0.088,0.23,0,0.318l-2.34,2.34C2.276,15.359,2.218,15.381,2.16,15.381z"/>
</g>
<g id="connector0pin">
<path d="M9.9,22.166c-0.193,0,-0.35,-0.156,-0.35,-0.35l0,-7.2c0,-0.193,0.156,-0.35,0.35,-0.35s0.35,0.156,0.35,0.35l0,7.2C10.249,22.01,10.093,22.166,9.9,22.166z" fill="#787878"/>
</g>
<g id="connector0terminal">
<rect width="0.001" x="9.9" y="21.816" height="0.001" fill="none"/>
</g>
<g transform="matrix(1, 0, 0, 1, 3.429, 6.4262)">
<g>
<g transform="rotate(270)">
<g>
<g enable-background="new    ">
<path d="M-11.647,5.54l-0.891,0L-12.538,5.388l0.342,-0.372c0.049,-0.053,0.093,-0.101,0.131,-0.145s0.071,-0.086,0.099,-0.128c0.026,-0.042,0.047,-0.084,0.062,-0.125c0.015,-0.043,0.021,-0.088,0.021,-0.138c0,-0.038,-0.005,-0.072,-0.017,-0.102s-0.027,-0.054,-0.047,-0.075c-0.021,-0.02,-0.045,-0.035,-0.073,-0.046s-0.06,-0.016,-0.094,-0.016c-0.062,0,-0.118,0.013,-0.167,0.038c-0.051,0.024,-0.098,0.057,-0.143,0.096l-0.1,-0.116c0.025,-0.023,0.055,-0.046,0.084,-0.065c0.029,-0.021,0.063,-0.039,0.097,-0.054s0.071,-0.026,0.109,-0.036c0.038,-0.008,0.079,-0.013,0.121,-0.013c0.063,0,0.119,0.009,0.169,0.026c0.051,0.018,0.094,0.043,0.129,0.076c0.035,0.032,0.063,0.072,0.082,0.119c0.019,0.048,0.028,0.101,0.028,0.16c0,0.056,-0.009,0.108,-0.026,0.158c-0.017,0.05,-0.041,0.1,-0.07,0.148c-0.031,0.048,-0.066,0.097,-0.109,0.146c-0.041,0.049,-0.087,0.1,-0.136,0.152L-12.32,5.37l0,0.008l0.673,0L-11.647,5.54z" fill="#787878"/>
</g>
</g>
</g>
</g>
</g>
<g id="connector1pin">
<path d="M9.9,7.766c-0.193,0,-0.35,-0.157,-0.35,-0.35l0,-7.2c0,-0.193,0.156,-0.35,0.35,-0.35s0.35,0.157,0.35,0.35l0,7.2C10.249,7.609,10.093,7.766,9.9,7.766z" fill="#787878"/>
</g>
<g id="connector1terminal">
<polygon points="9.9,0.216,9.901,0.216,9.901,0.216" fill="none"/>
</g>
<g transform="matrix(1, 0, 0, 1, 3.429, 1.3462)">
<g>
<g transform="rotate(270)">
<g>
<g enable-background="new    ">
<path d="M-2.616,5.54l-0.172,0L-2.788,4.648c0,-0.028,0,-0.058,0,-0.09s0.001,-0.063,0.002,-0.095c0.001,-0.032,0.002,-0.063,0.003,-0.092c0.001,-0.028,0.002,-0.054,0.002,-0.076c-0.011,0.012,-0.021,0.021,-0.029,0.03s-0.017,0.017,-0.026,0.024s-0.018,0.016,-0.028,0.025c-0.01,0.008,-0.021,0.019,-0.035,0.03l-0.145,0.118l-0.094,-0.12l0.374,-0.292l0.146,0L-2.618,5.54z" fill="#787878"/>
</g>
</g>
</g>
</g>
</g>
<g>
<path d="M0.18,13.536l1.08,-2.521l1.44,1.438L0.18,13.536z"/>
</g>
<g>
<path d="M0.54,16.776l1.08,-2.521l1.438,1.438L0.54,16.776z"/>
</g>
</g>
</g></g><g partID='59160'><g transform='translate(292.86,123.43)' ><g id="schematic">
<g>
<path d="M13.5,14.966L9.9,14.966c-0.193,0,-0.35,-0.156,-0.35,-0.35s0.156,-0.35,0.35,-0.35L13.5,14.266c0.193,0,0.35,0.156,0.35,0.35S13.694,14.966,13.5,14.966z"/>
</g>
<g>
<path d="M9.9,14.966L6.3,14.966c-0.193,0,-0.35,-0.156,-0.35,-0.35s0.157,-0.35,0.35,-0.35l3.6,0c0.193,0,0.35,0.156,0.35,0.35S10.093,14.966,9.9,14.966z"/>
</g>
<g>
<polygon points="9.9,14.616,6.3,7.416,9.9,7.416,13.5,7.416" fill="#FFFFFF"/>
<path d="M9.9,15.398L5.734,7.066l8.333,0L9.9,15.398zM6.866,7.766L9.9,13.834l3.034,-6.068L6.866,7.766z"/>
</g>
<g>
<path d="M9.9,14.841c-0.124,0,-0.225,-0.101,-0.225,-0.225l0,-7.2c0,-0.124,0.101,-0.225,0.225,-0.225s0.225,0.101,0.225,0.225l0,7.2C10.124,14.74,10.024,14.841,9.9,14.841z"/>
</g>
<g>
<path d="M1.8,12.141c-0.058,0,-0.115,-0.021,-0.159,-0.065c-0.088,-0.088,-0.088,-0.23,0,-0.318l2.34,-2.341c0.088,-0.088,0.23,-0.088,0.318,0s0.088,0.23,0,0.318l-2.34,2.341C1.915,12.12,1.858,12.141,1.8,12.141z"/>
</g>
<g>
<path d="M2.16,15.381c-0.058,0,-0.115,-0.021,-0.159,-0.065c-0.088,-0.088,-0.088,-0.23,0,-0.318l2.34,-2.34c0.088,-0.088,0.23,-0.088,0.318,0s0.088,0.23,0,0.318l-2.34,2.34C2.276,15.359,2.218,15.381,2.16,15.381z"/>
</g>
<g id="connector0pin">
<path d="M9.9,22.166c-0.193,0,-0.35,-0.156,-0.35,-0.35l0,-7.2c0,-0.193,0.156,-0.35,0.35,-0.35s0.35,0.156,0.35,0.35l0,7.2C10.249,22.01,10.093,22.166,9.9,22.166z" fill="#787878"/>
</g>
<g id="connector0terminal">
<rect width="0.001" x="9.9" y="21.816" height="0.001" fill="none"/>
</g>
<g transform="matrix(1, 0, 0, 1, 3.429, 6.4262)">
<g>
<g transform="rotate(270)">
<g>
<g enable-background="new    ">
<path d="M-11.647,5.54l-0.891,0L-12.538,5.388l0.342,-0.372c0.049,-0.053,0.093,-0.101,0.131,-0.145s0.071,-0.086,0.099,-0.128c0.026,-0.042,0.047,-0.084,0.062,-0.125c0.015,-0.043,0.021,-0.088,0.021,-0.138c0,-0.038,-0.005,-0.072,-0.017,-0.102s-0.027,-0.054,-0.047,-0.075c-0.021,-0.02,-0.045,-0.035,-0.073,-0.046s-0.06,-0.016,-0.094,-0.016c-0.062,0,-0.118,0.013,-0.167,0.038c-0.051,0.024,-0.098,0.057,-0.143,0.096l-0.1,-0.116c0.025,-0.023,0.055,-0.046,0.084,-0.065c0.029,-0.021,0.063,-0.039,0.097,-0.054s0.071,-0.026,0.109,-0.036c0.038,-0.008,0.079,-0.013,0.121,-0.013c0.063,0,0.119,0.009,0.169,0.026c0.051,0.018,0.094,0.043,0.129,0.076c0.035,0.032,0.063,0.072,0.082,0.119c0.019,0.048,0.028,0.101,0.028,0.16c0,0.056,-0.009,0.108,-0.026,0.158c-0.017,0.05,-0.041,0.1,-0.07,0.148c-0.031,0.048,-0.066,0.097,-0.109,0.146c-0.041,0.049,-0.087,0.1,-0.136,0.152L-12.32,5.37l0,0.008l0.673,0L-11.647,5.54z" fill="#787878"/>
</g>
</g>
</g>
</g>
</g>
<g id="connector1pin">
<path d="M9.9,7.766c-0.193,0,-0.35,-0.157,-0.35,-0.35l0,-7.2c0,-0.193,0.156,-0.35,0.35,-0.35s0.35,0.157,0.35,0.35l0,7.2C10.249,7.609,10.093,7.766,9.9,7.766z" fill="#787878"/>
</g>
<g id="connector1terminal">
<polygon points="9.9,0.216,9.901,0.216,9.901,0.216" fill="none"/>
</g>
<g transform="matrix(1, 0, 0, 1, 3.429, 1.3462)">
<g>
<g transform="rotate(270)">
<g>
<g enable-background="new    ">
<path d="M-2.616,5.54l-0.172,0L-2.788,4.648c0,-0.028,0,-0.058,0,-0.09s0.001,-0.063,0.002,-0.095c0.001,-0.032,0.002,-0.063,0.003,-0.092c0.001,-0.028,0.002,-0.054,0.002,-0.076c-0.011,0.012,-0.021,0.021,-0.029,0.03s-0.017,0.017,-0.026,0.024s-0.018,0.016,-0.028,0.025c-0.01,0.008,-0.021,0.019,-0.035,0.03l-0.145,0.118l-0.094,-0.12l0.374,-0.292l0.146,0L-2.618,5.54z" fill="#787878"/>
</g>
</g>
</g>
</g>
</g>
<g>
<path d="M0.18,13.536l1.08,-2.521l1.44,1.438L0.18,13.536z"/>
</g>
<g>
<path d="M0.54,16.776l1.08,-2.521l1.438,1.438L0.54,16.776z"/>
</g>
</g>
</g></g><g partID='66580'><line stroke-linecap='round' stroke='#ff7300' x1='7.56093' y1='145.246' x2='7.56093' y2='73.2467' stroke-width='0.699998' /></g><circle  fill="black" cx="7.56093" cy="73.2467" r="1.44" stroke-width="0" stroke="none" /><g partID='67130'><line stroke-linecap='round' stroke='#404040' x1='137.146' y1='210.388' x2='137.161' y2='181.246' stroke-width='0.699998' /></g><circle  fill="black" cx="137.161" cy="181.246" r="1.44" stroke-width="0" stroke="none" /><g partID='67040'><line stroke-linecap='round' stroke='#404040' x1='274.107' y1='210.388' x2='137.147' y2='210.388' stroke-width='0.699998' /></g><g partID='66950'><line stroke-linecap='round' stroke='#404040' x1='273.961' y1='195.646' x2='274.106' y2='210.387' stroke-width='0.699998' /></g><g partID='67240'><line stroke-linecap='round' stroke='#404040' x1='137.146' y1='210.388' x2='137.161' y2='181.246' stroke-width='0.699998' /></g><circle  fill="black" cx="137.161" cy="181.246" r="1.44" stroke-width="0" stroke="none" /><g partID='67320'><line stroke-linecap='round' stroke='#404040' x1='7.19013' y1='210.388' x2='137.146' y2='210.388' stroke-width='0.699998' /></g><g partID='67250'><line stroke-linecap='round' stroke='#404040' x1='7.56093' y1='174.046' x2='7.19011' y2='210.388' stroke-width='0.699998' /></g><g partID='67530'><line stroke-linecap='round' stroke='#cc1414' x1='130.143' y1='1.05714' x2='129.961' y2='15.6463' stroke-width='0.699998' /></g><g partID='67460'><line stroke-linecap='round' stroke='#cc1414' x1='7.19013' y1='1.05714' x2='130.143' y2='1.05714' stroke-width='0.699998' /></g><g partID='67390'><line stroke-linecap='round' stroke='#cc1414' x1='7.56093' y1='37.2462' x2='7.19011' y2='1.05714' stroke-width='0.699998' /></g><g partID='67710'><line stroke-linecap='round' stroke='#ff7300' x1='7.71685' y1='80.4355' x2='79.561' y2='80.4462' stroke-width='0.699998' /></g><g partID='67600'><line stroke-linecap='round' stroke='#ff7300' x1='7.56093' y1='73.2467' x2='7.71686' y2='80.4355' stroke-width='0.699998' /></g><circle  fill="black" cx="7.56093" cy="73.2467" r="1.44" stroke-width="0" stroke="none" /><g partID='60350'><line stroke-linecap='round' stroke='#404040' x1='274.074' y1='152.521' x2='245.435' y2='152.558' stroke-width='0.699998' /></g><circle  fill="black" cx="274.074" cy="152.521" r="1.44" stroke-width="0" stroke="none" /><g partID='60240'><line stroke-linecap='round' stroke='#404040' x1='245.435' y1='152.558' x2='245.161' y2='145.246' stroke-width='0.699998' /></g><g partID='59190'><line stroke-linecap='round' stroke='#404040' x1='273.961' y1='166.846' x2='274.074' y2='152.522' stroke-width='0.699998' /></g><g partID='59860'><line stroke-linecap='round' stroke='#fff800' x1='216.28' y1='138.31' x2='216.28' y2='94.652' stroke-width='0.699998' /></g><g partID='59790'><line stroke-linecap='round' stroke='#fff800' x1='216.28' y1='94.6523' x2='245.003' y2='94.6523' stroke-width='0.699998' /></g><g partID='59720'><line stroke-linecap='round' stroke='#fff800' x1='245.003' y1='94.6523' x2='245.161' y2='123.646' stroke-width='0.699998' /></g><g partID='59370'><line stroke-linecap='round' stroke='#fff800' x1='187.561' y1='138.046' x2='216.28' y2='138.311' stroke-width='0.699998' /></g><g partID='59650'><line stroke-linecap='round' stroke='#25cc35' x1='209.387' y1='123.375' x2='209.387' y2='87.7591' stroke-width='0.699998' /></g><g partID='59580'><line stroke-linecap='round' stroke='#25cc35' x1='209.387' y1='87.759' x2='302.539' y2='87.6838' stroke-width='0.699998' /></g><g partID='59510'><line stroke-linecap='round' stroke='#25cc35' x1='302.539' y1='87.6838' x2='302.761' y2='123.646' stroke-width='0.699998' /></g><g partID='59440'><line stroke-linecap='round' stroke='#25cc35' x1='187.561' y1='123.646' x2='209.387' y2='123.375' stroke-width='0.699998' /></g><g partID='60720'><line stroke-linecap='round' stroke='#404040' x1='302.539' y1='152.521' x2='302.761' y2='145.247' stroke-width='0.699998' /></g><g partID='60610'><line stroke-linecap='round' stroke='#404040' x1='274.074' y1='152.521' x2='302.539' y2='152.521' stroke-width='0.699998' /></g><g partID='58200' id='partLabel'><g transform='translate(187.561,10.0463)' ><g font-size='5' font-style='normal' font-weight='normal' fill='#000000' font-family="'DroidSans'" id='schematicLabel' fill-opacity='1' stroke='none' ><text x='0' y='3.75'>Part1</text></g></g></g><g partID='58330' id='partLabel'><g transform='translate(21.8571,174.396)' ><g transform='matrix(0,1,-1,0,0,0)'  ><g font-size='5' font-style='normal' font-weight='normal' fill='#000000' font-family="'DroidSans'" id='schematicLabel' fill-opacity='1' stroke='none' ><text x='0' y='3.75'>R1</text><text x='0' y='8.75'>1k&#x3a9;</text></g></g></g></g><g partID='59080' id='partLabel'><g transform='translate(288.257,195.996)' ><g transform='matrix(0,1,-1,0,0,0)'  ><g font-size='5' font-style='normal' font-weight='normal' fill='#000000' font-family="'DroidSans'" id='schematicLabel' fill-opacity='1' stroke='none' ><text x='0' y='3.75'>R2</text><text x='0' y='8.75'>1k&#x3a9;</text></g></g></g></g><g partID='59110' id='partLabel'><g transform='translate(248.94,112.23)' ><g font-size='5' font-style='normal' font-weight='normal' fill='#000000' font-family="'DroidSans'" id='schematicLabel' fill-opacity='1' stroke='none' ><text x='0' y='3.75'>LED1</text><text x='0' y='8.75'>Green (560nm)</text></g></g></g><g partID='59160' id='partLabel'><g transform='translate(306.54,112.23)' ><g font-size='5' font-style='normal' font-weight='normal' fill='#000000' font-family="'DroidSans'" id='schematicLabel' fill-opacity='1' stroke='none' ><text x='0' y='3.75'>LED2</text><text x='0' y='8.75'>Red (633nm)</text></g></g></g><g partID='66550' id='partLabel'><g transform='translate(20.1508,65.2222)' ><g transform='matrix(0,1,-1,0,0,0)'  ><g font-size='5' font-style='normal' font-weight='normal' fill='#000000' font-family="'DroidSans'" id='schematicLabel' fill-opacity='1' stroke='none' ><text x='0' y='3.75'>R3</text></g></g></g></g></svg>