<?xml version='1.0' encoding='UTF-8' standalone='no'?>
<!-- Created with Fritzing (https://fritzing.org/) -->
<svg xmlns="http://www.w3.org/2000/svg" xmlns:svg="http://www.w3.org/2000/svg" baseProfile="tiny" y="0in" height="3.14975in"  viewBox="0 0 378.944 226.782" x="0in" width="5.26311in" version="1.2">
 <g  id="watermark">
  <g >
   <g >
    <path d="M354.212,220.582c-0.604,0,-1.131,0.325,-1.422,0.809l-2.796,0l3.96,-4.071c0.146,-0.146,0.289,-0.322,0.428,-0.521c0.149,-0.222,0.228,-0.479,0.228,-0.768c0,-0.279,-0.097,-0.518,-0.287,-0.71c-0.19,-0.188,-0.444,-0.287,-0.754,-0.287l-4.636,0c-0.305,0,-0.555,0.06,-0.742,0.17c-0.219,0.13,-0.33,0.368,-0.33,0.707c0,0.329,0.111,0.562,0.33,0.692c0.188,0.111,0.438,0.168,0.742,0.168l3.148,0l-3.974,4.086c-0.146,0.147,-0.289,0.315,-0.425,0.504c-0.153,0.212,-0.23,0.472,-0.23,0.771c0,0.28,0.096,0.521,0.288,0.711c0.188,0.188,0.442,0.285,0.754,0.285l4.315,0c0.293,0.467,0.812,0.776,1.4,0.776c0.916,0,1.66,-0.744,1.66,-1.661C355.871,221.327,355.126,220.582,354.212,220.582zM354.212,222.845c-0.334,0,-0.604,-0.271,-0.604,-0.604c0,-0.333,0.27,-0.604,0.604,-0.604c0.332,0,0.604,0.271,0.604,0.604C354.815,222.576,354.544,222.845,354.212,222.845z"  fill="#8C8C8C"/>
    <path d="M337.269,210.54c-0.914,0,-1.659,0.745,-1.659,1.66c0,0.916,0.745,1.66,1.659,1.66s1.658,-0.744,1.658,-1.66C338.929,211.285,338.185,210.54,337.269,210.54zM337.27,212.803c-0.333,0,-0.604,-0.27,-0.604,-0.603s0.271,-0.603,0.604,-0.603c0.331,0,0.604,0.27,0.604,0.603S337.601,212.803,337.27,212.803z"  fill="#8C8C8C"/>
    <path d="M345.79,215.202c-0.193,-0.111,-0.439,-0.169,-0.732,-0.169l-1.465,0L343.593,212.511c0,-0.292,-0.057,-0.538,-0.166,-0.729C343.337,211.625,343.144,211.44,342.734,211.44c-0.34,0,-0.578,0.116,-0.709,0.342c-0.109,0.193,-0.167,0.438,-0.167,0.729l0,2.521l-0.481,0c-0.295,0,-0.539,0.06,-0.731,0.169c-0.228,0.129,-0.341,0.368,-0.341,0.708c0,0.412,0.185,0.603,0.341,0.692c0.192,0.111,0.438,0.168,0.731,0.168l0.481,0l0,4.362c0,0.277,0.026,0.533,0.081,0.768c0.056,0.246,0.154,0.464,0.298,0.645c0.146,0.186,0.345,0.332,0.595,0.436c0.241,0.098,0.555,0.146,0.93,0.146l0.896,0c0.292,0,0.539,-0.054,0.731,-0.166c0.154,-0.089,0.341,-0.281,0.341,-0.693c0,-0.338,-0.114,-0.578,-0.341,-0.709c-0.192,-0.109,-0.439,-0.168,-0.731,-0.168l-0.821,0c-0.138,0,-0.19,-0.019,-0.207,-0.024c-0.014,-0.034,-0.035,-0.103,-0.035,-0.231L343.595,216.77l1.465,0c0.295,0,0.541,-0.057,0.734,-0.168c0.152,-0.09,0.34,-0.28,0.34,-0.692C346.13,215.57,346.017,215.331,345.79,215.202z"  fill="#8C8C8C"/>
    <path d="M337.335,215.032l-1.191,0c-0.292,0,-0.538,0.059,-0.731,0.169c-0.226,0.129,-0.341,0.368,-0.341,0.708c0,0.412,0.188,0.604,0.341,0.691c0.193,0.113,0.439,0.168,0.731,0.168l0.544,0l0,5.362c0,0.293,0.057,0.539,0.167,0.73c0.131,0.227,0.367,0.341,0.708,0.341c0.411,0,0.604,-0.187,0.692,-0.341c0.111,-0.191,0.168,-0.438,0.168,-0.73L338.423,216.12c0,-0.386,-0.084,-0.656,-0.256,-0.83C337.992,215.118,337.722,215.032,337.335,215.032z"  fill="#8C8C8C"/>
    <path d="M333.5,215.202c-0.193,-0.111,-0.44,-0.169,-0.732,-0.169l-0.604,0c-0.25,0,-0.498,0.063,-0.734,0.187c-0.226,0.119,-0.433,0.271,-0.616,0.453l-0.644,0.604l0,-0.247c0,-0.291,-0.055,-0.538,-0.168,-0.729c-0.128,-0.228,-0.368,-0.34,-0.707,-0.34c-0.41,0,-0.604,0.184,-0.693,0.34c-0.11,0.191,-0.167,0.438,-0.167,0.729l0,4.801c-0.475,0.293,-0.791,0.816,-0.791,1.412c0,0.917,0.745,1.661,1.658,1.661c0.916,0,1.66,-0.744,1.66,-1.661c0,-0.596,-0.317,-1.119,-0.792,-1.412l0,-2.21l1.738,-1.564c0.1,-0.09,0.199,-0.164,0.297,-0.217c0.084,-0.045,0.174,-0.067,0.274,-0.067l0.288,0c0.292,0,0.539,-0.056,0.732,-0.169c0.155,-0.088,0.339,-0.279,0.339,-0.691C333.84,215.57,333.725,215.331,333.5,215.202zM329.301,222.845c-0.332,0,-0.603,-0.271,-0.603,-0.604c0,-0.333,0.271,-0.604,0.603,-0.604c0.333,0,0.604,0.271,0.604,0.604C329.905,222.576,329.634,222.845,329.301,222.845z"  fill="#8C8C8C"/>
    <path d="M326.784,211.683c-0.193,-0.111,-0.44,-0.167,-0.731,-0.167l-0.59,0c-0.2,0,-0.389,0.004,-0.562,0.016c-0.176,0.009,-0.345,0.035,-0.506,0.07c-0.168,0.041,-0.336,0.109,-0.496,0.202c-0.158,0.093,-0.319,0.222,-0.48,0.382c-0.334,0.314,-0.554,0.656,-0.652,1.017c-0.094,0.348,-0.143,0.735,-0.143,1.151l0,0.678l-0.483,0c-0.292,0,-0.539,0.059,-0.73,0.169c-0.227,0.13,-0.342,0.369,-0.342,0.708c0,0.412,0.185,0.604,0.341,0.693c0.191,0.111,0.438,0.166,0.73,0.166l0.483,0l0,5.362c0,0.293,0.057,0.539,0.167,0.73c0.13,0.227,0.367,0.341,0.708,0.341c0.411,0,0.603,-0.187,0.692,-0.341c0.111,-0.191,0.168,-0.438,0.168,-0.73l0,-5.36l0.92,0c0.293,0,0.54,-0.057,0.732,-0.168c0.155,-0.09,0.34,-0.28,0.34,-0.692c0,-0.34,-0.114,-0.579,-0.34,-0.708c-0.189,-0.111,-0.436,-0.17,-0.729,-0.17l-0.92,0l0,-0.678c0,-0.218,0.019,-0.41,0.056,-0.571c0.032,-0.141,0.103,-0.261,0.218,-0.367l0.002,-0.004l0.002,-0.002c0.082,-0.082,0.176,-0.126,0.29,-0.136c0.15,-0.015,0.339,-0.022,0.564,-0.022l0.56,0c0.291,0,0.539,-0.058,0.731,-0.168c0.154,-0.088,0.339,-0.281,0.339,-0.693C327.124,212.052,327.009,211.813,326.784,211.683z"  fill="#8C8C8C"/>
    <path d="M378.777,215.3c-0.089,-0.156,-0.282,-0.34,-0.693,-0.34c-0.339,0,-0.578,0.113,-0.707,0.34c-0.078,0.133,-0.127,0.293,-0.152,0.477l-0.021,-0.021c-0.216,-0.236,-0.466,-0.42,-0.747,-0.539c-0.277,-0.119,-0.563,-0.183,-0.849,-0.183l-0.709,0c-0.249,0,-0.466,0.015,-0.64,0.041c-0.182,0.026,-0.352,0.074,-0.51,0.14c-0.158,0.066,-0.313,0.15,-0.459,0.254c-0.139,0.097,-0.303,0.226,-0.486,0.377c-0.188,0.156,-0.342,0.302,-0.463,0.434c-0.127,0.141,-0.23,0.293,-0.306,0.455c-0.069,0.16,-0.122,0.337,-0.147,0.523c-0.026,0.178,-0.041,0.391,-0.041,0.631l0,2.386c0,0.24,0.015,0.451,0.041,0.631c0.025,0.188,0.078,0.361,0.147,0.521c0.074,0.164,0.179,0.318,0.306,0.457c0.119,0.129,0.274,0.274,0.463,0.433c0.186,0.153,0.35,0.28,0.486,0.379c0.146,0.103,0.299,0.188,0.459,0.254c0.158,0.065,0.329,0.112,0.51,0.14c0.174,0.026,0.389,0.039,0.64,0.039l0.709,0c0.298,0,0.591,-0.066,0.87,-0.199c0.244,-0.114,0.492,-0.291,0.73,-0.523l0,1.434c0,0.18,-0.025,0.334,-0.072,0.465c-0.043,0.119,-0.159,0.258,-0.344,0.406c-0.154,0.127,-0.309,0.217,-0.457,0.264c-0.15,0.049,-0.341,0.074,-0.563,0.074l-2.203,0c-0.293,0,-0.538,0.055,-0.732,0.166c-0.152,0.088,-0.34,0.282,-0.34,0.692c0,0.341,0.115,0.579,0.34,0.71c0.194,0.109,0.439,0.167,0.732,0.167l2.326,0c0.247,0,0.463,-0.015,0.638,-0.041c0.179,-0.026,0.351,-0.073,0.513,-0.14c0.153,-0.064,0.31,-0.15,0.455,-0.254c0.143,-0.101,0.305,-0.227,0.487,-0.379c0.185,-0.153,0.343,-0.299,0.463,-0.431c0.128,-0.141,0.229,-0.294,0.304,-0.456c0.071,-0.162,0.123,-0.338,0.148,-0.523c0.025,-0.182,0.041,-0.393,0.041,-0.631l0,-7.898C378.944,215.738,378.89,215.491,378.777,215.3zM377.208,219.76c0,0.188,-0.062,0.35,-0.188,0.49c-0.15,0.172,-0.394,0.403,-0.716,0.686l-0.002,0.003l-0.002,0.004c-0.139,0.13,-0.291,0.237,-0.453,0.325c-0.148,0.082,-0.325,0.121,-0.526,0.121L375.02,221.389c-0.222,0,-0.41,-0.021,-0.563,-0.072c-0.148,-0.049,-0.301,-0.137,-0.453,-0.264c-0.231,-0.186,-0.315,-0.322,-0.346,-0.404c-0.049,-0.131,-0.072,-0.285,-0.072,-0.465l0,-2.206c0,-0.18,0.023,-0.336,0.072,-0.467c0.029,-0.082,0.113,-0.217,0.346,-0.403c0.152,-0.127,0.305,-0.216,0.453,-0.265c0.153,-0.049,0.342,-0.072,0.563,-0.072l0.301,0c0.212,0,0.388,0.037,0.526,0.113c0.152,0.082,0.308,0.191,0.457,0.324c0.322,0.293,0.564,0.529,0.716,0.7c0.128,0.146,0.188,0.304,0.188,0.492L377.208,219.76z"  fill="#8C8C8C"/>
    <path d="M358.798,210.54c-0.914,0,-1.66,0.745,-1.66,1.66c0,0.916,0.746,1.66,1.66,1.66s1.66,-0.744,1.66,-1.66C360.458,211.285,359.712,210.54,358.798,210.54zM358.798,212.803c-0.332,0,-0.604,-0.27,-0.604,-0.603s0.271,-0.603,0.604,-0.603s0.604,0.27,0.604,0.603C359.402,212.533,359.13,212.803,358.798,212.803z"  fill="#8C8C8C"/>
    <path d="M369.484,220.808l-0.107,-3.419c-0.011,-0.178,-0.021,-0.338,-0.031,-0.489c-0.01,-0.162,-0.037,-0.322,-0.082,-0.476c-0.045,-0.158,-0.11,-0.309,-0.198,-0.453c-0.093,-0.146,-0.216,-0.289,-0.37,-0.42c-0.225,-0.192,-0.443,-0.334,-0.646,-0.416c-0.207,-0.084,-0.461,-0.127,-0.754,-0.127l-1.012,0c-0.259,0,-0.501,0.058,-0.716,0.164c-0.197,0.098,-0.39,0.203,-0.572,0.315l-0.003,0.002l-0.003,0.003l-0.837,0.555l0,-0.041c0,-0.291,-0.057,-0.539,-0.168,-0.733c-0.129,-0.226,-0.367,-0.339,-0.707,-0.339c-0.411,0,-0.604,0.185,-0.693,0.339c-0.109,0.194,-0.168,0.438,-0.168,0.733l0,6.099c0,0.295,0.059,0.539,0.168,0.734c0.09,0.153,0.282,0.338,0.693,0.338c0.34,0,0.578,-0.114,0.707,-0.338c0.111,-0.195,0.168,-0.439,0.168,-0.734L364.153,218.07l1.953,-1.215c0.04,-0.024,0.082,-0.048,0.121,-0.063c0.031,-0.016,0.07,-0.025,0.115,-0.031c0.049,-0.012,0.117,-0.016,0.195,-0.016l0.362,0c0.188,0,0.334,0.021,0.435,0.059c0.082,0.029,0.143,0.076,0.18,0.143c0.05,0.078,0.08,0.18,0.098,0.303c0.02,0.139,0.034,0.309,0.045,0.504l0.096,3.097c-0.457,0.297,-0.762,0.811,-0.762,1.394c0,0.917,0.746,1.661,1.66,1.661c0.916,0,1.66,-0.744,1.66,-1.661C370.31,221.633,369.977,221.095,369.484,220.808zM368.65,222.845c-0.334,0,-0.602,-0.271,-0.602,-0.604c0,-0.333,0.268,-0.604,0.602,-0.604c0.333,0,0.604,0.271,0.604,0.604C369.255,222.576,368.983,222.845,368.65,222.845z"  fill="#8C8C8C"/>
    <path d="M358.861,215.032l-1.193,0c-0.293,0,-0.539,0.059,-0.731,0.169c-0.226,0.129,-0.341,0.368,-0.341,0.708c0,0.412,0.186,0.604,0.341,0.691c0.192,0.113,0.438,0.168,0.731,0.168l0.545,0l0,5.362c0,0.293,0.055,0.539,0.168,0.73c0.127,0.227,0.365,0.341,0.707,0.341c0.41,0,0.604,-0.187,0.691,-0.341c0.111,-0.191,0.17,-0.438,0.17,-0.73L359.949,216.12c0,-0.386,-0.085,-0.656,-0.259,-0.83C359.518,215.118,359.245,215.032,358.861,215.032z"  fill="#8C8C8C"/>
   </g>
  </g>
 </g>
 <g partID="855133310">
  <g transform="translate(367.744,51.6148)">
   <g transform="matrix(-1,0,0,1,0,0)">
    <g transform="matrix(1, 0, 0, 1, -7.18992, 6.56863)">
     <g id="schematic">
      <g gorn="0.4.0.0.0">
       <rect stroke-linecap="round" stroke-width="0.72" gorn="0.4.0.0.0.0" y="0.360001" height="72.3391" x="7.54992" stroke="#000000" width="52.4966" style="stroke-miterlimit:4;stroke-dasharray:none" fill="none" id="rect835"/>
       <text xml:space="preserve" gorn="0.4.0.0.0.1" y="18.72" x="10.08" xmlns:xml="http://www.w3.org/XML/1998/namespace" fill="#000000" font-size="5.76" font-family="DroidSans" id="textKY040RE">KY-040</text>
       <text xml:space="preserve" gorn="0.4.0.0.0.2" y="31.68" x="10.08" xmlns:xml="http://www.w3.org/XML/1998/namespace" fill="#000000" font-size="5.76" font-family="DroidSans" id="text921">Rotary</text>
       <text xml:space="preserve" gorn="0.4.0.0.0.3" y="43.2" x="10.08" xmlns:xml="http://www.w3.org/XML/1998/namespace" fill="#000000" font-size="5.76" font-family="DroidSans" id="text923">Encoder</text>
       <g stroke-width="0.0708661" gorn="0.4.0.0.0.4" style="stroke-miterlimit:4;stroke-dasharray:none" id="g841">
        <text stroke-width="0.0708661" gorn="0.4.0.0.0.4.0" y="23.4" x="50.4" style="stroke-miterlimit:4;stroke-dasharray:none" fill="#555555" font-size="3.6" font-family="DroidSans" id="textSW">SW</text>
        <text stroke-width="0.0708661" gorn="0.4.0.0.0.4.1" y="37.8" x="51.264" style="stroke-miterlimit:4;stroke-dasharray:none" fill="#555555" font-size="3.6" font-family="DroidSans" id="textDT">DT</text>
        <text stroke-width="0.0708661" gorn="0.4.0.0.0.4.2" y="52.2" x="49.68" style="stroke-miterlimit:4;stroke-dasharray:none" fill="#555555" font-size="3.6" font-family="DroidSans" id="textCLK">CLK</text>
       </g>
       <g stroke-width="0.0708661" gorn="0.4.0.0.0.5" style="stroke-miterlimit:4;stroke-dasharray:none" id="g853">
        <text stroke-width="0.0708661" gorn="0.4.0.0.0.5.0" y="7.56" x="32.76" style="stroke-miterlimit:4;stroke-dasharray:none" fill="#555555" font-size="3.6" font-family="DroidSans" id="textVcc">+</text>
       </g>
       <g stroke-width="0.0708661" gorn="0.4.0.0.0.6" style="stroke-miterlimit:4;stroke-dasharray:none" id="g847">
        <text stroke-width="0.0708661" gorn="0.4.0.0.0.6.0" y="68.4" x="29.88" style="stroke-miterlimit:4;stroke-dasharray:none" fill="#555555" font-size="3.6" font-family="DroidSans" id="textGND">GND</text>
       </g>
       <line stroke-linecap="round" stroke-width="0.72" y1="50.76" gorn="0.4.0.0.0.7" y2="50.76" x1="60.12" x2="67.32" stroke="#555555" fill="none" id="connector4pin"/>
       <g stroke-width="0" y="50.7593" height="0.00144" x="67.6721" stroke="none" width="0.01584" fill="none" id="connector4terminal"/>
       <line stroke-linecap="round" stroke-width="0.72" y1="36.36" gorn="0.4.0.0.0.9" y2="36.36" x1="60.12" x2="67.32" stroke="#555555" style="stroke-miterlimit:4;stroke-dasharray:none" fill="none" id="connector3pin"/>
       <g stroke-width="0" y="36.3593" height="0.00149904" x="67.6868" stroke="none" width="0.015899" fill="none" id="connector3terminal"/>
       <line stroke-linecap="round" stroke-width="0.72" y1="21.96" gorn="0.4.0.0.0.11" y2="21.96" x1="60.12" x2="67.32" stroke="#555555" fill="none" id="connector1pin"/>
       <rect stroke-width="0" gorn="0.4.0.0.0.12" y="21.9593" height="0.00144" x="67.6721" stroke="none" width="0.01584" fill="none"/>
       <line stroke-linecap="round" stroke-width="0.72" y1="0.36" gorn="0.4.0.0.0.13" y2="-6.24" x1="33.7999" x2="33.7999" stroke="#555555" style="stroke-miterlimit:4;stroke-dasharray:none" fill="none" id="connector2pin"/>
       <g stroke-width="0" y="-6.62211" height="0.014699" x="33.7992" stroke="none" width="0.00149904" fill="none" id="connector2terminal"/>
       <rect stroke-width="0" gorn="0.4.0.0.0.14" y="-6.62211" height="0.014699" x="33.8393" stroke="none" width="0.00149904" fill="none"/>
       <line stroke-linecap="round" stroke-width="0.72" y1="72.6556" gorn="0.4.0.0.0.15" y2="79.201" x1="33.7999" x2="33.7999" stroke="#555555" style="stroke-miterlimit:4;stroke-dasharray:none" fill="none" id="connector0pin"/>
       <g stroke-width="0" y="79.5686" height="0.0145899" x="33.7992" stroke="none" width="0.00149904" fill="none" id="connector0terminal"/>
      </g>
     </g>
    </g>
   </g>
  </g>
 </g>
 <g partID="855133460">
  <g transform="translate(134.512,22.5589)">
   <g id="schematic">
    <rect stroke-width="0.9" stroke-linecap="round" class="interior rect" y="14.85" height="135.9" x="14.85" stroke="#000000" width="78.3" fill="#FFFFFF"/>
    <line stroke-width="0.699999" stroke-linecap="round" y1="28.8" y2="28.8" class="pin" x1="93.2499" x2="107.65" stroke="#787878" fill="none" id="connector61pin"/>
    <text stroke-width="0" text-anchor="end" class="text" y="29.4999" x="91.8499" stroke="none" fill="#8c8c8c" font-family="'Droid Sans'" font-size="3.49999">D0/RX</text>
    <g stroke-width="0" class="terminal" y="28.4499" height="0.699999" x="107.65" stroke="none" width="0.699999" fill="none" id="connector61terminal"/>
    <line stroke-width="0.699999" stroke-linecap="round" y1="36" y2="36" class="pin" x1="93.2499" x2="107.65" stroke="#787878" fill="none" id="connector62pin"/>
    <text stroke-width="0" text-anchor="end" class="text" y="36.6999" x="91.8499" stroke="none" fill="#8c8c8c" font-family="'Droid Sans'" font-size="3.49999">D1/TX</text>
    <g stroke-width="0" class="terminal" y="35.6499" height="0.699999" x="107.65" stroke="none" width="0.699999" fill="none" id="connector62terminal"/>
    <line stroke-width="0.699999" stroke-linecap="round" y1="43.2" y2="43.2" class="pin" x1="93.2499" x2="107.65" stroke="#787878" fill="none" id="connector63pin"/>
    <text stroke-width="0" text-anchor="end" class="text" y="43.8999" x="91.8499" stroke="none" fill="#8c8c8c" font-family="'Droid Sans'" font-size="3.49999">D2</text>
    <g stroke-width="0" class="terminal" y="42.8499" height="0.699999" x="107.65" stroke="none" width="0.699999" fill="none" id="connector63terminal"/>
    <line stroke-width="0.699999" stroke-linecap="round" y1="50.4" y2="50.4" class="pin" x1="93.2499" x2="107.65" stroke="#787878" fill="none" id="connector64pin"/>
    <text stroke-width="0" text-anchor="end" class="text" y="51.0999" x="91.8499" stroke="none" fill="#8c8c8c" font-family="'Droid Sans'" font-size="3.49999">D3 PWM</text>
    <g stroke-width="0" class="terminal" y="50.0499" height="0.699999" x="107.65" stroke="none" width="0.699999" fill="none" id="connector64terminal"/>
    <line stroke-width="0.699999" stroke-linecap="round" y1="57.6" y2="57.6" class="pin" x1="93.2499" x2="107.65" stroke="#787878" fill="none" id="connector65pin"/>
    <text stroke-width="0" text-anchor="end" class="text" y="58.2999" x="91.8499" stroke="none" fill="#8c8c8c" font-family="'Droid Sans'" font-size="3.49999">D4</text>
    <g stroke-width="0" class="terminal" y="57.2499" height="0.699999" x="107.65" stroke="none" width="0.699999" fill="none" id="connector65terminal"/>
    <line stroke-width="0.699999" stroke-linecap="round" y1="64.8" y2="64.8" class="pin" x1="93.2499" x2="107.65" stroke="#787878" fill="none" id="connector66pin"/>
    <text stroke-width="0" text-anchor="end" class="text" y="65.4999" x="91.8499" stroke="none" fill="#8c8c8c" font-family="'Droid Sans'" font-size="3.49999">D5 PWM</text>
    <g stroke-width="0" class="terminal" y="64.4499" height="0.699999" x="107.65" stroke="none" width="0.699999" fill="none" id="connector66terminal"/>
    <line stroke-width="0.699999" stroke-linecap="round" y1="72" y2="72" class="pin" x1="93.2499" x2="107.65" stroke="#787878" fill="none" id="connector67pin"/>
    <text stroke-width="0" text-anchor="end" class="text" y="72.6999" x="91.8499" stroke="none" fill="#8c8c8c" font-family="'Droid Sans'" font-size="3.49999">D6 PWM</text>
    <g stroke-width="0" class="terminal" y="71.6499" height="0.699999" x="107.65" stroke="none" width="0.699999" fill="none" id="connector67terminal"/>
    <line stroke-width="0.699999" stroke-linecap="round" y1="79.2" y2="79.2" class="pin" x1="93.2499" x2="107.65" stroke="#787878" fill="none" id="connector68pin"/>
    <text stroke-width="0" text-anchor="end" class="text" y="79.8999" x="91.8499" stroke="none" fill="#8c8c8c" font-family="'Droid Sans'" font-size="3.49999">D7</text>
    <g stroke-width="0" class="terminal" y="78.8499" height="0.699999" x="107.65" stroke="none" width="0.699999" fill="none" id="connector68terminal"/>
    <line stroke-width="0.699999" stroke-linecap="round" y1="86.4" y2="86.4" class="pin" x1="93.2499" x2="107.65" stroke="#787878" fill="none" id="connector51pin"/>
    <text stroke-width="0" text-anchor="end" class="text" y="87.0999" x="91.8499" stroke="none" fill="#8c8c8c" font-family="'Droid Sans'" font-size="3.49999">D8</text>
    <g stroke-width="0" class="terminal" y="86.0499" height="0.699999" x="107.65" stroke="none" width="0.699999" fill="none" id="connector51terminal"/>
    <line stroke-width="0.699999" stroke-linecap="round" y1="93.6" y2="93.6" class="pin" x1="93.2499" x2="107.65" stroke="#787878" fill="none" id="connector52pin"/>
    <text stroke-width="0" text-anchor="end" class="text" y="94.2999" x="91.8499" stroke="none" fill="#8c8c8c" font-family="'Droid Sans'" font-size="3.49999">D9 PWM</text>
    <g stroke-width="0" class="terminal" y="93.2499" height="0.699999" x="107.65" stroke="none" width="0.699999" fill="none" id="connector52terminal"/>
    <line stroke-width="0.699999" stroke-linecap="round" y1="100.8" y2="100.8" class="pin" x1="93.2499" x2="107.65" stroke="#787878" fill="none" id="connector53pin"/>
    <text stroke-width="0" text-anchor="end" class="text" y="101.5" x="91.8499" stroke="none" fill="#8c8c8c" font-family="'Droid Sans'" font-size="3.49999">D10 PWM/SS</text>
    <g stroke-width="0" class="terminal" y="100.45" height="0.699999" x="107.65" stroke="none" width="0.699999" fill="none" id="connector53terminal"/>
    <line stroke-width="0.699999" stroke-linecap="round" y1="108" y2="108" class="pin" x1="93.2499" x2="107.65" stroke="#787878" fill="none" id="connector54pin"/>
    <text stroke-width="0" text-anchor="end" class="text" y="108.7" x="91.8499" stroke="none" fill="#8c8c8c" font-family="'Droid Sans'" font-size="3.49999">D11 PWM/MOSI</text>
    <g stroke-width="0" class="terminal" y="107.65" height="0.699999" x="107.65" stroke="none" width="0.699999" fill="none" id="connector54terminal"/>
    <line stroke-width="0.699999" stroke-linecap="round" y1="115.2" y2="115.2" class="pin" x1="93.2499" x2="107.65" stroke="#787878" fill="none" id="connector55pin"/>
    <text stroke-width="0" text-anchor="end" class="text" y="115.9" x="91.8499" stroke="none" fill="#8c8c8c" font-family="'Droid Sans'" font-size="3.49999">D12/MISO</text>
    <g stroke-width="0" class="terminal" y="114.85" height="0.699999" x="107.65" stroke="none" width="0.699999" fill="none" id="connector55terminal"/>
    <line stroke-width="0" stroke-linecap="round" y1="122.4" y2="122.4" class="pin" x1="93.2499" x2="107.65" stroke="none" fill="none" id="connector41pin"/>
    <rect stroke-width="0" class="terminal" y="122.05" height="0.699999" x="107.65" stroke="none" width="0.699999" fill="none" id="connector41terminal"/>
    <line stroke-width="0.699999" stroke-linecap="round" y1="122.4" y2="122.4" class="pin" x1="93.2499" x2="107.65" stroke="#787878" fill="none" id="connector56pin"/>
    <text stroke-width="0" text-anchor="end" class="text" y="123.1" x="91.8499" stroke="none" fill="#8c8c8c" font-family="'Droid Sans'" font-size="3.49999">D13/SCK</text>
    <g stroke-width="0" class="terminal" y="122.05" height="0.699999" x="107.65" stroke="none" width="0.699999" fill="none" id="connector56terminal"/>
    <line stroke-width="0" stroke-linecap="round" y1="28.8" y2="28.8" class="pin" x1="0.349999" x2="14.75" stroke="none" fill="none" id="connector43pin"/>
    <rect stroke-width="0" class="terminal" y="28.4499" height="0.699999" x="-0.349999" stroke="none" width="0.699999" fill="none" id="connector43terminal"/>
    <line stroke-width="0.699999" stroke-linecap="round" y1="28.8" y2="28.8" class="pin" x1="0.349999" x2="14.75" stroke="#787878" fill="none" id="connector85pin"/>
    <text stroke-width="0" text-anchor="start" class="text" y="29.4999" x="16.15" stroke="none" fill="#8c8c8c" font-family="'Droid Sans'" font-size="3.49999">RESET</text>
    <g stroke-width="0" class="terminal" y="28.4499" height="0.699999" x="-0.349999" stroke="none" width="0.699999" fill="none" id="connector85terminal"/>
    <line stroke-width="0.699999" stroke-linecap="round" y1="36" y2="36" class="pin" x1="0.349999" x2="14.75" stroke="#787878" fill="none" id="connector49pin"/>
    <text stroke-width="0" text-anchor="start" class="text" y="36.6999" x="16.15" stroke="none" fill="#8c8c8c" font-family="'Droid Sans'" font-size="3.49999">RESET2</text>
    <rect stroke-width="0" class="terminal" y="35.6499" height="0.699999" x="-0.349999" stroke="none" width="0.699999" fill="none" id="connector49terminal"/>
    <line stroke-width="0.699999" stroke-linecap="round" y1="43.2" y2="43.2" class="pin" x1="0.349999" x2="14.75" stroke="#787878" fill="none" id="connector58pin"/>
    <text stroke-width="0" text-anchor="start" class="text" y="43.8999" x="16.15" stroke="none" fill="#8c8c8c" font-family="'Droid Sans'" font-size="3.49999">AREF</text>
    <g stroke-width="0" class="terminal" y="42.8499" height="0.699999" x="-0.349999" stroke="none" width="0.699999" fill="none" id="connector58terminal"/>
    <line stroke-width="0.699999" stroke-linecap="round" y1="50.4" y2="50.4" class="pin" x1="0.349999" x2="14.75" stroke="#787878" fill="none" id="connector84pin"/>
    <text stroke-width="0" text-anchor="start" class="text" y="51.0999" x="16.15" stroke="none" fill="#8c8c8c" font-family="'Droid Sans'" font-size="3.49999">ioref</text>
    <g stroke-width="0" class="terminal" y="50.0499" height="0.699999" x="-0.349999" stroke="none" width="0.699999" fill="none" id="connector84terminal"/>
    <line stroke-width="0.699999" stroke-linecap="round" y1="64.8" y2="64.8" class="pin" x1="0.349999" x2="14.75" stroke="#787878" fill="none" id="connector0pin"/>
    <text stroke-width="0" text-anchor="start" class="text" y="65.4999" x="16.15" stroke="none" fill="#8c8c8c" font-family="'Droid Sans'" font-size="3.49999">A0</text>
    <g stroke-width="0" class="terminal" y="64.4499" height="0.699999" x="-0.349999" stroke="none" width="0.699999" fill="none" id="connector0terminal"/>
    <line stroke-width="0.699999" stroke-linecap="round" y1="72" y2="72" class="pin" x1="0.349999" x2="14.75" stroke="#787878" fill="none" id="connector1pin"/>
    <text stroke-width="0" text-anchor="start" class="text" y="72.6999" x="16.15" stroke="none" fill="#8c8c8c" font-family="'Droid Sans'" font-size="3.49999">A1</text>
    <g stroke-width="0" class="terminal" y="71.6499" height="0.699999" x="-0.349999" stroke="none" width="0.699999" fill="none" id="connector1terminal"/>
    <line stroke-width="0.699999" stroke-linecap="round" y1="79.2" y2="79.2" class="pin" x1="0.349999" x2="14.75" stroke="#787878" fill="none" id="connector2pin"/>
    <text stroke-width="0" text-anchor="start" class="text" y="79.8999" x="16.15" stroke="none" fill="#8c8c8c" font-family="'Droid Sans'" font-size="3.49999">A2</text>
    <g stroke-width="0" class="terminal" y="78.8499" height="0.699999" x="-0.349999" stroke="none" width="0.699999" fill="none" id="connector2terminal"/>
    <line stroke-width="0.699999" stroke-linecap="round" y1="86.4" y2="86.4" class="pin" x1="0.349999" x2="14.75" stroke="#787878" fill="none" id="connector3pin"/>
    <text stroke-width="0" text-anchor="start" class="text" y="87.0999" x="16.15" stroke="none" fill="#8c8c8c" font-family="'Droid Sans'" font-size="3.49999">A3</text>
    <g stroke-width="0" class="terminal" y="86.0499" height="0.699999" x="-0.349999" stroke="none" width="0.699999" fill="none" id="connector3terminal"/>
    <line stroke-width="0" stroke-linecap="round" y1="93.6" y2="93.6" class="pin" x1="0.349999" x2="14.75" stroke="none" fill="none" id="connector48pin"/>
    <rect stroke-width="0" class="terminal" y="93.2499" height="0.699999" x="-0.349999" stroke="none" width="0.699999" fill="none" id="connector48terminal"/>
    <line stroke-width="0" stroke-linecap="round" y1="93.6" y2="93.6" class="pin" x1="0.349999" x2="14.75" stroke="none" fill="none" id="connector45pin"/>
    <rect stroke-width="0" class="terminal" y="93.2499" height="0.699999" x="-0.349999" stroke="none" width="0.699999" fill="none" id="connector45terminal"/>
    <line stroke-width="0" stroke-linecap="round" y1="93.6" y2="93.6" class="pin" x1="0.349999" x2="14.75" stroke="none" fill="none" id="connector4pin"/>
    <g stroke-width="0" class="terminal" y="93.2499" height="0.699999" x="-0.349999" stroke="none" width="0.699999" fill="none" id="connector4terminal"/>
    <line stroke-width="0" stroke-linecap="round" y1="93.6" y2="93.6" class="pin" x1="0.349999" x2="14.75" stroke="none" fill="none" id="connector39pin"/>
    <rect stroke-width="0" class="terminal" y="93.2499" height="0.699999" x="-0.349999" stroke="none" width="0.699999" fill="none" id="connector39terminal"/>
    <line stroke-width="0" stroke-linecap="round" y1="93.6" y2="93.6" class="pin" x1="0.349999" x2="14.75" stroke="none" fill="none" id="connector47pin"/>
    <rect stroke-width="0" class="terminal" y="93.2499" height="0.699999" x="-0.349999" stroke="none" width="0.699999" fill="none" id="connector47terminal"/>
    <line stroke-width="0" stroke-linecap="round" y1="93.6" y2="93.6" class="pin" x1="0.349999" x2="14.75" stroke="none" fill="none" id="connector42pin"/>
    <rect stroke-width="0" class="terminal" y="93.2499" height="0.699999" x="-0.349999" stroke="none" width="0.699999" fill="none" id="connector42terminal"/>
    <line stroke-width="0.699999" stroke-linecap="round" y1="93.6" y2="93.6" class="pin" x1="0.349999" x2="14.75" stroke="#787878" fill="none" id="connector59pin"/>
    <text stroke-width="0" text-anchor="start" class="text" y="94.2999" x="16.15" stroke="none" fill="#8c8c8c" font-family="'Droid Sans'" font-size="3.49999">A4/SDA</text>
    <g stroke-width="0" class="terminal" y="93.2499" height="0.699999" x="-0.349999" stroke="none" width="0.699999" fill="none" id="connector59terminal"/>
    <line stroke-width="0" stroke-linecap="round" y1="100.8" y2="100.8" class="pin" x1="0.349999" x2="14.75" stroke="none" fill="none" id="connector5pin"/>
    <g stroke-width="0" class="terminal" y="100.45" height="0.699999" x="-0.349999" stroke="none" width="0.699999" fill="none" id="connector5terminal"/>
    <line stroke-width="0.699999" stroke-linecap="round" y1="100.8" y2="100.8" class="pin" x1="0.349999" x2="14.75" stroke="#787878" fill="none" id="connector60pin"/>
    <text stroke-width="0" text-anchor="start" class="text" y="101.5" x="16.15" stroke="none" fill="#8c8c8c" font-family="'Droid Sans'" font-size="3.49999">A5/SCL</text>
    <g stroke-width="0" class="terminal" y="100.45" height="0.699999" x="-0.349999" stroke="none" width="0.699999" fill="none" id="connector60terminal"/>
    <line stroke-width="0.699999" stroke-linecap="round" y1="136.8" y2="136.8" class="pin" x1="0.349999" x2="14.75" stroke="#787878" fill="none" id="connector91pin"/>
    <text stroke-width="0" text-anchor="start" class="text" y="137.5" x="16.15" stroke="none" fill="#8c8c8c" font-family="'Droid Sans'" font-size="3.49999">N/C</text>
    <g stroke-width="0" class="terminal" y="136.45" height="0.699999" x="-0.349999" stroke="none" width="0.699999" fill="none" id="connector91terminal"/>
    <line stroke-width="0" stroke-linecap="round" y1="150.85" y2="165.25" class="pin" x1="57.6" x2="57.6" stroke="none" fill="none" id="connector88pin"/>
    <g stroke-width="0" class="terminal" y="165.25" height="0.699999" x="57.2499" stroke="none" width="0.699999" fill="none" id="connector88terminal"/>
    <line stroke-width="0" stroke-linecap="round" y1="150.85" y2="165.25" class="pin" x1="57.6" x2="57.6" stroke="none" fill="none" id="connector57pin"/>
    <g stroke-width="0" class="terminal" y="165.25" height="0.699999" x="57.2499" stroke="none" width="0.699999" fill="none" id="connector57terminal"/>
    <line stroke-width="0" stroke-linecap="round" y1="150.85" y2="165.25" class="pin" x1="57.6" x2="57.6" stroke="none" fill="none" id="connector44pin"/>
    <rect stroke-width="0" class="terminal" y="165.25" height="0.699999" x="57.2499" stroke="none" width="0.699999" fill="none" id="connector44terminal"/>
    <line stroke-width="0" stroke-linecap="round" y1="150.85" y2="165.25" class="pin" x1="57.6" x2="57.6" stroke="none" fill="none" id="connector50pin"/>
    <rect stroke-width="0" class="terminal" y="165.25" height="0.699999" x="57.2499" stroke="none" width="0.699999" fill="none" id="connector50terminal"/>
    <line stroke-width="0.699999" stroke-linecap="round" y1="150.85" y2="165.25" class="pin" x1="57.6" x2="57.6" stroke="#787878" fill="none" id="connector89pin"/>
    <g transform="matrix(1, 0, 0, 1, 58.2999, 149.45)">
     <g>
      <g transform="rotate(270)">
       <g>
        <text stroke-width="0" text-anchor="start" class="text" y="0" x="0" stroke="none" fill="#8c8c8c" font-family="'Droid Sans'" font-size="3.49999">GND</text>
       </g>
      </g>
     </g>
    </g>
    <g stroke-width="0" class="terminal" y="165.25" height="0.699999" x="57.2499" stroke="none" width="0.699999" fill="none" id="connector89terminal"/>
    <line stroke-width="0.699999" stroke-linecap="round" y1="0.349999" y2="14.75" class="pin" x1="36" x2="36" stroke="#787878" fill="none" id="connector86pin"/>
    <g transform="matrix(1, 0, 0, 1, 36.6999, 16.15)">
     <g>
      <g transform="rotate(270)">
       <g>
        <text stroke-width="0" text-anchor="end" class="text" y="0" x="0" stroke="none" fill="#8c8c8c" font-family="'Droid Sans'" font-size="3.49999">3V3</text>
       </g>
      </g>
     </g>
    </g>
    <g stroke-width="0" class="terminal" y="-0.349999" height="0.699999" x="35.6499" stroke="none" width="0.699999" fill="none" id="connector86terminal"/>
    <line stroke-width="0" stroke-linecap="round" y1="0.349999" y2="14.75" class="pin" x1="50.4" x2="50.4" stroke="none" fill="none" id="connector40pin"/>
    <rect stroke-width="0" class="terminal" y="-0.349999" height="0.699999" x="50.0499" stroke="none" width="0.699999" fill="none" id="connector40terminal"/>
    <line stroke-width="0" stroke-linecap="round" y1="0.349999" y2="14.75" class="pin" x1="50.4" x2="50.4" stroke="none" fill="none" id="connector46pin"/>
    <rect stroke-width="0" class="terminal" y="-0.349999" height="0.699999" x="50.0499" stroke="none" width="0.699999" fill="none" id="connector46terminal"/>
    <line stroke-width="0.699999" stroke-linecap="round" y1="0.349999" y2="14.75" class="pin" x1="50.4" x2="50.4" stroke="#787878" fill="none" id="connector87pin"/>
    <g transform="matrix(1, 0, 0, 1, 51.0999, 16.15)">
     <g>
      <g transform="rotate(270)">
       <g>
        <text stroke-width="0" text-anchor="end" class="text" y="0" x="0" stroke="none" fill="#8c8c8c" font-family="'Droid Sans'" font-size="3.49999">5V</text>
       </g>
      </g>
     </g>
    </g>
    <g stroke-width="0" class="terminal" y="-0.349999" height="0.699999" x="50.0499" stroke="none" width="0.699999" fill="none" id="connector87terminal"/>
    <line stroke-width="0.699999" stroke-linecap="round" y1="0.349999" y2="14.75" class="pin" x1="64.8" x2="64.8" stroke="#787878" fill="none" id="connector90pin"/>
    <g transform="matrix(1, 0, 0, 1, 65.4999, 16.15)">
     <g>
      <g transform="rotate(270)">
       <g>
        <text stroke-width="0" text-anchor="end" class="text" y="0" x="0" stroke="none" fill="#8c8c8c" font-family="'Droid Sans'" font-size="3.49999">VIN</text>
       </g>
      </g>
     </g>
    </g>
    <g stroke-width="0" class="terminal" y="-0.349999" height="0.699999" x="64.4499" stroke="none" width="0.699999" fill="none" id="connector90terminal"/>
    <text stroke-width="0" text-anchor="middle" class="text" y="76.4498" x="54.4501" stroke="none" fill="#000000" id="label" font-family="'Droid Sans'" font-size="4.25001">Arduino</text>
    <text stroke-width="0" text-anchor="middle" class="text" y="80.9833" x="54.4501" stroke="none" fill="#000000" id="label" font-family="'Droid Sans'" font-size="4.25001">Uno</text>
    <text stroke-width="0" text-anchor="middle" class="text" y="85.5167" x="54.4501" stroke="none" fill="#000000" id="label" font-family="'Droid Sans'" font-size="4.25001">(Rev3)</text>
   </g>
  </g>
 </g>
 <g partID="855136490">
  <line stroke-linecap="round" stroke-width="0.699998" y1="80.1377" y2="80.1434" x1="285.712" stroke="#404040" x2="311.214"/>
 </g>
 <g partID="855137010">
  <line stroke-linecap="round" stroke-width="0.699998" y1="144.97" y2="159.359" x1="343.385" stroke="#404040" x2="343.327"/>
 </g>
 <circle stroke-width="0" r="1.44" cx="343.327" stroke="none" fill="black" cy="159.359"/>
 <g partID="855136760">
  <line stroke-linecap="round" stroke-width="0.699998" y1="159.359" y2="159.359" x1="343.327" stroke="#404040" x2="285.712"/>
 </g>
 <g partID="855136630">
  <line stroke-linecap="round" stroke-width="0.699998" y1="159.359" y2="80.1377" x1="285.712" stroke="#404040" x2="285.712"/>
 </g>
 <g partID="855136500">
  <line stroke-linecap="round" stroke-width="0.699998" y1="137.759" y2="144.97" x1="341.134" stroke="#404040" x2="343.385"/>
 </g>
 <g partID="855137850">
  <line stroke-linecap="round" stroke-width="0.699998" y1="202.586" y2="202.586" x1="343.385" stroke="#404040" x2="192.145"/>
 </g>
 <g partID="855137960">
  <line stroke-linecap="round" stroke-width="0.699998" y1="202.586" y2="188.159" x1="192.145" stroke="#404040" x2="192.112"/>
 </g>
 <circle stroke-width="0" r="1.44" cx="192.112" stroke="none" fill="black" cy="188.159"/>
 <g partID="855137740">
  <line stroke-linecap="round" stroke-width="0.699998" y1="159.359" y2="202.586" x1="343.327" stroke="#404040" x2="343.385"/>
 </g>
 <g partID="855138150">
  <line stroke-linecap="round" stroke-width="0.699998" y1="65.7492" y2="65.7588" x1="264.164" stroke="#fff800" x2="242.512"/>
 </g>
 <g partID="855138090">
  <line stroke-linecap="round" stroke-width="0.699998" y1="108.961" y2="65.7492" x1="264.164" stroke="#fff800" x2="264.164"/>
 </g>
 <g partID="855138100">
  <line stroke-linecap="round" stroke-width="0.699998" y1="108.943" y2="108.961" x1="307.254" stroke="#fff800" x2="264.164"/>
 </g>
 <g partID="855138220">
  <line stroke-linecap="round" stroke-width="0.699998" y1="94.5569" y2="94.5435" x1="271.366" stroke="#ff7300" x2="307.239"/>
 </g>
 <g partID="855138280">
  <line stroke-linecap="round" stroke-width="0.699998" y1="72.9511" y2="94.5569" x1="271.366" stroke="#ff7300" x2="271.366"/>
 </g>
 <g partID="855138230">
  <line stroke-linecap="round" stroke-width="0.699998" y1="72.9588" y2="72.9511" x1="242.512" stroke="#ff7300" x2="271.366"/>
 </g>
 <g partID="855138600">
  <line stroke-linecap="round" stroke-width="0.699998" y1="44.1423" y2="1.05089" x1="343.269" stroke="#cc1414" x2="343.269"/>
 </g>
 <g partID="855138510">
  <line stroke-linecap="round" stroke-width="0.699998" y1="1.05089" y2="1.05089" x1="343.269" stroke="#cc1414" x2="184.945"/>
 </g>
 <g partID="855138330">
  <line stroke-linecap="round" stroke-width="0.699998" y1="51.5687" y2="44.1423" x1="341.134" stroke="#cc1414" x2="343.269"/>
 </g>
 <g partID="855138420">
  <line stroke-linecap="round" stroke-width="0.699998" y1="1.05089" y2="22.5589" x1="184.945" stroke="#cc1414" x2="184.912"/>
 </g>
 <circle stroke-width="0" r="1.44" cx="184.912" stroke="none" fill="black" cy="22.5589"/>
 <g partID="855138790">
  <line stroke-linecap="round" stroke-width="0.699998" y1="1.05089" y2="1.05089" x1="105.541" stroke="#cc1414" x2="184.945"/>
 </g>
 <g partID="855138860">
  <line stroke-linecap="round" stroke-width="0.699998" y1="1.05089" y2="22.5589" x1="184.945" stroke="#cc1414" x2="184.912"/>
 </g>
 <circle stroke-width="0" r="1.44" cx="184.912" stroke="none" fill="black" cy="22.5589"/>
 <g partID="855138710">
  <line stroke-linecap="round" stroke-width="0.699998" y1="109.021" y2="1.05089" x1="105.541" stroke="#cc1414" x2="105.541"/>
 </g>
 <g partID="855138720">
  <line stroke-linecap="round" stroke-width="0.699998" y1="108.956" y2="109.021" x1="91.3118" stroke="#cc1414" x2="105.541"/>
 </g>
 <g partID="855139200">
  <line stroke-linecap="round" stroke-width="0.699998" y1="202.689" y2="188.159" x1="192.09" stroke="#404040" x2="192.112"/>
 </g>
 <circle stroke-width="0" r="1.44" cx="192.112" stroke="none" fill="black" cy="188.159"/>
 <g partID="855139110">
  <line stroke-linecap="round" stroke-width="0.699998" y1="202.689" y2="202.689" x1="98.3088" stroke="#404040" x2="192.09"/>
 </g>
 <g partID="855138930">
  <line stroke-linecap="round" stroke-width="0.699998" y1="101.759" y2="101.759" x1="91.3118" stroke="#404040" x2="98.3088"/>
 </g>
 <g partID="855139020">
  <line stroke-linecap="round" stroke-width="0.699998" y1="101.759" y2="202.689" x1="98.3088" stroke="#404040" x2="98.3088"/>
 </g>
 <g partID="855139370">
  <line stroke-linecap="round" stroke-width="0.699998" y1="123.207" y2="123.359" x1="113.028" stroke="#fff800" x2="134.512"/>
 </g>
 <g partID="855139310">
  <line stroke-linecap="round" stroke-width="0.699998" y1="116.057" y2="123.207" x1="113.028" stroke="#fff800" x2="113.028"/>
 </g>
 <g partID="855139320">
  <line stroke-linecap="round" stroke-width="0.699998" y1="116.158" y2="116.057" x1="91.3118" stroke="#fff800" x2="113.028"/>
 </g>
 <g partID="855139500">
  <line stroke-linecap="round" stroke-width="0.699998" y1="116.057" y2="116.159" x1="120.177" stroke="#33ffc5" x2="134.512"/>
 </g>
 <g partID="855139440">
  <line stroke-linecap="round" stroke-width="0.699998" y1="123.207" y2="116.057" x1="105.879" stroke="#33ffc5" x2="120.177"/>
 </g>
 <g partID="855139450">
  <line stroke-linecap="round" stroke-width="0.699998" y1="123.359" y2="123.207" x1="91.3118" stroke="#33ffc5" x2="105.879"/>
 </g>
 <g partID="855133280" id="partLabel">
  <g transform="translate(76.4252,62.0385)">
   <g font-style="normal" stroke="none" fill-opacity="1" font-weight="normal" fill="#000000" font-size="5" font-family="'DroidSans'" id="schematicLabel">
    <text y="3.75" x="0">OLED1</text>
   </g>
  </g>
 </g>
 <g partID="855133310" id="partLabel">
  <g transform="translate(367.744,46.0148)">
   <g font-style="normal" stroke="none" fill-opacity="1" font-weight="normal" fill="#000000" font-size="5" font-family="'DroidSans'" id="schematicLabel">
    <text y="3.75" x="0">RE1</text>
   </g>
  </g>
 </g>
 <g partID="855133460" id="partLabel">
  <g transform="translate(242.512,16.9589)">
   <g font-style="normal" stroke="none" fill-opacity="1" font-weight="normal" fill="#000000" font-size="5" font-family="'DroidSans'" id="schematicLabel">
    <text y="3.75" x="0">Part1</text>
   </g>
  </g>
 </g>
</svg>
