<?xml version='1.0' encoding='UTF-8' standalone='no'?>
<!-- Created with Fritzing (https://fritzing.org/) -->
<svg xmlns="http://www.w3.org/2000/svg" xmlns:svg="http://www.w3.org/2000/svg" viewBox="0 0 386.144 226.783" y="0in" x="0in" version="1.2" width="5.36311in" height="3.14976in"  baseProfile="tiny">
 <g id="watermark" >
  <g >
   <g >
    <path d="M361.412,220.583c-0.604,0,-1.131,0.325,-1.422,0.809l-2.796,0l3.96,-4.071c0.146,-0.146,0.289,-0.322,0.428,-0.521c0.149,-0.222,0.228,-0.479,0.228,-0.768c0,-0.279,-0.097,-0.518,-0.287,-0.71c-0.19,-0.188,-0.444,-0.287,-0.754,-0.287l-4.636,0c-0.305,0,-0.555,0.06,-0.742,0.17c-0.219,0.13,-0.33,0.368,-0.33,0.707c0,0.329,0.111,0.562,0.33,0.692c0.188,0.111,0.438,0.168,0.742,0.168l3.148,0l-3.974,4.086c-0.146,0.147,-0.289,0.315,-0.425,0.504c-0.153,0.212,-0.23,0.472,-0.23,0.771c0,0.28,0.096,0.521,0.288,0.711c0.188,0.188,0.442,0.285,0.754,0.285l4.315,0c0.293,0.467,0.812,0.776,1.4,0.776c0.916,0,1.66,-0.744,1.66,-1.661C363.071,221.328,362.326,220.583,361.412,220.583zM361.412,222.846c-0.334,0,-0.604,-0.271,-0.604,-0.604c0,-0.333,0.27,-0.604,0.604,-0.604c0.332,0,0.604,0.271,0.604,0.604C362.015,222.577,361.744,222.846,361.412,222.846z" fill="#8C8C8C" />
    <path d="M344.469,210.541c-0.914,0,-1.659,0.745,-1.659,1.66c0,0.916,0.745,1.66,1.659,1.66s1.658,-0.744,1.658,-1.66C346.129,211.286,345.385,210.541,344.469,210.541zM344.47,212.804c-0.333,0,-0.604,-0.27,-0.604,-0.603s0.271,-0.603,0.604,-0.603c0.331,0,0.604,0.27,0.604,0.603S344.801,212.804,344.47,212.804z" fill="#8C8C8C" />
    <path d="M352.99,215.203c-0.193,-0.111,-0.439,-0.169,-0.732,-0.169l-1.465,0L350.793,212.512c0,-0.292,-0.057,-0.538,-0.166,-0.729C350.537,211.626,350.344,211.441,349.934,211.441c-0.34,0,-0.578,0.116,-0.709,0.342c-0.109,0.193,-0.167,0.438,-0.167,0.729l0,2.521l-0.481,0c-0.295,0,-0.539,0.06,-0.731,0.169c-0.228,0.129,-0.341,0.368,-0.341,0.708c0,0.412,0.185,0.603,0.341,0.692c0.192,0.111,0.438,0.168,0.731,0.168l0.481,0l0,4.362c0,0.277,0.026,0.533,0.081,0.768c0.056,0.246,0.154,0.464,0.298,0.645c0.146,0.186,0.345,0.332,0.595,0.436c0.241,0.098,0.555,0.146,0.93,0.146l0.896,0c0.292,0,0.539,-0.054,0.731,-0.166c0.154,-0.089,0.341,-0.281,0.341,-0.693c0,-0.338,-0.114,-0.578,-0.341,-0.709c-0.192,-0.109,-0.439,-0.168,-0.731,-0.168l-0.821,0c-0.138,0,-0.19,-0.019,-0.207,-0.024c-0.014,-0.034,-0.035,-0.103,-0.035,-0.231L350.795,216.771l1.465,0c0.295,0,0.541,-0.057,0.734,-0.168c0.152,-0.09,0.34,-0.28,0.34,-0.692C353.33,215.571,353.217,215.332,352.99,215.203z" fill="#8C8C8C" />
    <path d="M344.535,215.033l-1.191,0c-0.292,0,-0.538,0.059,-0.731,0.169c-0.226,0.129,-0.341,0.368,-0.341,0.708c0,0.412,0.188,0.604,0.341,0.691c0.193,0.113,0.439,0.168,0.731,0.168l0.544,0l0,5.362c0,0.293,0.057,0.539,0.167,0.73c0.131,0.227,0.367,0.341,0.708,0.341c0.411,0,0.604,-0.187,0.692,-0.341c0.111,-0.191,0.168,-0.438,0.168,-0.73L345.623,216.121c0,-0.386,-0.084,-0.656,-0.256,-0.83C345.192,215.119,344.922,215.033,344.535,215.033z" fill="#8C8C8C" />
    <path d="M340.7,215.203c-0.193,-0.111,-0.44,-0.169,-0.732,-0.169l-0.604,0c-0.25,0,-0.498,0.063,-0.734,0.187c-0.226,0.119,-0.433,0.271,-0.616,0.453l-0.644,0.604l0,-0.247c0,-0.291,-0.055,-0.538,-0.168,-0.729c-0.128,-0.228,-0.368,-0.34,-0.707,-0.34c-0.41,0,-0.604,0.184,-0.693,0.34c-0.11,0.191,-0.167,0.438,-0.167,0.729l0,4.801c-0.475,0.293,-0.791,0.816,-0.791,1.412c0,0.917,0.745,1.661,1.658,1.661c0.916,0,1.66,-0.744,1.66,-1.661c0,-0.596,-0.317,-1.119,-0.792,-1.412l0,-2.21l1.738,-1.564c0.1,-0.09,0.199,-0.164,0.297,-0.217c0.084,-0.045,0.174,-0.067,0.274,-0.067l0.288,0c0.292,0,0.539,-0.056,0.732,-0.169c0.155,-0.088,0.339,-0.279,0.339,-0.691C341.04,215.571,340.925,215.332,340.7,215.203zM336.501,222.846c-0.332,0,-0.603,-0.271,-0.603,-0.604c0,-0.333,0.271,-0.604,0.603,-0.604c0.333,0,0.604,0.271,0.604,0.604C337.105,222.577,336.834,222.846,336.501,222.846z" fill="#8C8C8C" />
    <path d="M333.984,211.684c-0.193,-0.111,-0.44,-0.167,-0.731,-0.167l-0.59,0c-0.2,0,-0.389,0.004,-0.562,0.016c-0.176,0.009,-0.345,0.035,-0.506,0.07c-0.168,0.041,-0.336,0.109,-0.496,0.202c-0.158,0.093,-0.319,0.222,-0.48,0.382c-0.334,0.314,-0.554,0.656,-0.652,1.017c-0.094,0.348,-0.143,0.735,-0.143,1.151l0,0.678l-0.483,0c-0.292,0,-0.539,0.059,-0.73,0.169c-0.227,0.13,-0.342,0.369,-0.342,0.708c0,0.412,0.185,0.604,0.341,0.693c0.191,0.111,0.438,0.166,0.73,0.166l0.483,0l0,5.362c0,0.293,0.057,0.539,0.167,0.73c0.13,0.227,0.367,0.341,0.708,0.341c0.411,0,0.603,-0.187,0.692,-0.341c0.111,-0.191,0.168,-0.438,0.168,-0.73l0,-5.36l0.92,0c0.293,0,0.54,-0.057,0.732,-0.168c0.155,-0.09,0.34,-0.28,0.34,-0.692c0,-0.34,-0.114,-0.579,-0.34,-0.708c-0.189,-0.111,-0.436,-0.17,-0.729,-0.17l-0.92,0l0,-0.678c0,-0.218,0.019,-0.41,0.056,-0.571c0.032,-0.141,0.103,-0.261,0.218,-0.367l0.002,-0.004l0.002,-0.002c0.082,-0.082,0.176,-0.126,0.29,-0.136c0.15,-0.015,0.339,-0.022,0.564,-0.022l0.56,0c0.291,0,0.539,-0.058,0.731,-0.168c0.154,-0.088,0.339,-0.281,0.339,-0.693C334.324,212.053,334.209,211.814,333.984,211.684z" fill="#8C8C8C" />
    <path d="M385.977,215.301c-0.089,-0.156,-0.282,-0.34,-0.693,-0.34c-0.339,0,-0.578,0.113,-0.707,0.34c-0.078,0.133,-0.127,0.293,-0.152,0.477l-0.021,-0.021c-0.216,-0.236,-0.466,-0.42,-0.747,-0.539c-0.277,-0.119,-0.563,-0.183,-0.849,-0.183l-0.709,0c-0.249,0,-0.466,0.015,-0.64,0.041c-0.182,0.026,-0.352,0.074,-0.51,0.14c-0.158,0.066,-0.313,0.15,-0.459,0.254c-0.139,0.097,-0.303,0.226,-0.486,0.377c-0.188,0.156,-0.342,0.302,-0.463,0.434c-0.127,0.141,-0.23,0.293,-0.306,0.455c-0.069,0.16,-0.122,0.337,-0.147,0.523c-0.026,0.178,-0.041,0.391,-0.041,0.631l0,2.386c0,0.24,0.015,0.451,0.041,0.631c0.025,0.188,0.078,0.361,0.147,0.521c0.074,0.164,0.179,0.318,0.306,0.457c0.119,0.129,0.274,0.274,0.463,0.433c0.186,0.153,0.35,0.28,0.486,0.379c0.146,0.103,0.299,0.188,0.459,0.254c0.158,0.065,0.329,0.112,0.51,0.14c0.174,0.026,0.389,0.039,0.64,0.039l0.709,0c0.298,0,0.591,-0.066,0.87,-0.199c0.244,-0.114,0.492,-0.291,0.73,-0.523l0,1.434c0,0.18,-0.025,0.334,-0.072,0.465c-0.043,0.119,-0.159,0.258,-0.344,0.406c-0.154,0.127,-0.309,0.217,-0.457,0.264c-0.15,0.049,-0.341,0.074,-0.563,0.074l-2.203,0c-0.293,0,-0.538,0.055,-0.732,0.166c-0.152,0.088,-0.34,0.282,-0.34,0.692c0,0.341,0.115,0.579,0.34,0.71c0.194,0.109,0.439,0.167,0.732,0.167l2.326,0c0.247,0,0.463,-0.015,0.638,-0.041c0.179,-0.026,0.351,-0.073,0.513,-0.14c0.153,-0.064,0.31,-0.15,0.455,-0.254c0.143,-0.101,0.305,-0.227,0.487,-0.379c0.185,-0.153,0.343,-0.299,0.463,-0.431c0.128,-0.141,0.229,-0.294,0.304,-0.456c0.071,-0.162,0.123,-0.338,0.148,-0.523c0.025,-0.182,0.041,-0.393,0.041,-0.631l0,-7.898C386.144,215.739,386.09,215.492,385.977,215.301zM384.408,219.761c0,0.188,-0.062,0.35,-0.188,0.49c-0.15,0.172,-0.394,0.403,-0.716,0.686l-0.002,0.003l-0.002,0.004c-0.139,0.13,-0.291,0.237,-0.453,0.325c-0.148,0.082,-0.325,0.121,-0.526,0.121L382.22,221.39c-0.222,0,-0.41,-0.021,-0.563,-0.072c-0.148,-0.049,-0.301,-0.137,-0.453,-0.264c-0.231,-0.186,-0.315,-0.322,-0.346,-0.404c-0.049,-0.131,-0.072,-0.285,-0.072,-0.465l0,-2.206c0,-0.18,0.023,-0.336,0.072,-0.467c0.029,-0.082,0.113,-0.217,0.346,-0.403c0.152,-0.127,0.305,-0.216,0.453,-0.265c0.153,-0.049,0.342,-0.072,0.563,-0.072l0.301,0c0.212,0,0.388,0.037,0.526,0.113c0.152,0.082,0.308,0.191,0.457,0.324c0.322,0.293,0.564,0.529,0.716,0.7c0.128,0.146,0.188,0.304,0.188,0.492L384.408,219.761z" fill="#8C8C8C" />
    <path d="M365.998,210.541c-0.914,0,-1.66,0.745,-1.66,1.66c0,0.916,0.746,1.66,1.66,1.66s1.66,-0.744,1.66,-1.66C367.658,211.286,366.912,210.541,365.998,210.541zM365.998,212.804c-0.332,0,-0.604,-0.27,-0.604,-0.603s0.271,-0.603,0.604,-0.603s0.604,0.27,0.604,0.603C366.602,212.534,366.33,212.804,365.998,212.804z" fill="#8C8C8C" />
    <path d="M376.684,220.809l-0.107,-3.419c-0.011,-0.178,-0.021,-0.338,-0.031,-0.489c-0.01,-0.162,-0.037,-0.322,-0.082,-0.476c-0.045,-0.158,-0.11,-0.309,-0.198,-0.453c-0.093,-0.146,-0.216,-0.289,-0.37,-0.42c-0.225,-0.192,-0.443,-0.334,-0.646,-0.416c-0.207,-0.084,-0.461,-0.127,-0.754,-0.127l-1.012,0c-0.259,0,-0.501,0.058,-0.716,0.164c-0.197,0.098,-0.39,0.203,-0.572,0.315l-0.003,0.002l-0.003,0.003l-0.837,0.555l0,-0.041c0,-0.291,-0.057,-0.539,-0.168,-0.733c-0.129,-0.226,-0.367,-0.339,-0.707,-0.339c-0.411,0,-0.604,0.185,-0.693,0.339c-0.109,0.194,-0.168,0.438,-0.168,0.733l0,6.099c0,0.295,0.059,0.539,0.168,0.734c0.09,0.153,0.282,0.338,0.693,0.338c0.34,0,0.578,-0.114,0.707,-0.338c0.111,-0.195,0.168,-0.439,0.168,-0.734L371.353,218.071l1.953,-1.215c0.04,-0.024,0.082,-0.048,0.121,-0.063c0.031,-0.016,0.07,-0.025,0.115,-0.031c0.049,-0.012,0.117,-0.016,0.195,-0.016l0.362,0c0.188,0,0.334,0.021,0.435,0.059c0.082,0.029,0.143,0.076,0.18,0.143c0.05,0.078,0.08,0.18,0.098,0.303c0.02,0.139,0.034,0.309,0.045,0.504l0.096,3.097c-0.457,0.297,-0.762,0.811,-0.762,1.394c0,0.917,0.746,1.661,1.66,1.661c0.916,0,1.66,-0.744,1.66,-1.661C377.51,221.634,377.177,221.096,376.684,220.809zM375.85,222.846c-0.334,0,-0.602,-0.271,-0.602,-0.604c0,-0.333,0.268,-0.604,0.602,-0.604c0.333,0,0.604,0.271,0.604,0.604C376.455,222.577,376.183,222.846,375.85,222.846z" fill="#8C8C8C" />
    <path d="M366.061,215.033l-1.193,0c-0.293,0,-0.539,0.059,-0.731,0.169c-0.226,0.129,-0.341,0.368,-0.341,0.708c0,0.412,0.186,0.604,0.341,0.691c0.192,0.113,0.438,0.168,0.731,0.168l0.545,0l0,5.362c0,0.293,0.055,0.539,0.168,0.73c0.127,0.227,0.365,0.341,0.707,0.341c0.41,0,0.604,-0.187,0.691,-0.341c0.111,-0.191,0.17,-0.438,0.17,-0.73L367.149,216.121c0,-0.386,-0.085,-0.656,-0.259,-0.83C366.718,215.119,366.445,215.033,366.061,215.033z" fill="#8C8C8C" />
   </g>
  </g>
 </g>
 <g partID="855133310">
  <g transform="translate(374.944,51.6149)">
   <g transform="matrix(-1,0,0,1,0,0)">
    <g transform="matrix(1, 0, 0, 1, -7.18992, 6.56863)">
     <g id="schematic">
      <g gorn="0.4.0.0.0">
       <rect id="rect835" y="0.360001" stroke-width="0.72" stroke-linecap="round" style="stroke-miterlimit:4;stroke-dasharray:none" x="7.54992" stroke="#000000" height="72.3391" width="52.4966" gorn="0.4.0.0.0.0" fill="none"/>
       <text id="textKY040RE" xmlns:xml="http://www.w3.org/XML/1998/namespace" font-size="5.76" y="18.72" xml:space="preserve" font-family="DroidSans" x="10.08" gorn="0.4.0.0.0.1" fill="#000000">KY-040</text>
       <text id="text921" xmlns:xml="http://www.w3.org/XML/1998/namespace" font-size="5.76" y="31.68" xml:space="preserve" font-family="DroidSans" x="10.08" gorn="0.4.0.0.0.2" fill="#000000">Rotary</text>
       <text id="text923" xmlns:xml="http://www.w3.org/XML/1998/namespace" font-size="5.76" y="43.2" xml:space="preserve" font-family="DroidSans" x="10.08" gorn="0.4.0.0.0.3" fill="#000000">Encoder</text>
       <g id="g841" stroke-width="0.0708661" style="stroke-miterlimit:4;stroke-dasharray:none" gorn="0.4.0.0.0.4">
        <text id="textSW" font-size="3.6" y="23.4" stroke-width="0.0708661" font-family="DroidSans" style="stroke-miterlimit:4;stroke-dasharray:none" x="50.4" gorn="0.4.0.0.0.4.0" fill="#555555">SW</text>
        <text id="textDT" font-size="3.6" y="37.8" stroke-width="0.0708661" font-family="DroidSans" style="stroke-miterlimit:4;stroke-dasharray:none" x="51.264" gorn="0.4.0.0.0.4.1" fill="#555555">DT</text>
        <text id="textCLK" font-size="3.6" y="52.2" stroke-width="0.0708661" font-family="DroidSans" style="stroke-miterlimit:4;stroke-dasharray:none" x="49.68" gorn="0.4.0.0.0.4.2" fill="#555555">CLK</text>
       </g>
       <g id="g853" stroke-width="0.0708661" style="stroke-miterlimit:4;stroke-dasharray:none" gorn="0.4.0.0.0.5">
        <text id="textVcc" font-size="3.6" y="7.56" stroke-width="0.0708661" font-family="DroidSans" style="stroke-miterlimit:4;stroke-dasharray:none" x="32.76" gorn="0.4.0.0.0.5.0" fill="#555555">+</text>
       </g>
       <g id="g847" stroke-width="0.0708661" style="stroke-miterlimit:4;stroke-dasharray:none" gorn="0.4.0.0.0.6">
        <text id="textGND" font-size="3.6" y="68.4" stroke-width="0.0708661" font-family="DroidSans" style="stroke-miterlimit:4;stroke-dasharray:none" x="29.88" gorn="0.4.0.0.0.6.0" fill="#555555">GND</text>
       </g>
       <line y2="50.76" id="connector4pin" x1="60.12" stroke-width="0.72" stroke-linecap="round" stroke="#555555" y1="50.76" gorn="0.4.0.0.0.7" fill="none" x2="67.32"/>
       <g id="connector4terminal" y="50.7593" stroke-width="0" x="67.6721" stroke="none" height="0.00144" width="0.01584" fill="none"/>
       <line y2="36.36" id="connector3pin" x1="60.12" stroke-width="0.72" stroke-linecap="round" style="stroke-miterlimit:4;stroke-dasharray:none" stroke="#555555" y1="36.36" gorn="0.4.0.0.0.9" fill="none" x2="67.32"/>
       <g id="connector3terminal" y="36.3593" stroke-width="0" x="67.6868" stroke="none" height="0.00149904" width="0.015899" fill="none"/>
       <line y2="21.96" id="connector1pin" x1="60.12" stroke-width="0.72" stroke-linecap="round" stroke="#555555" y1="21.96" gorn="0.4.0.0.0.11" fill="none" x2="67.32"/>
       <rect y="21.9593" stroke-width="0" x="67.6721" stroke="none" height="0.00144" width="0.01584" gorn="0.4.0.0.0.12" fill="none"/>
       <line y2="-6.24" id="connector2pin" x1="33.7999" stroke-width="0.72" stroke-linecap="round" style="stroke-miterlimit:4;stroke-dasharray:none" stroke="#555555" y1="0.36" gorn="0.4.0.0.0.13" fill="none" x2="33.7999"/>
       <g id="connector2terminal" y="-6.62211" stroke-width="0" x="33.7992" stroke="none" width="0.00149904" height="0.014699" fill="none"/>
       <rect y="-6.62211" stroke-width="0" x="33.8393" stroke="none" height="0.014699" width="0.00149904" gorn="0.4.0.0.0.14" fill="none"/>
       <line y2="79.201" id="connector0pin" x1="33.7999" stroke-width="0.72" stroke-linecap="round" style="stroke-miterlimit:4;stroke-dasharray:none" stroke="#555555" y1="72.6556" gorn="0.4.0.0.0.15" fill="none" x2="33.7999"/>
       <g id="connector0terminal" y="79.5686" stroke-width="0" x="33.7992" stroke="none" height="0.0145899" width="0.00149904" fill="none"/>
      </g>
     </g>
    </g>
   </g>
  </g>
 </g>
 <g partID="855133460">
  <g transform="translate(141.712,22.559)">
   <g id="schematic">
    <rect y="14.85" stroke-width="0.9" stroke-linecap="round" x="14.85" stroke="#000000" width="78.3" height="135.9" class="interior rect" fill="#FFFFFF"/>
    <line y2="28.8" id="connector61pin" x1="93.2499" stroke-width="0.699999" stroke-linecap="round" stroke="#787878" y1="28.8" class="pin" fill="none" x2="107.65"/>
    <text font-size="3.49999" y="29.4999" stroke-width="0" text-anchor="end" font-family="'Droid Sans'" x="91.8499" stroke="none" class="text" fill="#8c8c8c">D0/RX</text>
    <g id="connector61terminal" y="28.4499" stroke-width="0" x="107.65" stroke="none" width="0.699999" height="0.699999" class="terminal" fill="none"/>
    <line y2="36" id="connector62pin" x1="93.2499" stroke-width="0.699999" stroke-linecap="round" stroke="#787878" y1="36" class="pin" fill="none" x2="107.65"/>
    <text font-size="3.49999" y="36.6999" stroke-width="0" text-anchor="end" font-family="'Droid Sans'" x="91.8499" stroke="none" class="text" fill="#8c8c8c">D1/TX</text>
    <g id="connector62terminal" y="35.6499" stroke-width="0" x="107.65" stroke="none" width="0.699999" height="0.699999" class="terminal" fill="none"/>
    <line y2="43.2" id="connector63pin" x1="93.2499" stroke-width="0.699999" stroke-linecap="round" stroke="#787878" y1="43.2" class="pin" fill="none" x2="107.65"/>
    <text font-size="3.49999" y="43.8999" stroke-width="0" text-anchor="end" font-family="'Droid Sans'" x="91.8499" stroke="none" class="text" fill="#8c8c8c">D2</text>
    <g id="connector63terminal" y="42.8499" stroke-width="0" x="107.65" stroke="none" width="0.699999" height="0.699999" class="terminal" fill="none"/>
    <line y2="50.4" id="connector64pin" x1="93.2499" stroke-width="0.699999" stroke-linecap="round" stroke="#787878" y1="50.4" class="pin" fill="none" x2="107.65"/>
    <text font-size="3.49999" y="51.0999" stroke-width="0" text-anchor="end" font-family="'Droid Sans'" x="91.8499" stroke="none" class="text" fill="#8c8c8c">D3 PWM</text>
    <g id="connector64terminal" y="50.0499" stroke-width="0" x="107.65" stroke="none" width="0.699999" height="0.699999" class="terminal" fill="none"/>
    <line y2="57.6" id="connector65pin" x1="93.2499" stroke-width="0.699999" stroke-linecap="round" stroke="#787878" y1="57.6" class="pin" fill="none" x2="107.65"/>
    <text font-size="3.49999" y="58.2999" stroke-width="0" text-anchor="end" font-family="'Droid Sans'" x="91.8499" stroke="none" class="text" fill="#8c8c8c">D4</text>
    <g id="connector65terminal" y="57.2499" stroke-width="0" x="107.65" stroke="none" width="0.699999" height="0.699999" class="terminal" fill="none"/>
    <line y2="64.8" id="connector66pin" x1="93.2499" stroke-width="0.699999" stroke-linecap="round" stroke="#787878" y1="64.8" class="pin" fill="none" x2="107.65"/>
    <text font-size="3.49999" y="65.4999" stroke-width="0" text-anchor="end" font-family="'Droid Sans'" x="91.8499" stroke="none" class="text" fill="#8c8c8c">D5 PWM</text>
    <g id="connector66terminal" y="64.4499" stroke-width="0" x="107.65" stroke="none" width="0.699999" height="0.699999" class="terminal" fill="none"/>
    <line y2="72" id="connector67pin" x1="93.2499" stroke-width="0.699999" stroke-linecap="round" stroke="#787878" y1="72" class="pin" fill="none" x2="107.65"/>
    <text font-size="3.49999" y="72.6999" stroke-width="0" text-anchor="end" font-family="'Droid Sans'" x="91.8499" stroke="none" class="text" fill="#8c8c8c">D6 PWM</text>
    <g id="connector67terminal" y="71.6499" stroke-width="0" x="107.65" stroke="none" width="0.699999" height="0.699999" class="terminal" fill="none"/>
    <line y2="79.2" id="connector68pin" x1="93.2499" stroke-width="0.699999" stroke-linecap="round" stroke="#787878" y1="79.2" class="pin" fill="none" x2="107.65"/>
    <text font-size="3.49999" y="79.8999" stroke-width="0" text-anchor="end" font-family="'Droid Sans'" x="91.8499" stroke="none" class="text" fill="#8c8c8c">D7</text>
    <g id="connector68terminal" y="78.8499" stroke-width="0" x="107.65" stroke="none" width="0.699999" height="0.699999" class="terminal" fill="none"/>
    <line y2="86.4" id="connector51pin" x1="93.2499" stroke-width="0.699999" stroke-linecap="round" stroke="#787878" y1="86.4" class="pin" fill="none" x2="107.65"/>
    <text font-size="3.49999" y="87.0999" stroke-width="0" text-anchor="end" font-family="'Droid Sans'" x="91.8499" stroke="none" class="text" fill="#8c8c8c">D8</text>
    <g id="connector51terminal" y="86.0499" stroke-width="0" x="107.65" stroke="none" width="0.699999" height="0.699999" class="terminal" fill="none"/>
    <line y2="93.6" id="connector52pin" x1="93.2499" stroke-width="0.699999" stroke-linecap="round" stroke="#787878" y1="93.6" class="pin" fill="none" x2="107.65"/>
    <text font-size="3.49999" y="94.2999" stroke-width="0" text-anchor="end" font-family="'Droid Sans'" x="91.8499" stroke="none" class="text" fill="#8c8c8c">D9 PWM</text>
    <g id="connector52terminal" y="93.2499" stroke-width="0" x="107.65" stroke="none" width="0.699999" height="0.699999" class="terminal" fill="none"/>
    <line y2="100.8" id="connector53pin" x1="93.2499" stroke-width="0.699999" stroke-linecap="round" stroke="#787878" y1="100.8" class="pin" fill="none" x2="107.65"/>
    <text font-size="3.49999" y="101.5" stroke-width="0" text-anchor="end" font-family="'Droid Sans'" x="91.8499" stroke="none" class="text" fill="#8c8c8c">D10 PWM/SS</text>
    <g id="connector53terminal" y="100.45" stroke-width="0" x="107.65" stroke="none" width="0.699999" height="0.699999" class="terminal" fill="none"/>
    <line y2="108" id="connector54pin" x1="93.2499" stroke-width="0.699999" stroke-linecap="round" stroke="#787878" y1="108" class="pin" fill="none" x2="107.65"/>
    <text font-size="3.49999" y="108.7" stroke-width="0" text-anchor="end" font-family="'Droid Sans'" x="91.8499" stroke="none" class="text" fill="#8c8c8c">D11 PWM/MOSI</text>
    <g id="connector54terminal" y="107.65" stroke-width="0" x="107.65" stroke="none" width="0.699999" height="0.699999" class="terminal" fill="none"/>
    <line y2="115.2" id="connector55pin" x1="93.2499" stroke-width="0.699999" stroke-linecap="round" stroke="#787878" y1="115.2" class="pin" fill="none" x2="107.65"/>
    <text font-size="3.49999" y="115.9" stroke-width="0" text-anchor="end" font-family="'Droid Sans'" x="91.8499" stroke="none" class="text" fill="#8c8c8c">D12/MISO</text>
    <g id="connector55terminal" y="114.85" stroke-width="0" x="107.65" stroke="none" width="0.699999" height="0.699999" class="terminal" fill="none"/>
    <line y2="122.4" id="connector41pin" x1="93.2499" stroke-width="0" stroke-linecap="round" stroke="none" y1="122.4" class="pin" fill="none" x2="107.65"/>
    <rect id="connector41terminal" y="122.05" stroke-width="0" x="107.65" stroke="none" width="0.699999" height="0.699999" class="terminal" fill="none"/>
    <line y2="122.4" id="connector56pin" x1="93.2499" stroke-width="0.699999" stroke-linecap="round" stroke="#787878" y1="122.4" class="pin" fill="none" x2="107.65"/>
    <text font-size="3.49999" y="123.1" stroke-width="0" text-anchor="end" font-family="'Droid Sans'" x="91.8499" stroke="none" class="text" fill="#8c8c8c">D13/SCK</text>
    <g id="connector56terminal" y="122.05" stroke-width="0" x="107.65" stroke="none" width="0.699999" height="0.699999" class="terminal" fill="none"/>
    <line y2="28.8" id="connector43pin" x1="0.349999" stroke-width="0" stroke-linecap="round" stroke="none" y1="28.8" class="pin" fill="none" x2="14.75"/>
    <rect id="connector43terminal" y="28.4499" stroke-width="0" x="-0.349999" stroke="none" width="0.699999" height="0.699999" class="terminal" fill="none"/>
    <line y2="28.8" id="connector85pin" x1="0.349999" stroke-width="0.699999" stroke-linecap="round" stroke="#787878" y1="28.8" class="pin" fill="none" x2="14.75"/>
    <text font-size="3.49999" y="29.4999" stroke-width="0" text-anchor="start" font-family="'Droid Sans'" x="16.15" stroke="none" class="text" fill="#8c8c8c">RESET</text>
    <g id="connector85terminal" y="28.4499" stroke-width="0" x="-0.349999" stroke="none" width="0.699999" height="0.699999" class="terminal" fill="none"/>
    <line y2="36" id="connector49pin" x1="0.349999" stroke-width="0.699999" stroke-linecap="round" stroke="#787878" y1="36" class="pin" fill="none" x2="14.75"/>
    <text font-size="3.49999" y="36.6999" stroke-width="0" text-anchor="start" font-family="'Droid Sans'" x="16.15" stroke="none" class="text" fill="#8c8c8c">RESET2</text>
    <rect id="connector49terminal" y="35.6499" stroke-width="0" x="-0.349999" stroke="none" width="0.699999" height="0.699999" class="terminal" fill="none"/>
    <line y2="43.2" id="connector58pin" x1="0.349999" stroke-width="0.699999" stroke-linecap="round" stroke="#787878" y1="43.2" class="pin" fill="none" x2="14.75"/>
    <text font-size="3.49999" y="43.8999" stroke-width="0" text-anchor="start" font-family="'Droid Sans'" x="16.15" stroke="none" class="text" fill="#8c8c8c">AREF</text>
    <g id="connector58terminal" y="42.8499" stroke-width="0" x="-0.349999" stroke="none" width="0.699999" height="0.699999" class="terminal" fill="none"/>
    <line y2="50.4" id="connector84pin" x1="0.349999" stroke-width="0.699999" stroke-linecap="round" stroke="#787878" y1="50.4" class="pin" fill="none" x2="14.75"/>
    <text font-size="3.49999" y="51.0999" stroke-width="0" text-anchor="start" font-family="'Droid Sans'" x="16.15" stroke="none" class="text" fill="#8c8c8c">ioref</text>
    <g id="connector84terminal" y="50.0499" stroke-width="0" x="-0.349999" stroke="none" width="0.699999" height="0.699999" class="terminal" fill="none"/>
    <line y2="64.8" id="connector0pin" x1="0.349999" stroke-width="0.699999" stroke-linecap="round" stroke="#787878" y1="64.8" class="pin" fill="none" x2="14.75"/>
    <text font-size="3.49999" y="65.4999" stroke-width="0" text-anchor="start" font-family="'Droid Sans'" x="16.15" stroke="none" class="text" fill="#8c8c8c">A0</text>
    <g id="connector0terminal" y="64.4499" stroke-width="0" x="-0.349999" stroke="none" width="0.699999" height="0.699999" class="terminal" fill="none"/>
    <line y2="72" id="connector1pin" x1="0.349999" stroke-width="0.699999" stroke-linecap="round" stroke="#787878" y1="72" class="pin" fill="none" x2="14.75"/>
    <text font-size="3.49999" y="72.6999" stroke-width="0" text-anchor="start" font-family="'Droid Sans'" x="16.15" stroke="none" class="text" fill="#8c8c8c">A1</text>
    <g id="connector1terminal" y="71.6499" stroke-width="0" x="-0.349999" stroke="none" width="0.699999" height="0.699999" class="terminal" fill="none"/>
    <line y2="79.2" id="connector2pin" x1="0.349999" stroke-width="0.699999" stroke-linecap="round" stroke="#787878" y1="79.2" class="pin" fill="none" x2="14.75"/>
    <text font-size="3.49999" y="79.8999" stroke-width="0" text-anchor="start" font-family="'Droid Sans'" x="16.15" stroke="none" class="text" fill="#8c8c8c">A2</text>
    <g id="connector2terminal" y="78.8499" stroke-width="0" x="-0.349999" stroke="none" width="0.699999" height="0.699999" class="terminal" fill="none"/>
    <line y2="86.4" id="connector3pin" x1="0.349999" stroke-width="0.699999" stroke-linecap="round" stroke="#787878" y1="86.4" class="pin" fill="none" x2="14.75"/>
    <text font-size="3.49999" y="87.0999" stroke-width="0" text-anchor="start" font-family="'Droid Sans'" x="16.15" stroke="none" class="text" fill="#8c8c8c">A3</text>
    <g id="connector3terminal" y="86.0499" stroke-width="0" x="-0.349999" stroke="none" width="0.699999" height="0.699999" class="terminal" fill="none"/>
    <line y2="93.6" id="connector48pin" x1="0.349999" stroke-width="0" stroke-linecap="round" stroke="none" y1="93.6" class="pin" fill="none" x2="14.75"/>
    <rect id="connector48terminal" y="93.2499" stroke-width="0" x="-0.349999" stroke="none" width="0.699999" height="0.699999" class="terminal" fill="none"/>
    <line y2="93.6" id="connector45pin" x1="0.349999" stroke-width="0" stroke-linecap="round" stroke="none" y1="93.6" class="pin" fill="none" x2="14.75"/>
    <rect id="connector45terminal" y="93.2499" stroke-width="0" x="-0.349999" stroke="none" width="0.699999" height="0.699999" class="terminal" fill="none"/>
    <line y2="93.6" id="connector4pin" x1="0.349999" stroke-width="0" stroke-linecap="round" stroke="none" y1="93.6" class="pin" fill="none" x2="14.75"/>
    <g id="connector4terminal" y="93.2499" stroke-width="0" x="-0.349999" stroke="none" width="0.699999" height="0.699999" class="terminal" fill="none"/>
    <line y2="93.6" id="connector39pin" x1="0.349999" stroke-width="0" stroke-linecap="round" stroke="none" y1="93.6" class="pin" fill="none" x2="14.75"/>
    <rect id="connector39terminal" y="93.2499" stroke-width="0" x="-0.349999" stroke="none" width="0.699999" height="0.699999" class="terminal" fill="none"/>
    <line y2="93.6" id="connector47pin" x1="0.349999" stroke-width="0" stroke-linecap="round" stroke="none" y1="93.6" class="pin" fill="none" x2="14.75"/>
    <rect id="connector47terminal" y="93.2499" stroke-width="0" x="-0.349999" stroke="none" width="0.699999" height="0.699999" class="terminal" fill="none"/>
    <line y2="93.6" id="connector42pin" x1="0.349999" stroke-width="0" stroke-linecap="round" stroke="none" y1="93.6" class="pin" fill="none" x2="14.75"/>
    <rect id="connector42terminal" y="93.2499" stroke-width="0" x="-0.349999" stroke="none" width="0.699999" height="0.699999" class="terminal" fill="none"/>
    <line y2="93.6" id="connector59pin" x1="0.349999" stroke-width="0.699999" stroke-linecap="round" stroke="#787878" y1="93.6" class="pin" fill="none" x2="14.75"/>
    <text font-size="3.49999" y="94.2999" stroke-width="0" text-anchor="start" font-family="'Droid Sans'" x="16.15" stroke="none" class="text" fill="#8c8c8c">A4/SDA</text>
    <g id="connector59terminal" y="93.2499" stroke-width="0" x="-0.349999" stroke="none" width="0.699999" height="0.699999" class="terminal" fill="none"/>
    <line y2="100.8" id="connector5pin" x1="0.349999" stroke-width="0" stroke-linecap="round" stroke="none" y1="100.8" class="pin" fill="none" x2="14.75"/>
    <g id="connector5terminal" y="100.45" stroke-width="0" x="-0.349999" stroke="none" width="0.699999" height="0.699999" class="terminal" fill="none"/>
    <line y2="100.8" id="connector60pin" x1="0.349999" stroke-width="0.699999" stroke-linecap="round" stroke="#787878" y1="100.8" class="pin" fill="none" x2="14.75"/>
    <text font-size="3.49999" y="101.5" stroke-width="0" text-anchor="start" font-family="'Droid Sans'" x="16.15" stroke="none" class="text" fill="#8c8c8c">A5/SCL</text>
    <g id="connector60terminal" y="100.45" stroke-width="0" x="-0.349999" stroke="none" width="0.699999" height="0.699999" class="terminal" fill="none"/>
    <line y2="136.8" id="connector91pin" x1="0.349999" stroke-width="0.699999" stroke-linecap="round" stroke="#787878" y1="136.8" class="pin" fill="none" x2="14.75"/>
    <text font-size="3.49999" y="137.5" stroke-width="0" text-anchor="start" font-family="'Droid Sans'" x="16.15" stroke="none" class="text" fill="#8c8c8c">N/C</text>
    <g id="connector91terminal" y="136.45" stroke-width="0" x="-0.349999" stroke="none" width="0.699999" height="0.699999" class="terminal" fill="none"/>
    <line y2="165.25" id="connector88pin" x1="57.6" stroke-width="0" stroke-linecap="round" stroke="none" y1="150.85" class="pin" fill="none" x2="57.6"/>
    <g id="connector88terminal" y="165.25" stroke-width="0" x="57.2499" stroke="none" width="0.699999" height="0.699999" class="terminal" fill="none"/>
    <line y2="165.25" id="connector57pin" x1="57.6" stroke-width="0" stroke-linecap="round" stroke="none" y1="150.85" class="pin" fill="none" x2="57.6"/>
    <g id="connector57terminal" y="165.25" stroke-width="0" x="57.2499" stroke="none" width="0.699999" height="0.699999" class="terminal" fill="none"/>
    <line y2="165.25" id="connector44pin" x1="57.6" stroke-width="0" stroke-linecap="round" stroke="none" y1="150.85" class="pin" fill="none" x2="57.6"/>
    <rect id="connector44terminal" y="165.25" stroke-width="0" x="57.2499" stroke="none" width="0.699999" height="0.699999" class="terminal" fill="none"/>
    <line y2="165.25" id="connector50pin" x1="57.6" stroke-width="0" stroke-linecap="round" stroke="none" y1="150.85" class="pin" fill="none" x2="57.6"/>
    <rect id="connector50terminal" y="165.25" stroke-width="0" x="57.2499" stroke="none" width="0.699999" height="0.699999" class="terminal" fill="none"/>
    <line y2="165.25" id="connector89pin" x1="57.6" stroke-width="0.699999" stroke-linecap="round" stroke="#787878" y1="150.85" class="pin" fill="none" x2="57.6"/>
    <g transform="matrix(1, 0, 0, 1, 58.2999, 149.45)">
     <g>
      <g transform="rotate(270)">
       <g>
        <text font-size="3.49999" y="0" stroke-width="0" text-anchor="start" font-family="'Droid Sans'" x="0" stroke="none" class="text" fill="#8c8c8c">GND</text>
       </g>
      </g>
     </g>
    </g>
    <g id="connector89terminal" y="165.25" stroke-width="0" x="57.2499" stroke="none" width="0.699999" height="0.699999" class="terminal" fill="none"/>
    <line y2="14.75" id="connector86pin" x1="36" stroke-width="0.699999" stroke-linecap="round" stroke="#787878" y1="0.349999" class="pin" fill="none" x2="36"/>
    <g transform="matrix(1, 0, 0, 1, 36.6999, 16.15)">
     <g>
      <g transform="rotate(270)">
       <g>
        <text font-size="3.49999" y="0" stroke-width="0" text-anchor="end" font-family="'Droid Sans'" x="0" stroke="none" class="text" fill="#8c8c8c">3V3</text>
       </g>
      </g>
     </g>
    </g>
    <g id="connector86terminal" y="-0.349999" stroke-width="0" x="35.6499" stroke="none" width="0.699999" height="0.699999" class="terminal" fill="none"/>
    <line y2="14.75" id="connector40pin" x1="50.4" stroke-width="0" stroke-linecap="round" stroke="none" y1="0.349999" class="pin" fill="none" x2="50.4"/>
    <rect id="connector40terminal" y="-0.349999" stroke-width="0" x="50.0499" stroke="none" width="0.699999" height="0.699999" class="terminal" fill="none"/>
    <line y2="14.75" id="connector46pin" x1="50.4" stroke-width="0" stroke-linecap="round" stroke="none" y1="0.349999" class="pin" fill="none" x2="50.4"/>
    <rect id="connector46terminal" y="-0.349999" stroke-width="0" x="50.0499" stroke="none" width="0.699999" height="0.699999" class="terminal" fill="none"/>
    <line y2="14.75" id="connector87pin" x1="50.4" stroke-width="0.699999" stroke-linecap="round" stroke="#787878" y1="0.349999" class="pin" fill="none" x2="50.4"/>
    <g transform="matrix(1, 0, 0, 1, 51.0999, 16.15)">
     <g>
      <g transform="rotate(270)">
       <g>
        <text font-size="3.49999" y="0" stroke-width="0" text-anchor="end" font-family="'Droid Sans'" x="0" stroke="none" class="text" fill="#8c8c8c">5V</text>
       </g>
      </g>
     </g>
    </g>
    <g id="connector87terminal" y="-0.349999" stroke-width="0" x="50.0499" stroke="none" width="0.699999" height="0.699999" class="terminal" fill="none"/>
    <line y2="14.75" id="connector90pin" x1="64.8" stroke-width="0.699999" stroke-linecap="round" stroke="#787878" y1="0.349999" class="pin" fill="none" x2="64.8"/>
    <g transform="matrix(1, 0, 0, 1, 65.4999, 16.15)">
     <g>
      <g transform="rotate(270)">
       <g>
        <text font-size="3.49999" y="0" stroke-width="0" text-anchor="end" font-family="'Droid Sans'" x="0" stroke="none" class="text" fill="#8c8c8c">VIN</text>
       </g>
      </g>
     </g>
    </g>
    <g id="connector90terminal" y="-0.349999" stroke-width="0" x="64.4499" stroke="none" width="0.699999" height="0.699999" class="terminal" fill="none"/>
    <text id="label" font-size="4.25001" y="76.4498" stroke-width="0" text-anchor="middle" font-family="'Droid Sans'" x="54.4501" stroke="none" class="text" fill="#000000">Arduino</text>
    <text id="label" font-size="4.25001" y="80.9833" stroke-width="0" text-anchor="middle" font-family="'Droid Sans'" x="54.4501" stroke="none" class="text" fill="#000000">Uno</text>
    <text id="label" font-size="4.25001" y="85.5167" stroke-width="0" text-anchor="middle" font-family="'Droid Sans'" x="54.4501" stroke="none" class="text" fill="#000000">(Rev3)</text>
   </g>
  </g>
 </g>
 <g partID="855138150">
  <line y2="65.7589" x1="271.364" stroke-width="0.699998" stroke-linecap="round" stroke="#fff800" y1="65.7493" x2="249.712"/>
 </g>
 <g partID="855138090">
  <line y2="65.7493" x1="271.364" stroke-width="0.699998" stroke-linecap="round" stroke="#fff800" y1="108.961" x2="271.364"/>
 </g>
 <g partID="855138100">
  <line y2="108.961" x1="314.454" stroke-width="0.699998" stroke-linecap="round" stroke="#fff800" y1="108.943" x2="271.364"/>
 </g>
 <g partID="855138220">
  <line y2="94.5435" x1="278.565" stroke-width="0.699998" stroke-linecap="round" stroke="#ff7300" y1="94.557" x2="314.439"/>
 </g>
 <g partID="855138280">
  <line y2="94.557" x1="278.565" stroke-width="0.699998" stroke-linecap="round" stroke="#ff7300" y1="72.9512" x2="278.565"/>
 </g>
 <g partID="855138230">
  <line y2="72.9512" x1="249.712" stroke-width="0.699998" stroke-linecap="round" stroke="#ff7300" y1="72.9589" x2="278.566"/>
 </g>
 <g partID="855138600">
  <line y2="1.05097" x1="350.469" stroke-width="0.699998" stroke-linecap="round" stroke="#cc1414" y1="44.1423" x2="350.469"/>
 </g>
 <g partID="855138510">
  <line y2="1.05089" x1="350.469" stroke-width="0.699998" stroke-linecap="round" stroke="#cc1414" y1="1.05089" x2="192.145"/>
 </g>
 <g partID="855138420">
  <line y2="22.5589" x1="192.145" stroke-width="0.699998" stroke-linecap="round" stroke="#cc1414" y1="1.05089" x2="192.112"/>
 </g>
 <circle cy="22.5589" cx="192.112" r="1.44" stroke-width="0" stroke="none" fill="black"/>
 <g partID="855138330">
  <line y2="44.1423" x1="348.334" stroke-width="0.699998" stroke-linecap="round" stroke="#cc1414" y1="51.5687" x2="350.47"/>
 </g>
 <g partID="855138860">
  <line y2="22.5589" x1="192.145" stroke-width="0.699998" stroke-linecap="round" stroke="#cc1414" y1="1.05089" x2="192.112"/>
 </g>
 <circle cy="22.5589" cx="192.112" r="1.44" stroke-width="0" stroke="none" fill="black"/>
 <g partID="855138790">
  <line y2="1.05089" x1="112.741" stroke-width="0.699998" stroke-linecap="round" stroke="#cc1414" y1="1.05089" x2="192.145"/>
 </g>
 <g partID="855138710">
  <line y2="1.05108" x1="112.741" stroke-width="0.699998" stroke-linecap="round" stroke="#cc1414" y1="109.021" x2="112.741"/>
 </g>
 <g partID="855138720">
  <line y2="109.021" x1="91.3118" stroke-width="0.699998" stroke-linecap="round" stroke="#cc1414" y1="108.956" x2="112.741"/>
 </g>
 <g partID="855139200">
  <line y2="188.159" x1="199.29" stroke-width="0.699998" stroke-linecap="round" stroke="#404040" y1="202.689" x2="199.312"/>
 </g>
 <g partID="855139110">
  <line y2="202.689" x1="105.509" stroke-width="0.699998" stroke-linecap="round" stroke="#404040" y1="202.689" x2="199.29"/>
 </g>
 <circle cy="202.689" cx="199.29" r="1.44" stroke-width="0" stroke="none" fill="black"/>
 <g partID="855139020">
  <line y2="202.689" x1="105.509" stroke-width="0.699998" stroke-linecap="round" stroke="#404040" y1="101.759" x2="105.509"/>
 </g>
 <g partID="855138930">
  <line y2="101.759" x1="91.3118" stroke-width="0.699998" stroke-linecap="round" stroke="#404040" y1="101.759" x2="105.509"/>
 </g>
 <g partID="855139370">
  <line y2="123.359" x1="120.228" stroke-width="0.699998" stroke-linecap="round" stroke="#fff800" y1="123.207" x2="141.712"/>
 </g>
 <g partID="855139310">
  <line y2="123.207" x1="120.228" stroke-width="0.699998" stroke-linecap="round" stroke="#fff800" y1="116.057" x2="120.228"/>
 </g>
 <g partID="855139320">
  <line y2="116.057" x1="91.3118" stroke-width="0.699998" stroke-linecap="round" stroke="#fff800" y1="116.158" x2="120.228"/>
 </g>
 <g partID="855139500">
  <line y2="116.159" x1="127.377" stroke-width="0.699998" stroke-linecap="round" stroke="#33ffc5" y1="116.057" x2="141.712"/>
 </g>
 <g partID="855139440">
  <line y2="116.057" x1="113.079" stroke-width="0.699998" stroke-linecap="round" stroke="#33ffc5" y1="123.207" x2="127.377"/>
 </g>
 <g partID="855139450">
  <line y2="123.207" x1="91.3118" stroke-width="0.699998" stroke-linecap="round" stroke="#33ffc5" y1="123.359" x2="113.079"/>
 </g>
 <g partID="855139900">
  <line y2="144.952" x1="350.323" stroke-width="0.699998" stroke-linecap="round" stroke="#404040" y1="202.398" x2="350.323"/>
 </g>
 <g partID="855139970">
  <line y2="137.759" x1="350.323" stroke-width="0.699998" stroke-linecap="round" stroke="#404040" y1="144.952" x2="348.334"/>
 </g>
 <g partID="855139830">
  <line y2="202.398" x1="199.29" stroke-width="0.699998" stroke-linecap="round" stroke="#404040" y1="202.689" x2="350.323"/>
 </g>
 <g id="partLabel" partID="855133280">
  <g transform="translate(76.4252,62.0386)">
   <g id="schematicLabel" font-size="5" font-style="normal" font-weight="normal" font-family="'DroidSans'" stroke="none" fill-opacity="1" fill="#000000">
    <text y="3.75" x="0">OLED1</text>
   </g>
  </g>
 </g>
 <g id="partLabel" partID="855133310">
  <g transform="translate(374.944,46.0149)">
   <g id="schematicLabel" font-size="5" font-style="normal" font-weight="normal" font-family="'DroidSans'" stroke="none" fill-opacity="1" fill="#000000">
    <text y="3.75" x="0">RE1</text>
   </g>
  </g>
 </g>
 <g id="partLabel" partID="855133460">
  <g transform="translate(249.712,16.9589)">
   <g id="schematicLabel" font-size="5" font-style="normal" font-weight="normal" font-family="'DroidSans'" stroke="none" fill-opacity="1" fill="#000000">
    <text y="3.75" x="0">Part1</text>
   </g>
  </g>
 </g>
</svg>
