<?xml version="1.0" encoding="UTF-8"?>
<svg id="uuid-46b2b466-b05c-4625-9483-be08372b156a" data-name="Layer 1" xmlns="http://www.w3.org/2000/svg" width="100.000053mm" height="70.000108mm" viewBox="0 0 283.464722 198.425507">
  <defs>
    <style>
      .uuid-eef58490-f8bb-4df5-86ac-37e66e0b7dd0, .uuid-d78d46bd-bbf0-44d4-b7c9-e033eadc9fe1, .uuid-c19d6bca-7c3d-49d0-ac29-45cc6b21f5af {
        fill: #fff;
      }

      .uuid-d78d46bd-bbf0-44d4-b7c9-e033eadc9fe1 {
        font-size: 7.19562px;
      }

      .uuid-d78d46bd-bbf0-44d4-b7c9-e033eadc9fe1, .uuid-c19d6bca-7c3d-49d0-ac29-45cc6b21f5af {
        font-family: OCRA, OCRA;
        isolation: isolate;
      }

      .uuid-dcbc69e9-573f-4f36-908d-ab1519f3339b {
        stroke-linecap: round;
        stroke-width: 1.728px;
      }

      .uuid-dcbc69e9-573f-4f36-908d-ab1519f3339b, .uuid-61f28483-1a53-4bc0-8ecb-3f4e66f8d477, .uuid-48de9af2-98ff-4fa5-9a1a-7f2c11d3eab2, .uuid-50dc4f40-6a03-4965-9f95-5f27e1a14ed1, .uuid-95e649bd-8616-4d51-9cc8-66d63b0c1470, .uuid-092a8716-455e-4625-ac3a-5fbd3a2be5c6 {
        stroke: #fff;
      }

      .uuid-dcbc69e9-573f-4f36-908d-ab1519f3339b, .uuid-61f28483-1a53-4bc0-8ecb-3f4e66f8d477, .uuid-48de9af2-98ff-4fa5-9a1a-7f2c11d3eab2, .uuid-50dc4f40-6a03-4965-9f95-5f27e1a14ed1, .uuid-092a8716-455e-4625-ac3a-5fbd3a2be5c6 {
        fill: none;
      }

      .uuid-61f28483-1a53-4bc0-8ecb-3f4e66f8d477 {
        stroke-width: 1.44px;
      }

      .uuid-48de9af2-98ff-4fa5-9a1a-7f2c11d3eab2 {
        stroke-width: 1.43999px;
      }

      .uuid-c19d6bca-7c3d-49d0-ac29-45cc6b21f5af {
        font-size: 7.19563px;
      }

      .uuid-50dc4f40-6a03-4965-9f95-5f27e1a14ed1 {
        stroke-width: 1.54231px;
      }

      .uuid-95e649bd-8616-4d51-9cc8-66d63b0c1470 {
        stroke-width: .5px;
      }

      .uuid-092a8716-455e-4625-ac3a-5fbd3a2be5c6 {
        stroke-width: 1.224px;
      }
    </style>
  </defs>
  <g id="uuid-e831f051-baf0-4596-8d3c-4024893f2743" data-name="board">
    <rect id="uuid-df9dc480-8dc1-49dd-bf64-7bc40faa2919" data-name="boardoutline" class="uuid-95e649bd-8616-4d51-9cc8-66d63b0c1470" x=".288" y=".288341" width="282.889002" height="197.848993"/>
  </g>
  <g id="uuid-601e5e31-e83b-44e8-8e49-cad9b75b1660" data-name="copper0">
    <circle id="uuid-147f50b4-03ca-4b05-86cd-338eaad0dd26" data-name="connector0pin" class="uuid-61f28483-1a53-4bc0-8ecb-3f4e66f8d477" cx="98.582002" cy="113.508338" r="2.088"/>
    <circle id="uuid-8ec1641e-b273-40e9-81a0-aaf158138ad3" data-name="connector1pin" class="uuid-61f28483-1a53-4bc0-8ecb-3f4e66f8d477" cx="98.582002" cy="106.308338" r="2.088"/>
  </g>
  <g id="uuid-a57a93ac-86b5-460a-bdaf-2163b174cb6f" data-name="copper0">
    <text id="uuid-c6c93e56-eae1-4a19-9dfe-f3d9fae25997" data-name="label" class="uuid-c19d6bca-7c3d-49d0-ac29-45cc6b21f5af" transform="translate(181.304688 141.847402) rotate(-180) scale(1 -1)"><tspan x="0" y="0">BreakfastBerry</tspan></text>
  </g>
  <g id="uuid-30687596-d741-4235-a91a-8cb62aa695d4" data-name="copper0">
    <text id="uuid-a204dae7-efa9-421d-8fed-d422e9f107ba" data-name="label" class="uuid-d78d46bd-bbf0-44d4-b7c9-e033eadc9fe1" transform="translate(135.314453 154.750402) rotate(-180) scale(1 -1)"><tspan x="0" y="0">v0.15</tspan></text>
  </g>
  <g id="uuid-3ae48c6d-871b-4fe2-b6d6-b5253692da6e" data-name="copper0">
    <rect id="uuid-83d0c77a-aed6-4740-b12e-77a07dccf226" data-name="square" class="uuid-48de9af2-98ff-4fa5-9a1a-7f2c11d3eab2" x="132.492897" y="86.221735" width="4.17499" height="4.171989"/>
    <circle id="uuid-73a94b66-3262-4153-b0bb-85336075d918" data-name="connector8pin" class="uuid-61f28483-1a53-4bc0-8ecb-3f4e66f8d477" cx="156.184795" cy="88.307725" r="2.08899"/>
    <circle id="uuid-1693d1d0-334d-44ff-b513-ef5a59cbe046" data-name="connector7pin" class="uuid-48de9af2-98ff-4fa5-9a1a-7f2c11d3eab2" cx="148.984795" cy="88.308725" r="2.08799"/>
    <circle id="uuid-b134e55a-b734-4501-9add-8b8565a8998b" data-name="connector5pin" class="uuid-48de9af2-98ff-4fa5-9a1a-7f2c11d3eab2" cx="141.782898" cy="88.308725" r="2.08799"/>
    <circle id="uuid-a4d4722b-2e11-4320-8591-cd9c17300ec5" data-name="connector4pin" class="uuid-48de9af2-98ff-4fa5-9a1a-7f2c11d3eab2" cx="134.579897" cy="88.308725" r="2.08799"/>
  </g>
  <g id="uuid-68555d10-98b2-40f9-a511-30cc9b44fe96" data-name="copper0">
    <g id="uuid-dce911b6-3f88-4627-b8c6-fce556e604c4" data-name="copper1">
      <circle id="uuid-abe03af2-67c3-45a6-9884-a0ef47398ef5" data-name="connector0pin" class="uuid-61f28483-1a53-4bc0-8ecb-3f4e66f8d477" cx="17.5824" cy="104.50834" r="1.98"/>
      <circle id="uuid-12386c37-4107-4316-9a5b-6451c1a05cca" data-name="connector1pin" class="uuid-61f28483-1a53-4bc0-8ecb-3f4e66f8d477" cx="17.5824" cy="133.30834" r="1.98"/>
    </g>
  </g>
  <g id="uuid-17d3a122-12a8-4a59-a614-881f8474df27" data-name="copper0">
    <g id="uuid-b217d631-1d2e-4b6e-942c-393862856719" data-name="copper1">
      <circle id="uuid-d581d81d-25c6-4efc-993d-656b0c479b88" data-name="connector0pin" class="uuid-61f28483-1a53-4bc0-8ecb-3f4e66f8d477" cx="28.382399" cy="104.50834" r="1.98"/>
      <circle id="uuid-648694a9-a877-495d-8d87-8aa4926e828e" data-name="connector1pin" class="uuid-61f28483-1a53-4bc0-8ecb-3f4e66f8d477" cx="28.382399" cy="133.30834" r="1.98"/>
    </g>
  </g>
  <g id="uuid-85813663-fc6d-4760-b8af-8502f16941b6" data-name="copper0">
    <g>
      <rect id="uuid-229a6b70-d749-453b-8aff-9a30c5415fba" data-name="connector0pad" class="uuid-eef58490-f8bb-4df5-86ac-37e66e0b7dd0" x="14.889841" y="95.04058" width="5.38583" height="4.53543"/>
      <rect id="uuid-b44728a0-ff99-4ae6-89ea-bc400ce8c378" data-name="connector1pad" class="uuid-eef58490-f8bb-4df5-86ac-37e66e0b7dd0" x="14.889841" y="86.253179" width="5.38583" height="4.53543"/>
    </g>
  </g>
  <g id="uuid-813381d3-4e85-46e5-b494-b8c32e9791c9" data-name="copper0">
    <g>
      <rect id="uuid-88c622e0-9401-43f2-9e45-28163708d539" data-name="connector0pad" class="uuid-eef58490-f8bb-4df5-86ac-37e66e0b7dd0" x="25.68984" y="95.04058" width="5.38583" height="4.53543"/>
      <rect id="uuid-90703626-09cb-44ac-a2b0-b812a872d715" data-name="connector1pad" class="uuid-eef58490-f8bb-4df5-86ac-37e66e0b7dd0" x="25.68984" y="86.253179" width="5.38583" height="4.53543"/>
    </g>
  </g>
  <g id="uuid-f31391c7-5d2c-482d-aadb-63976b10a23a" data-name="copper0">
    <g id="uuid-e6334526-8250-49ce-8f33-d5b21fb50210" data-name="copper1">
      <circle id="uuid-8cb446cd-df10-41e3-8b29-60796d767b3d" data-name="connector0pin" class="uuid-61f28483-1a53-4bc0-8ecb-3f4e66f8d477" cx="17.5824" cy="147.708338" r="1.8"/>
      <circle id="uuid-f0ddf12a-02e2-4219-8e79-52a4d738b96c" data-name="connector1pin" class="uuid-61f28483-1a53-4bc0-8ecb-3f4e66f8d477" cx="17.5824" cy="140.495039" r="1.8"/>
    </g>
  </g>
  <g id="uuid-df11854b-a2e8-4cee-aaf8-2f9040356ee0" data-name="copper0">
    <g id="uuid-8384b97d-11fc-43eb-90c9-1b86642655e3" data-name="copper1">
      <circle id="uuid-c6a9adeb-4d56-4ffe-9d2c-93bee31135ad" data-name="connector0pin" class="uuid-61f28483-1a53-4bc0-8ecb-3f4e66f8d477" cx="28.3824" cy="147.708338" r="1.8"/>
      <circle id="uuid-99a112d7-2251-4dc2-8a95-c2b0dacf40ba" data-name="connector1pin" class="uuid-61f28483-1a53-4bc0-8ecb-3f4e66f8d477" cx="28.3824" cy="140.495039" r="1.8"/>
    </g>
  </g>
  <g id="uuid-d754780f-090d-430c-8388-7e65748971f5" data-name="copper0">
    <circle id="uuid-4ab19b48-f9b6-49d6-9550-c6609907bb94" data-name="connector0pad" class="uuid-61f28483-1a53-4bc0-8ecb-3f4e66f8d477" cx="53.582398" cy="104.508338" r="1.98"/>
    <circle id="uuid-f2f97fb8-1c94-4a84-8bdb-7b87c65913f1" data-name="connector1pad" class="uuid-61f28483-1a53-4bc0-8ecb-3f4e66f8d477" cx="73.682398" cy="104.695838" r="1.98"/>
  </g>
  <g id="uuid-5bf70961-b715-4474-a85f-fb457c9cde22" data-name="copper0">
    <g id="uuid-9d3f1f0d-003d-494c-9672-105336e231bc" data-name="copper1">
      <g>
        <path class="uuid-eef58490-f8bb-4df5-86ac-37e66e0b7dd0" d="m224.582096,184.108144c-1.099998,0-2.099998-.900002-2.099998-2.099991s.900002-2.099991,2.099998-2.099991,2.099998.900002,2.099998,2.099991-.999996,2.099991-2.099998,2.099991Z"/>
        <path id="uuid-06503bc6-7b5c-41ed-b1af-2638e0722503" data-name="connector0pin" class="uuid-eef58490-f8bb-4df5-86ac-37e66e0b7dd0" d="m224.582096,180.608144c.700001,0,1.299999.599998,1.299999,1.300003s-.600002,1.300003-1.299999,1.300003-1.299999-.500008-1.299999-1.200005.600002-1.400002,1.299999-1.400002m0-1.5c-1.599998,0-2.800011,1.300003-2.800011,2.799988s1.299999,2.799988,2.800011,2.799988,2.800011-1.300003,2.800011-2.799988-1.200008-2.799988-2.800011-2.799988h0Z"/>
      </g>
      <g>
        <path class="uuid-eef58490-f8bb-4df5-86ac-37e66e0b7dd0" d="m244.382099,184.108144c-1.099998,0-2.099998-.900002-2.099998-2.099991s.900002-2.099991,2.099998-2.099991,2.099998.900002,2.099998,2.099991-.900002,2.099991-2.099998,2.099991Z"/>
        <path id="uuid-63c8e386-da85-4dcc-a2d2-299205053ff0" data-name="connector2pin" class="uuid-eef58490-f8bb-4df5-86ac-37e66e0b7dd0" d="m244.382099,180.608144c.700001,0,1.299999.599998,1.299999,1.300003s-.600002,1.300003-1.299999,1.300003-1.299999-.599998-1.299999-1.300003.599998-1.300003,1.299999-1.300003m0-1.5c-1.599998,0-2.800011,1.300003-2.800011,2.799988s1.299999,2.799988,2.800011,2.799988c1.599998,0,2.800011-1.300003,2.800011-2.799988s-1.200012-2.799988-2.800011-2.799988h0Z"/>
      </g>
      <g>
        <path class="uuid-eef58490-f8bb-4df5-86ac-37e66e0b7dd0" d="m227.582096,95.808333c-1.099998,0-2.099998-.899998-2.099998-2.09999s.900002-2.09999,2.099998-2.09999,2.099998.899998,2.099998,2.09999-.999996,2.09999-2.099998,2.09999Z"/>
        <path id="uuid-acffccdb-c4a0-48c1-b26f-e9417ede944b" data-name="connector1pin" class="uuid-eef58490-f8bb-4df5-86ac-37e66e0b7dd0" d="m227.582096,92.408343c.700001,0,1.299999.599998,1.299999,1.3s-.599998,1.39999-1.299999,1.39999-1.299999-.6-1.299999-1.4.600002-1.29999,1.299999-1.29999m0-1.500001c-1.599998,0-2.800011,1.3-2.800011,2.79999s1.200012,2.899991,2.800011,2.899991,2.800011-1.3,2.800011-2.79999-1.200008-2.899991-2.800011-2.899991h0Z"/>
      </g>
      <g>
        <path class="uuid-eef58490-f8bb-4df5-86ac-37e66e0b7dd0" d="m275.182198,146.008241c-1.699997,0-3.000008-1.400002-3.000008-2.999989v-7.099979c0-1.700001,1.400002-2.999989,3.000008-2.999989,1.699997,0,3.000008,1.400002,3.000008,2.999989v7.099979c-.000008,1.699989-1.300011,2.999989-3.000008,2.999989Z"/>
        <path class="uuid-eef58490-f8bb-4df5-86ac-37e66e0b7dd0" d="m275.182198,133.408243c1.400002,0,2.5,1.099998,2.5,2.499989v7.099979c0,1.400002-1.099998,2.499989-2.5,2.499989s-2.5-1.099998-2.5-2.499989v-7.099979c-.100098-1.39999,1.099998-2.499989,2.5-2.499989m0-1h0c-2,0-3.500008,1.599998-3.500008,3.499989v7.099979c0,1.999989,1.599998,3.499989,3.500008,3.499989h0c2,0,3.500008-1.599998,3.500008-3.499989v-7.099979c-.000008-1.999989-1.600006-3.499989-3.500008-3.499989h0Z"/>
      </g>
      <g>
        <path class="uuid-eef58490-f8bb-4df5-86ac-37e66e0b7dd0" d="m193.782008,146.008241c-1.7,0-3.00001-1.400002-3.00001-2.999989v-7.099979c0-1.700001,1.4-2.999989,3.00001-2.999989,1.7,0,3.00001,1.400002,3.00001,2.999989v7.099979c.09999,1.699989-1.30001,2.999989-3.00001,2.999989Z"/>
        <path class="uuid-eef58490-f8bb-4df5-86ac-37e66e0b7dd0" d="m193.782008,133.408243c1.4,0,2.5,1.099998,2.5,2.499989v7.099979c0,1.400002-1.1,2.499989-2.5,2.499989s-2.50001-1.099957-2.50001-2.499958v-7.099979c0-1.400021,1.1-2.500019,2.50001-2.500019m0-1c-2,0-3.50001,1.599998-3.50001,3.499989v7.099979c0,1.999989,1.6,3.499989,3.50001,3.499989,2,0,3.50001-1.599998,3.50001-3.499989v-7.099979c.09999-1.999989-1.50001-3.499989-3.50001-3.499989h0Z"/>
      </g>
    </g>
  </g>
  <g id="uuid-692d6c80-cbd3-4577-93f0-3cf5f4c2eb91" data-name="copper0">
    <circle id="uuid-9c5fcc27-bac6-4777-84c9-f6bb566a44e7" data-name="connector38pad" class="uuid-092a8716-455e-4625-ac3a-5fbd3a2be5c6" cx="85.982399" cy="99.10834" r="2.051999"/>
    <circle id="uuid-5817b29e-f1c7-4ad3-8277-bef9e3ff334f" data-name="connector37pad" class="uuid-092a8716-455e-4625-ac3a-5fbd3a2be5c6" cx="85.982399" cy="106.30834" r="2.051999"/>
    <circle id="uuid-05108305-3910-46f2-9afa-edd3cb65511c" data-name="connector36pad" class="uuid-092a8716-455e-4625-ac3a-5fbd3a2be5c6" cx="85.982399" cy="113.50834" r="2.051999"/>
    <circle id="uuid-7bd50cfd-adfd-4bb4-a6f4-5c14e99e80ed" data-name="connector35pad" class="uuid-092a8716-455e-4625-ac3a-5fbd3a2be5c6" cx="85.982399" cy="120.708342" r="2.052"/>
    <circle id="uuid-8fdea0c1-2fbb-4bd4-9b32-a96281973149" data-name="connector34pad" class="uuid-092a8716-455e-4625-ac3a-5fbd3a2be5c6" cx="85.982399" cy="127.908338" r="2.052"/>
    <circle id="uuid-55302990-da3b-493d-9319-fb0a22c834c3" data-name="connector33pad" class="uuid-092a8716-455e-4625-ac3a-5fbd3a2be5c6" cx="85.982399" cy="135.108339" r="2.051998"/>
    <circle id="uuid-22ba7bed-f528-48e4-bb3e-98c20a81eff0" data-name="connector32pad" class="uuid-092a8716-455e-4625-ac3a-5fbd3a2be5c6" cx="85.982399" cy="142.30834" r="2.052"/>
    <circle id="uuid-2e5fc3a7-d2e3-4c20-83a2-2ab448abb98f" data-name="connector31pad" class="uuid-092a8716-455e-4625-ac3a-5fbd3a2be5c6" cx="85.982399" cy="149.50834" r="2.051998"/>
    <circle id="uuid-1b503b26-729f-4e94-b23a-f9211a20d28b" data-name="connector30pad" class="uuid-092a8716-455e-4625-ac3a-5fbd3a2be5c6" cx="85.982399" cy="156.708341" r="2.052"/>
    <circle id="uuid-2e2eb677-2f6f-492a-9582-cc8c5db9e0be" data-name="connector29pad" class="uuid-092a8716-455e-4625-ac3a-5fbd3a2be5c6" cx="85.982399" cy="163.908338" r="2.052"/>
    <circle id="uuid-53104f6b-7c8a-43d7-a8a8-9009c8d83b1d" data-name="connector28pad" class="uuid-092a8716-455e-4625-ac3a-5fbd3a2be5c6" cx="85.982399" cy="171.108343" r="2.052"/>
    <circle id="uuid-c8a2ecf6-55a9-4f39-8000-ce5e07d2a366" data-name="connector27pad" class="uuid-092a8716-455e-4625-ac3a-5fbd3a2be5c6" cx="85.982399" cy="178.30834" r="2.052"/>
    <circle id="uuid-5da31f13-7163-4bba-8eb1-2b32bebc4fcf" data-name="connector26pad" class="uuid-092a8716-455e-4625-ac3a-5fbd3a2be5c6" cx="42.7824" cy="178.30834" r="2.052001"/>
    <circle id="uuid-4b43f674-2069-46ec-9507-b88f1b86b234" data-name="connector25pad" class="uuid-092a8716-455e-4625-ac3a-5fbd3a2be5c6" cx="42.7824" cy="171.108343" r="2.052001"/>
    <circle id="uuid-de07bf31-6ead-4b57-a69e-ed2e8da88294" data-name="connector23pad" class="uuid-092a8716-455e-4625-ac3a-5fbd3a2be5c6" cx="42.7824" cy="163.908338" r="2.052001"/>
    <circle id="uuid-210d7f82-a3dc-4adf-9df7-26bf455e90e7" data-name="connector22pad" class="uuid-092a8716-455e-4625-ac3a-5fbd3a2be5c6" cx="42.7824" cy="156.708341" r="2.052001"/>
    <circle id="uuid-ddd313f6-4e0b-40b1-88bd-ab677b0e9aeb" data-name="connector21pad" class="uuid-092a8716-455e-4625-ac3a-5fbd3a2be5c6" cx="42.7824" cy="149.50834" r="2.051999"/>
    <circle id="uuid-e16c78db-e561-42a2-9606-6065562b610e" data-name="connector20pad" class="uuid-092a8716-455e-4625-ac3a-5fbd3a2be5c6" cx="42.7824" cy="142.30834" r="2.052001"/>
    <circle id="uuid-f67ca019-e1fd-45c6-9b71-6b436be4e92e" data-name="connector19pad" class="uuid-092a8716-455e-4625-ac3a-5fbd3a2be5c6" cx="42.7824" cy="135.108339" r="2.051999"/>
    <circle id="uuid-3f1e1694-43e7-4968-bc3d-7f0d3923d93d" data-name="connector18pad" class="uuid-092a8716-455e-4625-ac3a-5fbd3a2be5c6" cx="42.7824" cy="127.908338" r="2.052001"/>
    <circle id="uuid-dd69a461-3fab-4942-b68c-938c22bc7650" data-name="connector17pad" class="uuid-092a8716-455e-4625-ac3a-5fbd3a2be5c6" cx="42.7824" cy="120.708342" r="2.052001"/>
    <circle id="uuid-223c8f50-eccb-42bd-8796-5ab664cdc5da" data-name="connector16pad" class="uuid-092a8716-455e-4625-ac3a-5fbd3a2be5c6" cx="42.7824" cy="113.50834" r="2.052"/>
    <circle id="uuid-24102518-8988-4afc-aaaf-4bd04aa1d6e3" data-name="connector15pad" class="uuid-092a8716-455e-4625-ac3a-5fbd3a2be5c6" cx="42.7824" cy="106.30834" r="2.052"/>
    <circle id="uuid-44c31129-2fdb-45c0-b530-08ebd2a24cb7" data-name="connector0pad" class="uuid-092a8716-455e-4625-ac3a-5fbd3a2be5c6" cx="42.7824" cy="99.10834" r="2.052"/>
    <rect id="uuid-69cf4e89-4535-420a-916f-b5cd32825930" data-name="connector14pad" class="uuid-50dc4f40-6a03-4965-9f95-5f27e1a14ed1" x="40.88956" y="97.21549" width="3.78569" height="3.78569"/>
  </g>
  <g id="uuid-ed1bb1b5-207b-42f2-bf6f-a63fbbd9e115" data-name="copper0">
    <g>
      <rect id="uuid-9b9eb758-0376-41de-8f7e-1379f968c707" data-name="connector0pad" class="uuid-eef58490-f8bb-4df5-86ac-37e66e0b7dd0" x="62.114631" y="118.015585" width="4.53543" height="5.38583"/>
      <rect id="uuid-62d0f9b3-86d6-46bd-9f61-4cf501eeb8ff" data-name="connector1pad" class="uuid-eef58490-f8bb-4df5-86ac-37e66e0b7dd0" x="70.902032" y="118.015585" width="4.53543" height="5.38583"/>
    </g>
  </g>
  <g id="uuid-f7e93417-a4f9-4e01-a1e4-aa87b140cac9" data-name="copper0">
    <g>
      <rect id="uuid-a8493fb8-8d7d-47cd-95ad-8621095bdea7" data-name="connector0pad" class="uuid-eef58490-f8bb-4df5-86ac-37e66e0b7dd0" x="62.114631" y="141.415578" width="4.53543" height="5.38583"/>
      <rect id="uuid-c3c21f25-66bd-4322-bf93-daac77ceed0c" data-name="connector1pad" class="uuid-eef58490-f8bb-4df5-86ac-37e66e0b7dd0" x="70.902032" y="141.415578" width="4.53543" height="5.38583"/>
    </g>
  </g>
  <g id="uuid-b72d6336-79bd-4a0c-9fc2-82272d1eaa7a" data-name="copper0">
    <circle id="uuid-cc37bb20-236d-4f6e-8a69-32fff15e96a5" data-name="connector0pad" class="uuid-61f28483-1a53-4bc0-8ecb-3f4e66f8d477" cx="177.782206" cy="180.264743" r="1.98"/>
    <circle id="uuid-78a3f1f9-fa2f-46c6-a1fe-3efc85af0215" data-name="connector1pad" class="uuid-61f28483-1a53-4bc0-8ecb-3f4e66f8d477" cx="159.356645" cy="180.264743" r="1.98"/>
    <circle id="uuid-f482499d-85c4-4b32-af35-83fe6ce03412" data-name="connector2pad" class="uuid-61f28483-1a53-4bc0-8ecb-3f4e66f8d477" cx="177.782206" cy="167.508504" r="1.98"/>
    <circle id="uuid-83d2a1c4-efcb-4ac9-8b15-3c4a3ebfa28c" data-name="connector3pad" class="uuid-61f28483-1a53-4bc0-8ecb-3f4e66f8d477" cx="159.356645" cy="167.508504" r="1.98"/>
  </g>
  <g id="uuid-5acab701-e1e9-47e2-adc3-045ef8b6160b" data-name="copper0">
    <g>
      <rect id="uuid-dcaaeb8c-02ca-4800-945d-56aafb0f73af" data-name="connector0pad" class="uuid-eef58490-f8bb-4df5-86ac-37e66e0b7dd0" x="95.890244" y="165.240684" width="5.38583" height="4.53543"/>
      <rect id="uuid-8c763675-dec4-4a89-a265-37ff8f01d67a" data-name="connector1pad" class="uuid-eef58490-f8bb-4df5-86ac-37e66e0b7dd0" x="95.890244" y="156.453283" width="5.38583" height="4.53543"/>
    </g>
  </g>
  <g id="uuid-7a5b2fec-1bbb-41ac-871a-30b740832ecc" data-name="copper0">
    <g id="uuid-adc2d65f-e9b6-4328-b67b-cffe8b8b3629" data-name="copper1">
      <circle id="uuid-5458cbcb-e375-4737-92e5-fa3ceb632dd2" data-name="connector0pin" class="uuid-61f28483-1a53-4bc0-8ecb-3f4e66f8d477" cx="98.581998" cy="140.508347" r="1.8"/>
      <circle id="uuid-c27f4a0a-f51e-4ab2-b4c2-1d8e89c34ad9" data-name="connector1pin" class="uuid-61f28483-1a53-4bc0-8ecb-3f4e66f8d477" cx="98.581998" cy="147.721647" r="1.8"/>
    </g>
  </g>
  <g id="uuid-85526f77-b0e5-4b55-86f9-344c5a5fef93" data-name="copper0">
    <circle id="uuid-a240e284-6869-4453-ad8e-4847e684e895" data-name="connector0pad" class="uuid-61f28483-1a53-4bc0-8ecb-3f4e66f8d477" cx="67.5314" cy="134.036939" r="1.98"/>
    <circle id="uuid-6e8882a9-ea59-4960-9679-53c9f49c3b21" data-name="connector1pad" class="uuid-61f28483-1a53-4bc0-8ecb-3f4e66f8d477" cx="67.53171" cy="111.033339" r="1.98"/>
  </g>
  <line class="uuid-dcbc69e9-573f-4f36-908d-ab1519f3339b" x1="105.814003" y1="145.900335" x2="100.089996" y2="141.632345"/>
  <line class="uuid-dcbc69e9-573f-4f36-908d-ab1519f3339b" x1="105.718002" y1="156.794347" x2="105.814003" y2="145.900335"/>
  <line class="uuid-dcbc69e9-573f-4f36-908d-ab1519f3339b" x1="109.393997" y1="160.277334" x2="105.718002" y2="156.794347"/>
  <line class="uuid-dcbc69e9-573f-4f36-908d-ab1519f3339b" x1="163.300003" y1="180.146337" x2="166.981003" y2="176.465337"/>
  <line class="uuid-dcbc69e9-573f-4f36-908d-ab1519f3339b" x1="166.981003" y1="163.950338" x2="163.300003" y2="160.269338"/>
  <line class="uuid-dcbc69e9-573f-4f36-908d-ab1519f3339b" x1="163.300003" y1="160.269338" x2="109.393997" y2="160.277334"/>
  <line class="uuid-dcbc69e9-573f-4f36-908d-ab1519f3339b" x1="166.981003" y1="176.465337" x2="166.981003" y2="163.949346"/>
  <line class="uuid-dcbc69e9-573f-4f36-908d-ab1519f3339b" x1="161.416" y1="180.202337" x2="163.300003" y2="180.146337"/>
  <line class="uuid-dcbc69e9-573f-4f36-908d-ab1519f3339b" x1="98.582703" y1="156.853338" x2="98.582497" y2="149.601339"/>
  <line class="uuid-dcbc69e9-573f-4f36-908d-ab1519f3339b" x1="96.414398" y1="113.508344" x2="88.222397" y2="113.508344"/>
  <line class="uuid-dcbc69e9-573f-4f36-908d-ab1519f3339b" x1="88.222397" y1="106.30834" x2="96.414398" y2="106.30834"/>
  <line class="uuid-dcbc69e9-573f-4f36-908d-ab1519f3339b" x1="102.193001" y1="106.331342" x2="100.75" y2="106.32234"/>
  <line class="uuid-dcbc69e9-573f-4f36-908d-ab1519f3339b" x1="105.867996" y1="110.006338" x2="102.193001" y2="106.331342"/>
  <line class="uuid-dcbc69e9-573f-4f36-908d-ab1519f3339b" x1="105.867996" y1="117.111341" x2="105.867996" y2="110.006338"/>
  <line class="uuid-dcbc69e9-573f-4f36-908d-ab1519f3339b" x1="98.559402" y1="124.292341" x2="105.867996" y2="117.111341"/>
  <line class="uuid-dcbc69e9-573f-4f36-908d-ab1519f3339b" x1="98.579697" y1="138.628347" x2="98.559402" y2="124.292341"/>
  <line class="uuid-dcbc69e9-573f-4f36-908d-ab1519f3339b" x1="98.616203" y1="91.878538" x2="98.587502" y2="104.14034"/>
  <line class="uuid-dcbc69e9-573f-4f36-908d-ab1519f3339b" x1="102.188004" y1="88.305738" x2="98.616203" y2="91.878538"/>
  <line class="uuid-dcbc69e9-573f-4f36-908d-ab1519f3339b" x1="132.410995" y1="88.308141" x2="102.188004" y2="88.305738"/>
  <line class="uuid-dcbc69e9-573f-4f36-908d-ab1519f3339b" x1="76.9104" y1="83.006742" x2="138.220993" y2="83.006742"/>
  <line class="uuid-dcbc69e9-573f-4f36-908d-ab1519f3339b" x1="73.491203" y1="86.425939" x2="76.910004" y2="83.007139"/>
  <line class="uuid-dcbc69e9-573f-4f36-908d-ab1519f3339b" x1="138.220993" y1="83.006742" x2="140.574005" y2="86.508642"/>
  <line class="uuid-dcbc69e9-573f-4f36-908d-ab1519f3339b" x1="73.660896" y1="102.635343" x2="73.491302" y2="86.425344"/>
  <line class="uuid-dcbc69e9-573f-4f36-908d-ab1519f3339b" x1="156.225998" y1="83.006742" x2="156.201996" y2="86.138242"/>
  <line class="uuid-dcbc69e9-573f-4f36-908d-ab1519f3339b" x1="148.932999" y1="75.71314" x2="156.225998" y2="83.006544"/>
  <line class="uuid-dcbc69e9-573f-4f36-908d-ab1519f3339b" x1="73.484001" y1="75.606741" x2="148.932999" y2="75.713743"/>
  <line class="uuid-dcbc69e9-573f-4f36-908d-ab1519f3339b" x1="64.404198" y1="84.686437" x2="73.484001" y2="75.606741"/>
  <line class="uuid-dcbc69e9-573f-4f36-908d-ab1519f3339b" x1="64.399498" y1="100.963338" x2="64.404198" y2="84.686437"/>
  <line class="uuid-dcbc69e9-573f-4f36-908d-ab1519f3339b" x1="60.787601" y1="106.275343" x2="64.399498" y2="100.963338"/>
  <line class="uuid-dcbc69e9-573f-4f36-908d-ab1519f3339b" x1="60.787601" y1="113.499342" x2="60.787601" y2="106.275343"/>
  <line class="uuid-dcbc69e9-573f-4f36-908d-ab1519f3339b" x1="64.399498" y1="117.111341" x2="60.787601" y2="113.499342"/>
  <line class="uuid-dcbc69e9-573f-4f36-908d-ab1519f3339b" x1="64.393303" y1="118.415342" x2="64.399498" y2="117.111341"/>
  <line class="uuid-dcbc69e9-573f-4f36-908d-ab1519f3339b" x1="75.202301" y1="79.287542" x2="68.223801" y2="86.303739"/>
  <line class="uuid-dcbc69e9-573f-4f36-908d-ab1519f3339b" x1="64.399498" y1="138.782339" x2="64.389801" y2="141.815343"/>
  <line class="uuid-dcbc69e9-573f-4f36-908d-ab1519f3339b" x1="66.396599" y1="135.756338" x2="64.399498" y2="138.782339"/>
  <line class="uuid-dcbc69e9-573f-4f36-908d-ab1519f3339b" x1="145.386002" y1="79.287542" x2="75.202301" y2="79.287542"/>
  <line class="uuid-dcbc69e9-573f-4f36-908d-ab1519f3339b" x1="149.067001" y1="82.968343" x2="145.386002" y2="79.287344"/>
  <line class="uuid-dcbc69e9-573f-4f36-908d-ab1519f3339b" x1="149.018005" y1="86.140638" x2="149.067001" y2="82.968443"/>
  <line class="uuid-dcbc69e9-573f-4f36-908d-ab1519f3339b" x1="138.018005" y1="93.839544" x2="135.723999" y2="90.149442"/>
  <line class="uuid-dcbc69e9-573f-4f36-908d-ab1519f3339b" x1="224.481995" y1="93.761541" x2="138.018005" y2="93.839742"/>
  <line class="uuid-dcbc69e9-573f-4f36-908d-ab1519f3339b" x1="19.875601" y1="88.521139" x2="26.0898" y2="88.521139"/>
  <line class="uuid-dcbc69e9-573f-4f36-908d-ab1519f3339b" x1="17.5826" y1="99.176038" x2="17.5825" y2="102.448339"/>
  <line class="uuid-dcbc69e9-573f-4f36-908d-ab1519f3339b" x1="28.3825" y1="102.448339" x2="28.382601" y2="99.176038"/>
  <line class="uuid-dcbc69e9-573f-4f36-908d-ab1519f3339b" x1="22.9445" y1="117.137342" x2="28.3985" y2="111.68334"/>
  <line class="uuid-dcbc69e9-573f-4f36-908d-ab1519f3339b" x1="28.3985" y1="111.68334" x2="28.386999" y2="106.568342"/>
  <line class="uuid-dcbc69e9-573f-4f36-908d-ab1519f3339b" x1="15.8128" y1="117.137342" x2="22.9445" y2="117.137342"/>
  <line class="uuid-dcbc69e9-573f-4f36-908d-ab1519f3339b" x1="39.262402" y1="183.664343" x2="35.695999" y2="180.098348"/>
  <line class="uuid-dcbc69e9-573f-4f36-908d-ab1519f3339b" x1="35.695999" y1="180.098348" x2="35.695999" y2="162.010336"/>
  <line class="uuid-dcbc69e9-573f-4f36-908d-ab1519f3339b" x1="35.695999" y1="162.010336" x2="30.091499" y2="156.661337"/>
  <line class="uuid-dcbc69e9-573f-4f36-908d-ab1519f3339b" x1="30.091499" y1="156.661337" x2="15.8056" y2="156.693334"/>
  <line class="uuid-dcbc69e9-573f-4f36-908d-ab1519f3339b" x1="69.854401" y1="183.624334" x2="39.262402" y2="183.664343"/>
  <line class="uuid-dcbc69e9-573f-4f36-908d-ab1519f3339b" x1="73.348801" y1="187.325338" x2="69.854401" y2="183.624334"/>
  <line class="uuid-dcbc69e9-573f-4f36-908d-ab1519f3339b" x1="15.8056" y1="156.693334" x2="12.1496" y2="153.038335"/>
  <line class="uuid-dcbc69e9-573f-4f36-908d-ab1519f3339b" x1="12.1496" y1="120.721342" x2="15.813" y2="117.137342"/>
  <line class="uuid-dcbc69e9-573f-4f36-908d-ab1519f3339b" x1="215.634003" y1="187.227346" x2="73.348801" y2="187.325338"/>
  <line class="uuid-dcbc69e9-573f-4f36-908d-ab1519f3339b" x1="12.1496" y1="153.038335" x2="12.1496" y2="120.721342"/>
  <line class="uuid-dcbc69e9-573f-4f36-908d-ab1519f3339b" x1="221.917999" y1="183.492345" x2="215.634003" y2="187.227346"/>
  <line class="uuid-dcbc69e9-573f-4f36-908d-ab1519f3339b" x1="17.582399" y1="138.615347" x2="17.582399" y2="135.368337"/>
  <line class="uuid-dcbc69e9-573f-4f36-908d-ab1519f3339b" x1="28.382401" y1="135.368337" x2="28.382401" y2="138.615347"/>
  <line class="uuid-dcbc69e9-573f-4f36-908d-ab1519f3339b" x1="19.4624" y1="147.708334" x2="26.502399" y2="147.708334"/>
  <line class="uuid-dcbc69e9-573f-4f36-908d-ab1519f3339b" x1="33.867699" y1="147.715337" x2="30.2624" y2="147.71134"/>
  <line class="uuid-dcbc69e9-573f-4f36-908d-ab1519f3339b" x1="35.684799" y1="145.898336" x2="33.867699" y2="147.715337"/>
  <line class="uuid-dcbc69e9-573f-4f36-908d-ab1519f3339b" x1="35.684799" y1="128.03034" x2="35.684799" y2="145.898336"/>
  <line class="uuid-dcbc69e9-573f-4f36-908d-ab1519f3339b" x1="41.2234" y1="122.316343" x2="35.684799" y2="128.03034"/>
  <line class="uuid-dcbc69e9-573f-4f36-908d-ab1519f3339b" x1="17.6313" y1="124.269338" x2="17.5935" y2="131.248342"/>
  <line class="uuid-dcbc69e9-573f-4f36-908d-ab1519f3339b" x1="21.1271" y1="120.773344" x2="17.6313" y2="124.269338"/>
  <line class="uuid-dcbc69e9-573f-4f36-908d-ab1519f3339b" x1="26.580799" y1="120.773344" x2="21.1271" y2="120.773344"/>
  <line class="uuid-dcbc69e9-573f-4f36-908d-ab1519f3339b" x1="33.8456" y1="113.567342" x2="26.580601" y2="120.773344"/>
  <line class="uuid-dcbc69e9-573f-4f36-908d-ab1519f3339b" x1="33.8456" y1="106.281339" x2="33.846001" y2="113.567342"/>
  <line class="uuid-dcbc69e9-573f-4f36-908d-ab1519f3339b" x1="41.068001" y1="100.995344" x2="33.8456" y2="106.281339"/>
  <line class="uuid-dcbc69e9-573f-4f36-908d-ab1519f3339b" x1="40.811401" y1="101.278341" x2="41.068001" y2="100.995344"/>
  <line class="uuid-dcbc69e9-573f-4f36-908d-ab1519f3339b" x1="28.3985" y1="124.269338" x2="28.386101" y2="131.248342"/>
  <line class="uuid-dcbc69e9-573f-4f36-908d-ab1519f3339b" x1="37.425598" y1="115.348341" x2="28.3985" y2="124.269338"/>
  <line class="uuid-dcbc69e9-573f-4f36-908d-ab1519f3339b" x1="37.425598" y1="109.96034" x2="37.425598" y2="115.348341"/>
  <line class="uuid-dcbc69e9-573f-4f36-908d-ab1519f3339b" x1="40.931599" y1="107.570341" x2="37.425598" y2="109.96034"/>
  <line class="uuid-dcbc69e9-573f-4f36-908d-ab1519f3339b" x1="17.627399" y1="109.93334" x2="17.599501" y2="106.568342"/>
  <line class="uuid-dcbc69e9-573f-4f36-908d-ab1519f3339b" x1="66.154099" y1="187.324346" x2="37.479198" y2="187.231344"/>
  <line class="uuid-dcbc69e9-573f-4f36-908d-ab1519f3339b" x1="69.8536" y1="190.819341" x2="66.154099" y2="187.324346"/>
  <line class="uuid-dcbc69e9-573f-4f36-908d-ab1519f3339b" x1="233.619995" y1="190.97434" x2="69.8536" y2="190.819341"/>
  <line class="uuid-dcbc69e9-573f-4f36-908d-ab1519f3339b" x1="14.0504" y1="160.34934" x2="8.64" y2="154.875341"/>
  <line class="uuid-dcbc69e9-573f-4f36-908d-ab1519f3339b" x1="28.3083" y1="160.227346" x2="14.0504" y2="160.34934"/>
  <line class="uuid-dcbc69e9-573f-4f36-908d-ab1519f3339b" x1="31.874701" y1="163.794347" x2="28.3083" y2="160.227346"/>
  <line class="uuid-dcbc69e9-573f-4f36-908d-ab1519f3339b" x1="31.874701" y1="181.881338" x2="31.874701" y2="163.794347"/>
  <line class="uuid-dcbc69e9-573f-4f36-908d-ab1519f3339b" x1="37.479198" y1="187.231344" x2="31.874701" y2="181.881338"/>
  <line class="uuid-dcbc69e9-573f-4f36-908d-ab1519f3339b" x1="8.64" y1="154.875341" x2="8.62559" y2="118.935339"/>
  <line class="uuid-dcbc69e9-573f-4f36-908d-ab1519f3339b" x1="8.62559" y1="118.935339" x2="17.627399" y2="109.93334"/>
  <line class="uuid-dcbc69e9-573f-4f36-908d-ab1519f3339b" x1="242.011002" y1="183.90534" x2="233.619995" y2="190.97434"/>
  <line class="uuid-dcbc69e9-573f-4f36-908d-ab1519f3339b" x1="73.463203" y1="122.511343" x2="73.657097" y2="106.756338"/>
  <line class="uuid-dcbc69e9-573f-4f36-908d-ab1519f3339b" x1="73.1698" y1="120.708341" x2="73.463203" y2="122.511343"/>
  <line class="uuid-dcbc69e9-573f-4f36-908d-ab1519f3339b" x1="53.5896" y1="91.837942" x2="53.583801" y2="102.448339"/>
  <line class="uuid-dcbc69e9-573f-4f36-908d-ab1519f3339b" x1="49.916" y1="88.409139" x2="53.5896" y2="91.837843"/>
  <line class="uuid-dcbc69e9-573f-4f36-908d-ab1519f3339b" x1="30.6756" y1="88.509245" x2="49.915798" y2="88.409238"/>
  <line class="uuid-dcbc69e9-573f-4f36-908d-ab1519f3339b" x1="60.787601" y1="127.94634" x2="63.243599" y2="123.00134"/>
  <line class="uuid-dcbc69e9-573f-4f36-908d-ab1519f3339b" x1="45.0224" y1="127.913343" x2="60.787601" y2="127.94634"/>
  <line class="uuid-dcbc69e9-573f-4f36-908d-ab1519f3339b" x1="75.037498" y1="120.708341" x2="83.742401" y2="120.708341"/>
  <line class="uuid-dcbc69e9-573f-4f36-908d-ab1519f3339b" x1="73.1698" y1="123.00134" x2="73.1698" y2="141.815343"/>
  <line class="uuid-dcbc69e9-573f-4f36-908d-ab1519f3339b" x1="60.787601" y1="135.170339" x2="64.399498" y2="138.782339"/>
  <line class="uuid-dcbc69e9-573f-4f36-908d-ab1519f3339b" x1="64.399498" y1="138.782339" x2="64.389801" y2="141.815343"/>
  <line class="uuid-dcbc69e9-573f-4f36-908d-ab1519f3339b" x1="45.0224" y1="135.116338" x2="60.787601" y2="135.170339"/>
  <line class="uuid-dcbc69e9-573f-4f36-908d-ab1519f3339b" x1="157.296997" y1="167.508337" x2="100.875999" y2="167.508337"/>
  <line class="uuid-dcbc69e9-573f-4f36-908d-ab1519f3339b" x1="98.515198" y1="180.146337" x2="98.572701" y2="169.376348"/>
  <line class="uuid-dcbc69e9-573f-4f36-908d-ab1519f3339b" x1="69.821602" y1="171.161337" x2="73.353401" y2="174.693334"/>
  <line class="uuid-dcbc69e9-573f-4f36-908d-ab1519f3339b" x1="73.3536" y1="174.693334" x2="73.3536" y2="180.167348"/>
  <line class="uuid-dcbc69e9-573f-4f36-908d-ab1519f3339b" x1="73.3536" y1="180.167348" x2="77.061996" y2="183.699346"/>
  <line class="uuid-dcbc69e9-573f-4f36-908d-ab1519f3339b" x1="77.0616" y1="183.699346" x2="95.079002" y2="183.827337"/>
  <line class="uuid-dcbc69e9-573f-4f36-908d-ab1519f3339b" x1="95.079201" y1="183.827337" x2="98.514801" y2="180.146337"/>
  <line class="uuid-dcbc69e9-573f-4f36-908d-ab1519f3339b" x1="45.0224" y1="171.112341" x2="69.821602" y2="171.161337"/>
  <line class="uuid-dcbc69e9-573f-4f36-908d-ab1519f3339b" x1="68.223801" y1="86.303739" x2="67.589302" y2="108.97434"/>
  <line class="uuid-dcbc69e9-573f-4f36-908d-ab1519f3339b" x1="87.773499" y1="122.053342" x2="93.262604" y2="126.176344"/>
  <line class="uuid-dcbc69e9-573f-4f36-908d-ab1519f3339b" x1="93.262604" y1="126.176344" x2="93.127899" y2="142.346334"/>
  <line class="uuid-dcbc69e9-573f-4f36-908d-ab1519f3339b" x1="93.127899" y1="142.346334" x2="97.243401" y2="146.402334"/>
</svg>