<?xml version='1.0' encoding='UTF-8' standalone='no'?>
<!-- Created with Fritzing (https://fritzing.org/) -->
<svg xmlns="http://www.w3.org/2000/svg" xmlns:svg="http://www.w3.org/2000/svg" version="1.2" y="0in" width="4.31916in" viewBox="0 0 310.98 240.538"  x="0in" height="3.34081in" baseProfile="tiny">
 <g id="watermark" >
  <g >
   <g >
    <path d="M286.248,234.338c-0.604,0,-1.131,0.325,-1.422,0.809l-2.796,0l3.96,-4.071c0.146,-0.146,0.289,-0.322,0.428,-0.521c0.149,-0.222,0.228,-0.479,0.228,-0.768c0,-0.279,-0.097,-0.518,-0.287,-0.71c-0.19,-0.188,-0.444,-0.287,-0.754,-0.287l-4.636,0c-0.305,0,-0.555,0.06,-0.742,0.17c-0.219,0.13,-0.33,0.368,-0.33,0.707c0,0.329,0.111,0.562,0.33,0.692c0.188,0.111,0.438,0.168,0.742,0.168l3.148,0l-3.974,4.086c-0.146,0.147,-0.289,0.315,-0.425,0.504c-0.153,0.212,-0.23,0.472,-0.23,0.771c0,0.28,0.096,0.521,0.288,0.711c0.188,0.188,0.442,0.285,0.754,0.285l4.315,0c0.293,0.467,0.812,0.776,1.4,0.776c0.916,0,1.66,-0.744,1.66,-1.661C287.907,235.083,287.162,234.338,286.248,234.338zM286.248,236.601c-0.334,0,-0.604,-0.271,-0.604,-0.604c0,-0.333,0.27,-0.604,0.604,-0.604c0.332,0,0.604,0.271,0.604,0.604C286.851,236.332,286.58,236.601,286.248,236.601z"  fill="#8C8C8C"/>
    <path d="M269.305,224.296c-0.914,0,-1.659,0.745,-1.659,1.66c0,0.916,0.745,1.66,1.659,1.66s1.658,-0.744,1.658,-1.66C270.965,225.041,270.221,224.296,269.305,224.296zM269.306,226.559c-0.333,0,-0.604,-0.27,-0.604,-0.603s0.271,-0.603,0.604,-0.603c0.331,0,0.604,0.27,0.604,0.603S269.637,226.559,269.306,226.559z"  fill="#8C8C8C"/>
    <path d="M277.826,228.958c-0.193,-0.111,-0.439,-0.169,-0.732,-0.169l-1.465,0L275.629,226.267c0,-0.292,-0.057,-0.538,-0.166,-0.729C275.373,225.381,275.18,225.196,274.77,225.196c-0.34,0,-0.578,0.116,-0.709,0.342c-0.109,0.193,-0.167,0.438,-0.167,0.729l0,2.521l-0.481,0c-0.295,0,-0.539,0.06,-0.731,0.169c-0.228,0.129,-0.341,0.368,-0.341,0.708c0,0.412,0.185,0.603,0.341,0.692c0.192,0.111,0.438,0.168,0.731,0.168l0.481,0l0,4.362c0,0.277,0.026,0.533,0.081,0.768c0.056,0.246,0.154,0.464,0.298,0.645c0.146,0.186,0.345,0.332,0.595,0.436c0.241,0.098,0.555,0.146,0.93,0.146l0.896,0c0.292,0,0.539,-0.054,0.731,-0.166c0.154,-0.089,0.341,-0.281,0.341,-0.693c0,-0.338,-0.114,-0.578,-0.341,-0.709c-0.192,-0.109,-0.439,-0.168,-0.731,-0.168l-0.821,0c-0.138,0,-0.19,-0.019,-0.207,-0.024c-0.014,-0.034,-0.035,-0.103,-0.035,-0.231L275.631,230.526l1.465,0c0.295,0,0.541,-0.057,0.734,-0.168c0.152,-0.09,0.34,-0.28,0.34,-0.692C278.166,229.326,278.053,229.087,277.826,228.958z"  fill="#8C8C8C"/>
    <path d="M269.371,228.788l-1.191,0c-0.292,0,-0.538,0.059,-0.731,0.169c-0.226,0.129,-0.341,0.368,-0.341,0.708c0,0.412,0.188,0.604,0.341,0.691c0.193,0.113,0.439,0.168,0.731,0.168l0.544,0l0,5.362c0,0.293,0.057,0.539,0.167,0.73c0.131,0.227,0.367,0.341,0.708,0.341c0.411,0,0.604,-0.187,0.692,-0.341c0.111,-0.191,0.168,-0.438,0.168,-0.73L270.459,229.876c0,-0.386,-0.084,-0.656,-0.256,-0.83C270.028,228.874,269.758,228.788,269.371,228.788z"  fill="#8C8C8C"/>
    <path d="M265.536,228.958c-0.193,-0.111,-0.44,-0.169,-0.732,-0.169l-0.604,0c-0.25,0,-0.498,0.063,-0.734,0.187c-0.226,0.119,-0.433,0.271,-0.616,0.453l-0.644,0.604l0,-0.247c0,-0.291,-0.055,-0.538,-0.168,-0.729c-0.128,-0.228,-0.368,-0.34,-0.707,-0.34c-0.41,0,-0.604,0.184,-0.693,0.34c-0.11,0.191,-0.167,0.438,-0.167,0.729l0,4.801c-0.475,0.293,-0.791,0.816,-0.791,1.412c0,0.917,0.745,1.661,1.658,1.661c0.916,0,1.66,-0.744,1.66,-1.661c0,-0.596,-0.317,-1.119,-0.792,-1.412l0,-2.21l1.738,-1.564c0.1,-0.09,0.199,-0.164,0.297,-0.217c0.084,-0.045,0.174,-0.067,0.274,-0.067l0.288,0c0.292,0,0.539,-0.056,0.732,-0.169c0.155,-0.088,0.339,-0.279,0.339,-0.691C265.876,229.326,265.761,229.087,265.536,228.958zM261.337,236.601c-0.332,0,-0.603,-0.271,-0.603,-0.604c0,-0.333,0.271,-0.604,0.603,-0.604c0.333,0,0.604,0.271,0.604,0.604C261.941,236.332,261.67,236.601,261.337,236.601z"  fill="#8C8C8C"/>
    <path d="M258.82,225.439c-0.193,-0.111,-0.44,-0.167,-0.731,-0.167l-0.59,0c-0.2,0,-0.389,0.004,-0.562,0.016c-0.176,0.009,-0.345,0.035,-0.506,0.07c-0.168,0.041,-0.336,0.109,-0.496,0.202c-0.158,0.093,-0.319,0.222,-0.48,0.382c-0.334,0.314,-0.554,0.656,-0.652,1.017c-0.094,0.348,-0.143,0.735,-0.143,1.151l0,0.678l-0.483,0c-0.292,0,-0.539,0.059,-0.73,0.169c-0.227,0.13,-0.342,0.369,-0.342,0.708c0,0.412,0.185,0.604,0.341,0.693c0.191,0.111,0.438,0.166,0.73,0.166l0.483,0l0,5.362c0,0.293,0.057,0.539,0.167,0.73c0.13,0.227,0.367,0.341,0.708,0.341c0.411,0,0.603,-0.187,0.692,-0.341c0.111,-0.191,0.168,-0.438,0.168,-0.73l0,-5.36l0.92,0c0.293,0,0.54,-0.057,0.732,-0.168c0.155,-0.09,0.34,-0.28,0.34,-0.692c0,-0.34,-0.114,-0.579,-0.34,-0.708c-0.189,-0.111,-0.436,-0.17,-0.729,-0.17l-0.92,0l0,-0.678c0,-0.218,0.019,-0.41,0.056,-0.571c0.032,-0.141,0.103,-0.261,0.218,-0.367l0.002,-0.004l0.002,-0.002c0.082,-0.082,0.176,-0.126,0.29,-0.136c0.15,-0.015,0.339,-0.022,0.564,-0.022l0.56,0c0.291,0,0.539,-0.058,0.731,-0.168c0.154,-0.088,0.339,-0.281,0.339,-0.693C259.16,225.808,259.045,225.569,258.82,225.439z"  fill="#8C8C8C"/>
    <path d="M310.813,229.056c-0.089,-0.156,-0.282,-0.34,-0.693,-0.34c-0.339,0,-0.578,0.113,-0.707,0.34c-0.078,0.133,-0.127,0.293,-0.152,0.477l-0.021,-0.021c-0.216,-0.236,-0.466,-0.42,-0.747,-0.539c-0.277,-0.119,-0.563,-0.183,-0.849,-0.183l-0.709,0c-0.249,0,-0.466,0.015,-0.64,0.041c-0.182,0.026,-0.352,0.074,-0.51,0.14c-0.158,0.066,-0.313,0.15,-0.459,0.254c-0.139,0.097,-0.303,0.226,-0.486,0.377c-0.188,0.156,-0.342,0.302,-0.463,0.434c-0.127,0.141,-0.23,0.293,-0.306,0.455c-0.069,0.16,-0.122,0.337,-0.147,0.523c-0.026,0.178,-0.041,0.391,-0.041,0.631l0,2.386c0,0.24,0.015,0.451,0.041,0.631c0.025,0.188,0.078,0.361,0.147,0.521c0.074,0.164,0.179,0.318,0.306,0.457c0.119,0.129,0.274,0.274,0.463,0.433c0.186,0.153,0.35,0.28,0.486,0.379c0.146,0.103,0.299,0.188,0.459,0.254c0.158,0.065,0.329,0.112,0.51,0.14c0.174,0.026,0.389,0.039,0.64,0.039l0.709,0c0.298,0,0.591,-0.066,0.87,-0.199c0.244,-0.114,0.492,-0.291,0.73,-0.523l0,1.434c0,0.18,-0.025,0.334,-0.072,0.465c-0.043,0.119,-0.159,0.258,-0.344,0.406c-0.154,0.127,-0.309,0.217,-0.457,0.264c-0.15,0.049,-0.341,0.074,-0.563,0.074l-2.203,0c-0.293,0,-0.538,0.055,-0.732,0.166c-0.152,0.088,-0.34,0.282,-0.34,0.692c0,0.341,0.115,0.579,0.34,0.71c0.194,0.109,0.439,0.167,0.732,0.167l2.326,0c0.247,0,0.463,-0.015,0.638,-0.041c0.179,-0.026,0.351,-0.073,0.513,-0.14c0.153,-0.064,0.31,-0.15,0.455,-0.254c0.143,-0.101,0.305,-0.227,0.487,-0.379c0.185,-0.153,0.343,-0.299,0.463,-0.431c0.128,-0.141,0.229,-0.294,0.304,-0.456c0.071,-0.162,0.123,-0.338,0.148,-0.523c0.025,-0.182,0.041,-0.393,0.041,-0.631l0,-7.898C310.98,229.494,310.926,229.247,310.813,229.056zM309.244,233.516c0,0.188,-0.062,0.35,-0.188,0.49c-0.15,0.172,-0.394,0.403,-0.716,0.686l-0.002,0.003l-0.002,0.004c-0.139,0.13,-0.291,0.237,-0.453,0.325c-0.148,0.082,-0.325,0.121,-0.526,0.121L307.056,235.145c-0.222,0,-0.41,-0.021,-0.563,-0.072c-0.148,-0.049,-0.301,-0.137,-0.453,-0.264c-0.231,-0.186,-0.315,-0.322,-0.346,-0.404c-0.049,-0.131,-0.072,-0.285,-0.072,-0.465l0,-2.206c0,-0.18,0.023,-0.336,0.072,-0.467c0.029,-0.082,0.113,-0.217,0.346,-0.403c0.152,-0.127,0.305,-0.216,0.453,-0.265c0.153,-0.049,0.342,-0.072,0.563,-0.072l0.301,0c0.212,0,0.388,0.037,0.526,0.113c0.152,0.082,0.308,0.191,0.457,0.324c0.322,0.293,0.564,0.529,0.716,0.7c0.128,0.146,0.188,0.304,0.188,0.492L309.244,233.516z"  fill="#8C8C8C"/>
    <path d="M290.834,224.296c-0.914,0,-1.66,0.745,-1.66,1.66c0,0.916,0.746,1.66,1.66,1.66s1.66,-0.744,1.66,-1.66C292.494,225.041,291.748,224.296,290.834,224.296zM290.834,226.559c-0.332,0,-0.604,-0.27,-0.604,-0.603s0.271,-0.603,0.604,-0.603s0.604,0.27,0.604,0.603C291.438,226.289,291.166,226.559,290.834,226.559z"  fill="#8C8C8C"/>
    <path d="M301.52,234.564l-0.107,-3.419c-0.011,-0.178,-0.021,-0.338,-0.031,-0.489c-0.01,-0.162,-0.037,-0.322,-0.082,-0.476c-0.045,-0.158,-0.11,-0.309,-0.198,-0.453c-0.093,-0.146,-0.216,-0.289,-0.37,-0.42c-0.225,-0.192,-0.443,-0.334,-0.646,-0.416c-0.207,-0.084,-0.461,-0.127,-0.754,-0.127l-1.012,0c-0.259,0,-0.501,0.058,-0.716,0.164c-0.197,0.098,-0.39,0.203,-0.572,0.315l-0.003,0.002l-0.003,0.003l-0.837,0.555l0,-0.041c0,-0.291,-0.057,-0.539,-0.168,-0.733c-0.129,-0.226,-0.367,-0.339,-0.707,-0.339c-0.411,0,-0.604,0.185,-0.693,0.339c-0.109,0.194,-0.168,0.438,-0.168,0.733l0,6.099c0,0.295,0.059,0.539,0.168,0.734c0.09,0.153,0.282,0.338,0.693,0.338c0.34,0,0.578,-0.114,0.707,-0.338c0.111,-0.195,0.168,-0.439,0.168,-0.734L296.189,231.826l1.953,-1.215c0.04,-0.024,0.082,-0.048,0.121,-0.063c0.031,-0.016,0.07,-0.025,0.115,-0.031c0.049,-0.012,0.117,-0.016,0.195,-0.016l0.362,0c0.188,0,0.334,0.021,0.435,0.059c0.082,0.029,0.143,0.076,0.18,0.143c0.05,0.078,0.08,0.18,0.098,0.303c0.02,0.139,0.034,0.309,0.045,0.504l0.096,3.097c-0.457,0.297,-0.762,0.811,-0.762,1.394c0,0.917,0.746,1.661,1.66,1.661c0.916,0,1.66,-0.744,1.66,-1.661C302.346,235.389,302.013,234.851,301.52,234.564zM300.686,236.601c-0.334,0,-0.602,-0.271,-0.602,-0.604c0,-0.333,0.268,-0.604,0.602,-0.604c0.333,0,0.604,0.271,0.604,0.604C301.291,236.332,301.019,236.601,300.686,236.601z"  fill="#8C8C8C"/>
    <path d="M290.897,228.788l-1.193,0c-0.293,0,-0.539,0.059,-0.731,0.169c-0.226,0.129,-0.341,0.368,-0.341,0.708c0,0.412,0.186,0.604,0.341,0.691c0.192,0.113,0.438,0.168,0.731,0.168l0.545,0l0,5.362c0,0.293,0.055,0.539,0.168,0.73c0.127,0.227,0.365,0.341,0.707,0.341c0.41,0,0.604,-0.187,0.691,-0.341c0.111,-0.191,0.17,-0.438,0.17,-0.73L291.985,229.876c0,-0.386,-0.085,-0.656,-0.259,-0.83C291.554,228.874,291.281,228.788,290.897,228.788z"  fill="#8C8C8C"/>
   </g>
  </g>
 </g>
 <g partID="59740">
  <g transform="translate(256.5,142.184)">
   <g id="schematic">
    <g>
     <path d="M13.5,14.966L9.9,14.966c-0.193,0,-0.35,-0.156,-0.35,-0.35s0.156,-0.35,0.35,-0.35L13.5,14.266c0.193,0,0.35,0.156,0.35,0.35S13.694,14.966,13.5,14.966z"/>
    </g>
    <g>
     <path d="M9.9,14.966L6.3,14.966c-0.193,0,-0.35,-0.156,-0.35,-0.35s0.157,-0.35,0.35,-0.35l3.6,0c0.193,0,0.35,0.156,0.35,0.35S10.093,14.966,9.9,14.966z"/>
    </g>
    <g>
     <polygon points="9.9,14.616,6.3,7.416,9.9,7.416,13.5,7.416" fill="#FFFFFF"/>
     <path d="M9.9,15.398L5.734,7.066l8.333,0L9.9,15.398zM6.866,7.766L9.9,13.834l3.034,-6.068L6.866,7.766z"/>
    </g>
    <g>
     <path d="M9.9,14.841c-0.124,0,-0.225,-0.101,-0.225,-0.225l0,-7.2c0,-0.124,0.101,-0.225,0.225,-0.225s0.225,0.101,0.225,0.225l0,7.2C10.124,14.74,10.024,14.841,9.9,14.841z"/>
    </g>
    <g>
     <path d="M1.8,12.141c-0.058,0,-0.115,-0.021,-0.159,-0.065c-0.088,-0.088,-0.088,-0.23,0,-0.318l2.34,-2.341c0.088,-0.088,0.23,-0.088,0.318,0s0.088,0.23,0,0.318l-2.34,2.341C1.915,12.12,1.858,12.141,1.8,12.141z"/>
    </g>
    <g>
     <path d="M2.16,15.381c-0.058,0,-0.115,-0.021,-0.159,-0.065c-0.088,-0.088,-0.088,-0.23,0,-0.318l2.34,-2.34c0.088,-0.088,0.23,-0.088,0.318,0s0.088,0.23,0,0.318l-2.34,2.34C2.276,15.359,2.218,15.381,2.16,15.381z"/>
    </g>
    <g id="connector0pin">
     <path d="M9.9,22.166c-0.193,0,-0.35,-0.156,-0.35,-0.35l0,-7.2c0,-0.193,0.156,-0.35,0.35,-0.35s0.35,0.156,0.35,0.35l0,7.2C10.249,22.01,10.093,22.166,9.9,22.166z" fill="#787878"/>
    </g>
    <g id="connector0terminal">
     <rect y="21.816" width="0.001" x="9.9" height="0.001" fill="none"/>
    </g>
    <g transform="matrix(1, 0, 0, 1, 3.429, 6.4262)">
     <g>
      <g transform="rotate(270)">
       <g>
        <g enable-background="new    ">
         <path d="M-11.647,5.54l-0.891,0L-12.538,5.388l0.342,-0.372c0.049,-0.053,0.093,-0.101,0.131,-0.145s0.071,-0.086,0.099,-0.128c0.026,-0.042,0.047,-0.084,0.062,-0.125c0.015,-0.043,0.021,-0.088,0.021,-0.138c0,-0.038,-0.005,-0.072,-0.017,-0.102s-0.027,-0.054,-0.047,-0.075c-0.021,-0.02,-0.045,-0.035,-0.073,-0.046s-0.06,-0.016,-0.094,-0.016c-0.062,0,-0.118,0.013,-0.167,0.038c-0.051,0.024,-0.098,0.057,-0.143,0.096l-0.1,-0.116c0.025,-0.023,0.055,-0.046,0.084,-0.065c0.029,-0.021,0.063,-0.039,0.097,-0.054s0.071,-0.026,0.109,-0.036c0.038,-0.008,0.079,-0.013,0.121,-0.013c0.063,0,0.119,0.009,0.169,0.026c0.051,0.018,0.094,0.043,0.129,0.076c0.035,0.032,0.063,0.072,0.082,0.119c0.019,0.048,0.028,0.101,0.028,0.16c0,0.056,-0.009,0.108,-0.026,0.158c-0.017,0.05,-0.041,0.1,-0.07,0.148c-0.031,0.048,-0.066,0.097,-0.109,0.146c-0.041,0.049,-0.087,0.1,-0.136,0.152L-12.32,5.37l0,0.008l0.673,0L-11.647,5.54z" fill="#787878"/>
        </g>
       </g>
      </g>
     </g>
    </g>
    <g id="connector1pin">
     <path d="M9.9,7.766c-0.193,0,-0.35,-0.157,-0.35,-0.35l0,-7.2c0,-0.193,0.156,-0.35,0.35,-0.35s0.35,0.157,0.35,0.35l0,7.2C10.249,7.609,10.093,7.766,9.9,7.766z" fill="#787878"/>
    </g>
    <g id="connector1terminal">
     <polygon points="9.9,0.216,9.901,0.216,9.901,0.216" fill="none"/>
    </g>
    <g transform="matrix(1, 0, 0, 1, 3.429, 1.3462)">
     <g>
      <g transform="rotate(270)">
       <g>
        <g enable-background="new    ">
         <path d="M-2.616,5.54l-0.172,0L-2.788,4.648c0,-0.028,0,-0.058,0,-0.09s0.001,-0.063,0.002,-0.095c0.001,-0.032,0.002,-0.063,0.003,-0.092c0.001,-0.028,0.002,-0.054,0.002,-0.076c-0.011,0.012,-0.021,0.021,-0.029,0.03s-0.017,0.017,-0.026,0.024s-0.018,0.016,-0.028,0.025c-0.01,0.008,-0.021,0.019,-0.035,0.03l-0.145,0.118l-0.094,-0.12l0.374,-0.292l0.146,0L-2.618,5.54z" fill="#787878"/>
        </g>
       </g>
      </g>
     </g>
    </g>
    <g>
     <path d="M0.18,13.536l1.08,-2.521l1.44,1.438L0.18,13.536z"/>
    </g>
    <g>
     <path d="M0.54,16.776l1.08,-2.521l1.438,1.438L0.54,16.776z"/>
    </g>
   </g>
  </g>
 </g>
 <g partID="59720">
  <g transform="translate(206.1,142.184)">
   <g id="schematic">
    <g>
     <path d="M13.5,14.966L9.9,14.966c-0.193,0,-0.35,-0.156,-0.35,-0.35s0.156,-0.35,0.35,-0.35L13.5,14.266c0.193,0,0.35,0.156,0.35,0.35S13.694,14.966,13.5,14.966z"/>
    </g>
    <g>
     <path d="M9.9,14.966L6.3,14.966c-0.193,0,-0.35,-0.156,-0.35,-0.35s0.157,-0.35,0.35,-0.35l3.6,0c0.193,0,0.35,0.156,0.35,0.35S10.093,14.966,9.9,14.966z"/>
    </g>
    <g>
     <polygon points="9.9,14.616,6.3,7.416,9.9,7.416,13.5,7.416" fill="#FFFFFF"/>
     <path d="M9.9,15.398L5.734,7.066l8.333,0L9.9,15.398zM6.866,7.766L9.9,13.834l3.034,-6.068L6.866,7.766z"/>
    </g>
    <g>
     <path d="M9.9,14.841c-0.124,0,-0.225,-0.101,-0.225,-0.225l0,-7.2c0,-0.124,0.101,-0.225,0.225,-0.225s0.225,0.101,0.225,0.225l0,7.2C10.124,14.74,10.024,14.841,9.9,14.841z"/>
    </g>
    <g>
     <path d="M1.8,12.141c-0.058,0,-0.115,-0.021,-0.159,-0.065c-0.088,-0.088,-0.088,-0.23,0,-0.318l2.34,-2.341c0.088,-0.088,0.23,-0.088,0.318,0s0.088,0.23,0,0.318l-2.34,2.341C1.915,12.12,1.858,12.141,1.8,12.141z"/>
    </g>
    <g>
     <path d="M2.16,15.381c-0.058,0,-0.115,-0.021,-0.159,-0.065c-0.088,-0.088,-0.088,-0.23,0,-0.318l2.34,-2.34c0.088,-0.088,0.23,-0.088,0.318,0s0.088,0.23,0,0.318l-2.34,2.34C2.276,15.359,2.218,15.381,2.16,15.381z"/>
    </g>
    <g id="connector0pin">
     <path d="M9.9,22.166c-0.193,0,-0.35,-0.156,-0.35,-0.35l0,-7.2c0,-0.193,0.156,-0.35,0.35,-0.35s0.35,0.156,0.35,0.35l0,7.2C10.249,22.01,10.093,22.166,9.9,22.166z" fill="#787878"/>
    </g>
    <g id="connector0terminal">
     <rect y="21.816" width="0.001" x="9.9" height="0.001" fill="none"/>
    </g>
    <g transform="matrix(1, 0, 0, 1, 3.429, 6.4262)">
     <g>
      <g transform="rotate(270)">
       <g>
        <g enable-background="new    ">
         <path d="M-11.647,5.54l-0.891,0L-12.538,5.388l0.342,-0.372c0.049,-0.053,0.093,-0.101,0.131,-0.145s0.071,-0.086,0.099,-0.128c0.026,-0.042,0.047,-0.084,0.062,-0.125c0.015,-0.043,0.021,-0.088,0.021,-0.138c0,-0.038,-0.005,-0.072,-0.017,-0.102s-0.027,-0.054,-0.047,-0.075c-0.021,-0.02,-0.045,-0.035,-0.073,-0.046s-0.06,-0.016,-0.094,-0.016c-0.062,0,-0.118,0.013,-0.167,0.038c-0.051,0.024,-0.098,0.057,-0.143,0.096l-0.1,-0.116c0.025,-0.023,0.055,-0.046,0.084,-0.065c0.029,-0.021,0.063,-0.039,0.097,-0.054s0.071,-0.026,0.109,-0.036c0.038,-0.008,0.079,-0.013,0.121,-0.013c0.063,0,0.119,0.009,0.169,0.026c0.051,0.018,0.094,0.043,0.129,0.076c0.035,0.032,0.063,0.072,0.082,0.119c0.019,0.048,0.028,0.101,0.028,0.16c0,0.056,-0.009,0.108,-0.026,0.158c-0.017,0.05,-0.041,0.1,-0.07,0.148c-0.031,0.048,-0.066,0.097,-0.109,0.146c-0.041,0.049,-0.087,0.1,-0.136,0.152L-12.32,5.37l0,0.008l0.673,0L-11.647,5.54z" fill="#787878"/>
        </g>
       </g>
      </g>
     </g>
    </g>
    <g id="connector1pin">
     <path d="M9.9,7.766c-0.193,0,-0.35,-0.157,-0.35,-0.35l0,-7.2c0,-0.193,0.156,-0.35,0.35,-0.35s0.35,0.157,0.35,0.35l0,7.2C10.249,7.609,10.093,7.766,9.9,7.766z" fill="#787878"/>
    </g>
    <g id="connector1terminal">
     <polygon points="9.9,0.216,9.901,0.216,9.901,0.216" fill="none"/>
    </g>
    <g transform="matrix(1, 0, 0, 1, 3.429, 1.3462)">
     <g>
      <g transform="rotate(270)">
       <g>
        <g enable-background="new    ">
         <path d="M-2.616,5.54l-0.172,0L-2.788,4.648c0,-0.028,0,-0.058,0,-0.09s0.001,-0.063,0.002,-0.095c0.001,-0.032,0.002,-0.063,0.003,-0.092c0.001,-0.028,0.002,-0.054,0.002,-0.076c-0.011,0.012,-0.021,0.021,-0.029,0.03s-0.017,0.017,-0.026,0.024s-0.018,0.016,-0.028,0.025c-0.01,0.008,-0.021,0.019,-0.035,0.03l-0.145,0.118l-0.094,-0.12l0.374,-0.292l0.146,0L-2.618,5.54z" fill="#787878"/>
        </g>
       </g>
      </g>
     </g>
    </g>
    <g>
     <path d="M0.18,13.536l1.08,-2.521l1.44,1.438L0.18,13.536z"/>
    </g>
    <g>
     <path d="M0.54,16.776l1.08,-2.521l1.438,1.438L0.54,16.776z"/>
    </g>
   </g>
  </g>
 </g>
 <g partID="59660">
  <g transform="translate(0,5.6)">
   <g id="schematic">
    <rect stroke-linecap="round" y="14.85" width="78.3" stroke="#000000" x="14.85" height="135.9" class="interior rect" stroke-width="0.9" fill="#FFFFFF"/>
    <line y1="28.8" stroke-linecap="round" x1="93.2499" id="connector61pin" y2="28.8" stroke="#787878" x2="107.65" class="pin" stroke-width="0.699999" fill="none"/>
    <text font-size="3.49999" y="29.4999" stroke="none" text-anchor="end" x="91.8499" class="text" font-family="'Droid Sans'" stroke-width="0" fill="#8c8c8c">D0/RX</text>
    <g id="connector61terminal" y="28.4499" width="0.699999" stroke="none" x="107.65" height="0.699999" class="terminal" stroke-width="0" fill="none"/>
    <line y1="36" stroke-linecap="round" x1="93.2499" id="connector62pin" y2="36" stroke="#787878" x2="107.65" class="pin" stroke-width="0.699999" fill="none"/>
    <text font-size="3.49999" y="36.6999" stroke="none" text-anchor="end" x="91.8499" class="text" font-family="'Droid Sans'" stroke-width="0" fill="#8c8c8c">D1/TX</text>
    <g id="connector62terminal" y="35.6499" width="0.699999" stroke="none" x="107.65" height="0.699999" class="terminal" stroke-width="0" fill="none"/>
    <line y1="43.2" stroke-linecap="round" x1="93.2499" id="connector63pin" y2="43.2" stroke="#787878" x2="107.65" class="pin" stroke-width="0.699999" fill="none"/>
    <text font-size="3.49999" y="43.8999" stroke="none" text-anchor="end" x="91.8499" class="text" font-family="'Droid Sans'" stroke-width="0" fill="#8c8c8c">D2</text>
    <g id="connector63terminal" y="42.8499" width="0.699999" stroke="none" x="107.65" height="0.699999" class="terminal" stroke-width="0" fill="none"/>
    <line y1="50.4" stroke-linecap="round" x1="93.2499" id="connector64pin" y2="50.4" stroke="#787878" x2="107.65" class="pin" stroke-width="0.699999" fill="none"/>
    <text font-size="3.49999" y="51.0999" stroke="none" text-anchor="end" x="91.8499" class="text" font-family="'Droid Sans'" stroke-width="0" fill="#8c8c8c">D3 PWM</text>
    <g id="connector64terminal" y="50.0499" width="0.699999" stroke="none" x="107.65" height="0.699999" class="terminal" stroke-width="0" fill="none"/>
    <line y1="57.6" stroke-linecap="round" x1="93.2499" id="connector65pin" y2="57.6" stroke="#787878" x2="107.65" class="pin" stroke-width="0.699999" fill="none"/>
    <text font-size="3.49999" y="58.2999" stroke="none" text-anchor="end" x="91.8499" class="text" font-family="'Droid Sans'" stroke-width="0" fill="#8c8c8c">D4</text>
    <g id="connector65terminal" y="57.2499" width="0.699999" stroke="none" x="107.65" height="0.699999" class="terminal" stroke-width="0" fill="none"/>
    <line y1="64.8" stroke-linecap="round" x1="93.2499" id="connector66pin" y2="64.8" stroke="#787878" x2="107.65" class="pin" stroke-width="0.699999" fill="none"/>
    <text font-size="3.49999" y="65.4999" stroke="none" text-anchor="end" x="91.8499" class="text" font-family="'Droid Sans'" stroke-width="0" fill="#8c8c8c">D5 PWM</text>
    <g id="connector66terminal" y="64.4499" width="0.699999" stroke="none" x="107.65" height="0.699999" class="terminal" stroke-width="0" fill="none"/>
    <line y1="72" stroke-linecap="round" x1="93.2499" id="connector67pin" y2="72" stroke="#787878" x2="107.65" class="pin" stroke-width="0.699999" fill="none"/>
    <text font-size="3.49999" y="72.6999" stroke="none" text-anchor="end" x="91.8499" class="text" font-family="'Droid Sans'" stroke-width="0" fill="#8c8c8c">D6 PWM</text>
    <g id="connector67terminal" y="71.6499" width="0.699999" stroke="none" x="107.65" height="0.699999" class="terminal" stroke-width="0" fill="none"/>
    <line y1="79.2" stroke-linecap="round" x1="93.2499" id="connector68pin" y2="79.2" stroke="#787878" x2="107.65" class="pin" stroke-width="0.699999" fill="none"/>
    <text font-size="3.49999" y="79.8999" stroke="none" text-anchor="end" x="91.8499" class="text" font-family="'Droid Sans'" stroke-width="0" fill="#8c8c8c">D7</text>
    <g id="connector68terminal" y="78.8499" width="0.699999" stroke="none" x="107.65" height="0.699999" class="terminal" stroke-width="0" fill="none"/>
    <line y1="86.4" stroke-linecap="round" x1="93.2499" id="connector51pin" y2="86.4" stroke="#787878" x2="107.65" class="pin" stroke-width="0.699999" fill="none"/>
    <text font-size="3.49999" y="87.0999" stroke="none" text-anchor="end" x="91.8499" class="text" font-family="'Droid Sans'" stroke-width="0" fill="#8c8c8c">D8</text>
    <g id="connector51terminal" y="86.0499" width="0.699999" stroke="none" x="107.65" height="0.699999" class="terminal" stroke-width="0" fill="none"/>
    <line y1="93.6" stroke-linecap="round" x1="93.2499" id="connector52pin" y2="93.6" stroke="#787878" x2="107.65" class="pin" stroke-width="0.699999" fill="none"/>
    <text font-size="3.49999" y="94.2999" stroke="none" text-anchor="end" x="91.8499" class="text" font-family="'Droid Sans'" stroke-width="0" fill="#8c8c8c">D9 PWM</text>
    <g id="connector52terminal" y="93.2499" width="0.699999" stroke="none" x="107.65" height="0.699999" class="terminal" stroke-width="0" fill="none"/>
    <line y1="100.8" stroke-linecap="round" x1="93.2499" id="connector53pin" y2="100.8" stroke="#787878" x2="107.65" class="pin" stroke-width="0.699999" fill="none"/>
    <text font-size="3.49999" y="101.5" stroke="none" text-anchor="end" x="91.8499" class="text" font-family="'Droid Sans'" stroke-width="0" fill="#8c8c8c">D10 PWM/SS</text>
    <g id="connector53terminal" y="100.45" width="0.699999" stroke="none" x="107.65" height="0.699999" class="terminal" stroke-width="0" fill="none"/>
    <line y1="108" stroke-linecap="round" x1="93.2499" id="connector54pin" y2="108" stroke="#787878" x2="107.65" class="pin" stroke-width="0.699999" fill="none"/>
    <text font-size="3.49999" y="108.7" stroke="none" text-anchor="end" x="91.8499" class="text" font-family="'Droid Sans'" stroke-width="0" fill="#8c8c8c">D11 PWM/MOSI</text>
    <g id="connector54terminal" y="107.65" width="0.699999" stroke="none" x="107.65" height="0.699999" class="terminal" stroke-width="0" fill="none"/>
    <line y1="115.2" stroke-linecap="round" x1="93.2499" id="connector55pin" y2="115.2" stroke="#787878" x2="107.65" class="pin" stroke-width="0.699999" fill="none"/>
    <text font-size="3.49999" y="115.9" stroke="none" text-anchor="end" x="91.8499" class="text" font-family="'Droid Sans'" stroke-width="0" fill="#8c8c8c">D12/MISO</text>
    <g id="connector55terminal" y="114.85" width="0.699999" stroke="none" x="107.65" height="0.699999" class="terminal" stroke-width="0" fill="none"/>
    <line y1="122.4" stroke-linecap="round" x1="93.2499" id="connector41pin" y2="122.4" stroke="none" x2="107.65" class="pin" stroke-width="0" fill="none"/>
    <rect id="connector41terminal" y="122.05" width="0.699999" stroke="none" x="107.65" height="0.699999" class="terminal" stroke-width="0" fill="none"/>
    <line y1="122.4" stroke-linecap="round" x1="93.2499" id="connector56pin" y2="122.4" stroke="#787878" x2="107.65" class="pin" stroke-width="0.699999" fill="none"/>
    <text font-size="3.49999" y="123.1" stroke="none" text-anchor="end" x="91.8499" class="text" font-family="'Droid Sans'" stroke-width="0" fill="#8c8c8c">D13/SCK</text>
    <g id="connector56terminal" y="122.05" width="0.699999" stroke="none" x="107.65" height="0.699999" class="terminal" stroke-width="0" fill="none"/>
    <line y1="28.8" stroke-linecap="round" x1="0.349999" id="connector43pin" y2="28.8" stroke="none" x2="14.75" class="pin" stroke-width="0" fill="none"/>
    <rect id="connector43terminal" y="28.4499" width="0.699999" stroke="none" x="-0.349999" height="0.699999" class="terminal" stroke-width="0" fill="none"/>
    <line y1="28.8" stroke-linecap="round" x1="0.349999" id="connector85pin" y2="28.8" stroke="#787878" x2="14.75" class="pin" stroke-width="0.699999" fill="none"/>
    <text font-size="3.49999" y="29.4999" stroke="none" text-anchor="start" x="16.15" class="text" font-family="'Droid Sans'" stroke-width="0" fill="#8c8c8c">RESET</text>
    <g id="connector85terminal" y="28.4499" width="0.699999" stroke="none" x="-0.349999" height="0.699999" class="terminal" stroke-width="0" fill="none"/>
    <line y1="36" stroke-linecap="round" x1="0.349999" id="connector49pin" y2="36" stroke="#787878" x2="14.75" class="pin" stroke-width="0.699999" fill="none"/>
    <text font-size="3.49999" y="36.6999" stroke="none" text-anchor="start" x="16.15" class="text" font-family="'Droid Sans'" stroke-width="0" fill="#8c8c8c">RESET2</text>
    <rect id="connector49terminal" y="35.6499" width="0.699999" stroke="none" x="-0.349999" height="0.699999" class="terminal" stroke-width="0" fill="none"/>
    <line y1="43.2" stroke-linecap="round" x1="0.349999" id="connector58pin" y2="43.2" stroke="#787878" x2="14.75" class="pin" stroke-width="0.699999" fill="none"/>
    <text font-size="3.49999" y="43.8999" stroke="none" text-anchor="start" x="16.15" class="text" font-family="'Droid Sans'" stroke-width="0" fill="#8c8c8c">AREF</text>
    <g id="connector58terminal" y="42.8499" width="0.699999" stroke="none" x="-0.349999" height="0.699999" class="terminal" stroke-width="0" fill="none"/>
    <line y1="50.4" stroke-linecap="round" x1="0.349999" id="connector84pin" y2="50.4" stroke="#787878" x2="14.75" class="pin" stroke-width="0.699999" fill="none"/>
    <text font-size="3.49999" y="51.0999" stroke="none" text-anchor="start" x="16.15" class="text" font-family="'Droid Sans'" stroke-width="0" fill="#8c8c8c">ioref</text>
    <g id="connector84terminal" y="50.0499" width="0.699999" stroke="none" x="-0.349999" height="0.699999" class="terminal" stroke-width="0" fill="none"/>
    <line y1="64.8" stroke-linecap="round" x1="0.349999" id="connector0pin" y2="64.8" stroke="#787878" x2="14.75" class="pin" stroke-width="0.699999" fill="none"/>
    <text font-size="3.49999" y="65.4999" stroke="none" text-anchor="start" x="16.15" class="text" font-family="'Droid Sans'" stroke-width="0" fill="#8c8c8c">A0</text>
    <g id="connector0terminal" y="64.4499" width="0.699999" stroke="none" x="-0.349999" height="0.699999" class="terminal" stroke-width="0" fill="none"/>
    <line y1="72" stroke-linecap="round" x1="0.349999" id="connector1pin" y2="72" stroke="#787878" x2="14.75" class="pin" stroke-width="0.699999" fill="none"/>
    <text font-size="3.49999" y="72.6999" stroke="none" text-anchor="start" x="16.15" class="text" font-family="'Droid Sans'" stroke-width="0" fill="#8c8c8c">A1</text>
    <g id="connector1terminal" y="71.6499" width="0.699999" stroke="none" x="-0.349999" height="0.699999" class="terminal" stroke-width="0" fill="none"/>
    <line y1="79.2" stroke-linecap="round" x1="0.349999" id="connector2pin" y2="79.2" stroke="#787878" x2="14.75" class="pin" stroke-width="0.699999" fill="none"/>
    <text font-size="3.49999" y="79.8999" stroke="none" text-anchor="start" x="16.15" class="text" font-family="'Droid Sans'" stroke-width="0" fill="#8c8c8c">A2</text>
    <g id="connector2terminal" y="78.8499" width="0.699999" stroke="none" x="-0.349999" height="0.699999" class="terminal" stroke-width="0" fill="none"/>
    <line y1="86.4" stroke-linecap="round" x1="0.349999" id="connector3pin" y2="86.4" stroke="#787878" x2="14.75" class="pin" stroke-width="0.699999" fill="none"/>
    <text font-size="3.49999" y="87.0999" stroke="none" text-anchor="start" x="16.15" class="text" font-family="'Droid Sans'" stroke-width="0" fill="#8c8c8c">A3</text>
    <g id="connector3terminal" y="86.0499" width="0.699999" stroke="none" x="-0.349999" height="0.699999" class="terminal" stroke-width="0" fill="none"/>
    <line y1="93.6" stroke-linecap="round" x1="0.349999" id="connector48pin" y2="93.6" stroke="none" x2="14.75" class="pin" stroke-width="0" fill="none"/>
    <rect id="connector48terminal" y="93.2499" width="0.699999" stroke="none" x="-0.349999" height="0.699999" class="terminal" stroke-width="0" fill="none"/>
    <line y1="93.6" stroke-linecap="round" x1="0.349999" id="connector45pin" y2="93.6" stroke="none" x2="14.75" class="pin" stroke-width="0" fill="none"/>
    <rect id="connector45terminal" y="93.2499" width="0.699999" stroke="none" x="-0.349999" height="0.699999" class="terminal" stroke-width="0" fill="none"/>
    <line y1="93.6" stroke-linecap="round" x1="0.349999" id="connector4pin" y2="93.6" stroke="none" x2="14.75" class="pin" stroke-width="0" fill="none"/>
    <g id="connector4terminal" y="93.2499" width="0.699999" stroke="none" x="-0.349999" height="0.699999" class="terminal" stroke-width="0" fill="none"/>
    <line y1="93.6" stroke-linecap="round" x1="0.349999" id="connector39pin" y2="93.6" stroke="none" x2="14.75" class="pin" stroke-width="0" fill="none"/>
    <rect id="connector39terminal" y="93.2499" width="0.699999" stroke="none" x="-0.349999" height="0.699999" class="terminal" stroke-width="0" fill="none"/>
    <line y1="93.6" stroke-linecap="round" x1="0.349999" id="connector47pin" y2="93.6" stroke="none" x2="14.75" class="pin" stroke-width="0" fill="none"/>
    <rect id="connector47terminal" y="93.2499" width="0.699999" stroke="none" x="-0.349999" height="0.699999" class="terminal" stroke-width="0" fill="none"/>
    <line y1="93.6" stroke-linecap="round" x1="0.349999" id="connector42pin" y2="93.6" stroke="none" x2="14.75" class="pin" stroke-width="0" fill="none"/>
    <rect id="connector42terminal" y="93.2499" width="0.699999" stroke="none" x="-0.349999" height="0.699999" class="terminal" stroke-width="0" fill="none"/>
    <line y1="93.6" stroke-linecap="round" x1="0.349999" id="connector59pin" y2="93.6" stroke="#787878" x2="14.75" class="pin" stroke-width="0.699999" fill="none"/>
    <text font-size="3.49999" y="94.2999" stroke="none" text-anchor="start" x="16.15" class="text" font-family="'Droid Sans'" stroke-width="0" fill="#8c8c8c">A4/SDA</text>
    <g id="connector59terminal" y="93.2499" width="0.699999" stroke="none" x="-0.349999" height="0.699999" class="terminal" stroke-width="0" fill="none"/>
    <line y1="100.8" stroke-linecap="round" x1="0.349999" id="connector5pin" y2="100.8" stroke="none" x2="14.75" class="pin" stroke-width="0" fill="none"/>
    <g id="connector5terminal" y="100.45" width="0.699999" stroke="none" x="-0.349999" height="0.699999" class="terminal" stroke-width="0" fill="none"/>
    <line y1="100.8" stroke-linecap="round" x1="0.349999" id="connector60pin" y2="100.8" stroke="#787878" x2="14.75" class="pin" stroke-width="0.699999" fill="none"/>
    <text font-size="3.49999" y="101.5" stroke="none" text-anchor="start" x="16.15" class="text" font-family="'Droid Sans'" stroke-width="0" fill="#8c8c8c">A5/SCL</text>
    <g id="connector60terminal" y="100.45" width="0.699999" stroke="none" x="-0.349999" height="0.699999" class="terminal" stroke-width="0" fill="none"/>
    <line y1="136.8" stroke-linecap="round" x1="0.349999" id="connector91pin" y2="136.8" stroke="#787878" x2="14.75" class="pin" stroke-width="0.699999" fill="none"/>
    <text font-size="3.49999" y="137.5" stroke="none" text-anchor="start" x="16.15" class="text" font-family="'Droid Sans'" stroke-width="0" fill="#8c8c8c">N/C</text>
    <g id="connector91terminal" y="136.45" width="0.699999" stroke="none" x="-0.349999" height="0.699999" class="terminal" stroke-width="0" fill="none"/>
    <line y1="150.85" stroke-linecap="round" x1="57.6" id="connector88pin" y2="165.25" stroke="none" x2="57.6" class="pin" stroke-width="0" fill="none"/>
    <g id="connector88terminal" y="165.25" width="0.699999" stroke="none" x="57.2499" height="0.699999" class="terminal" stroke-width="0" fill="none"/>
    <line y1="150.85" stroke-linecap="round" x1="57.6" id="connector57pin" y2="165.25" stroke="none" x2="57.6" class="pin" stroke-width="0" fill="none"/>
    <g id="connector57terminal" y="165.25" width="0.699999" stroke="none" x="57.2499" height="0.699999" class="terminal" stroke-width="0" fill="none"/>
    <line y1="150.85" stroke-linecap="round" x1="57.6" id="connector44pin" y2="165.25" stroke="none" x2="57.6" class="pin" stroke-width="0" fill="none"/>
    <rect id="connector44terminal" y="165.25" width="0.699999" stroke="none" x="57.2499" height="0.699999" class="terminal" stroke-width="0" fill="none"/>
    <line y1="150.85" stroke-linecap="round" x1="57.6" id="connector50pin" y2="165.25" stroke="none" x2="57.6" class="pin" stroke-width="0" fill="none"/>
    <rect id="connector50terminal" y="165.25" width="0.699999" stroke="none" x="57.2499" height="0.699999" class="terminal" stroke-width="0" fill="none"/>
    <line y1="150.85" stroke-linecap="round" x1="57.6" id="connector89pin" y2="165.25" stroke="#787878" x2="57.6" class="pin" stroke-width="0.699999" fill="none"/>
    <g transform="matrix(1, 0, 0, 1, 58.2999, 149.45)">
     <g>
      <g transform="rotate(270)">
       <g>
        <text font-size="3.49999" y="0" stroke="none" text-anchor="start" x="0" class="text" font-family="'Droid Sans'" stroke-width="0" fill="#8c8c8c">GND</text>
       </g>
      </g>
     </g>
    </g>
    <g id="connector89terminal" y="165.25" width="0.699999" stroke="none" x="57.2499" height="0.699999" class="terminal" stroke-width="0" fill="none"/>
    <line y1="0.349999" stroke-linecap="round" x1="36" id="connector86pin" y2="14.75" stroke="#787878" x2="36" class="pin" stroke-width="0.699999" fill="none"/>
    <g transform="matrix(1, 0, 0, 1, 36.6999, 16.15)">
     <g>
      <g transform="rotate(270)">
       <g>
        <text font-size="3.49999" y="0" stroke="none" text-anchor="end" x="0" class="text" font-family="'Droid Sans'" stroke-width="0" fill="#8c8c8c">3V3</text>
       </g>
      </g>
     </g>
    </g>
    <g id="connector86terminal" y="-0.349999" width="0.699999" stroke="none" x="35.6499" height="0.699999" class="terminal" stroke-width="0" fill="none"/>
    <line y1="0.349999" stroke-linecap="round" x1="50.4" id="connector40pin" y2="14.75" stroke="none" x2="50.4" class="pin" stroke-width="0" fill="none"/>
    <rect id="connector40terminal" y="-0.349999" width="0.699999" stroke="none" x="50.0499" height="0.699999" class="terminal" stroke-width="0" fill="none"/>
    <line y1="0.349999" stroke-linecap="round" x1="50.4" id="connector46pin" y2="14.75" stroke="none" x2="50.4" class="pin" stroke-width="0" fill="none"/>
    <rect id="connector46terminal" y="-0.349999" width="0.699999" stroke="none" x="50.0499" height="0.699999" class="terminal" stroke-width="0" fill="none"/>
    <line y1="0.349999" stroke-linecap="round" x1="50.4" id="connector87pin" y2="14.75" stroke="#787878" x2="50.4" class="pin" stroke-width="0.699999" fill="none"/>
    <g transform="matrix(1, 0, 0, 1, 51.0999, 16.15)">
     <g>
      <g transform="rotate(270)">
       <g>
        <text font-size="3.49999" y="0" stroke="none" text-anchor="end" x="0" class="text" font-family="'Droid Sans'" stroke-width="0" fill="#8c8c8c">5V</text>
       </g>
      </g>
     </g>
    </g>
    <g id="connector87terminal" y="-0.349999" width="0.699999" stroke="none" x="50.0499" height="0.699999" class="terminal" stroke-width="0" fill="none"/>
    <line y1="0.349999" stroke-linecap="round" x1="64.8" id="connector90pin" y2="14.75" stroke="#787878" x2="64.8" class="pin" stroke-width="0.699999" fill="none"/>
    <g transform="matrix(1, 0, 0, 1, 65.4999, 16.15)">
     <g>
      <g transform="rotate(270)">
       <g>
        <text font-size="3.49999" y="0" stroke="none" text-anchor="end" x="0" class="text" font-family="'Droid Sans'" stroke-width="0" fill="#8c8c8c">VIN</text>
       </g>
      </g>
     </g>
    </g>
    <g id="connector90terminal" y="-0.349999" width="0.699999" stroke="none" x="64.4499" height="0.699999" class="terminal" stroke-width="0" fill="none"/>
    <text id="label" font-size="4.25001" y="76.4498" stroke="none" text-anchor="middle" x="54.4501" class="text" font-family="'Droid Sans'" stroke-width="0" fill="#000000">Arduino</text>
    <text id="label" font-size="4.25001" y="80.9833" stroke="none" text-anchor="middle" x="54.4501" class="text" font-family="'Droid Sans'" stroke-width="0" fill="#000000">Uno</text>
    <text id="label" font-size="4.25001" y="85.5167" stroke="none" text-anchor="middle" x="54.4501" class="text" font-family="'Droid Sans'" stroke-width="0" fill="#000000">(Rev3)</text>
   </g>
  </g>
 </g>
 <g partID="59690">
  <g transform="translate(155.7,142.184)">
   <g id="schematic">
    <g>
     <path d="M13.5,14.966L9.9,14.966c-0.193,0,-0.35,-0.156,-0.35,-0.35s0.156,-0.35,0.35,-0.35L13.5,14.266c0.193,0,0.35,0.156,0.35,0.35S13.694,14.966,13.5,14.966z"/>
    </g>
    <g>
     <path d="M9.9,14.966L6.3,14.966c-0.193,0,-0.35,-0.156,-0.35,-0.35s0.157,-0.35,0.35,-0.35l3.6,0c0.193,0,0.35,0.156,0.35,0.35S10.093,14.966,9.9,14.966z"/>
    </g>
    <g>
     <polygon points="9.9,14.616,6.3,7.416,9.9,7.416,13.5,7.416" fill="#FFFFFF"/>
     <path d="M9.9,15.398L5.734,7.066l8.333,0L9.9,15.398zM6.866,7.766L9.9,13.834l3.034,-6.068L6.866,7.766z"/>
    </g>
    <g>
     <path d="M9.9,14.841c-0.124,0,-0.225,-0.101,-0.225,-0.225l0,-7.2c0,-0.124,0.101,-0.225,0.225,-0.225s0.225,0.101,0.225,0.225l0,7.2C10.124,14.74,10.024,14.841,9.9,14.841z"/>
    </g>
    <g>
     <path d="M1.8,12.141c-0.058,0,-0.115,-0.021,-0.159,-0.065c-0.088,-0.088,-0.088,-0.23,0,-0.318l2.34,-2.341c0.088,-0.088,0.23,-0.088,0.318,0s0.088,0.23,0,0.318l-2.34,2.341C1.915,12.12,1.858,12.141,1.8,12.141z"/>
    </g>
    <g>
     <path d="M2.16,15.381c-0.058,0,-0.115,-0.021,-0.159,-0.065c-0.088,-0.088,-0.088,-0.23,0,-0.318l2.34,-2.34c0.088,-0.088,0.23,-0.088,0.318,0s0.088,0.23,0,0.318l-2.34,2.34C2.276,15.359,2.218,15.381,2.16,15.381z"/>
    </g>
    <g id="connector0pin">
     <path d="M9.9,22.166c-0.193,0,-0.35,-0.156,-0.35,-0.35l0,-7.2c0,-0.193,0.156,-0.35,0.35,-0.35s0.35,0.156,0.35,0.35l0,7.2C10.249,22.01,10.093,22.166,9.9,22.166z" fill="#787878"/>
    </g>
    <g id="connector0terminal">
     <rect y="21.816" width="0.001" x="9.9" height="0.001" fill="none"/>
    </g>
    <g transform="matrix(1, 0, 0, 1, 3.429, 6.4262)">
     <g>
      <g transform="rotate(270)">
       <g>
        <g enable-background="new    ">
         <path d="M-11.647,5.54l-0.891,0L-12.538,5.388l0.342,-0.372c0.049,-0.053,0.093,-0.101,0.131,-0.145s0.071,-0.086,0.099,-0.128c0.026,-0.042,0.047,-0.084,0.062,-0.125c0.015,-0.043,0.021,-0.088,0.021,-0.138c0,-0.038,-0.005,-0.072,-0.017,-0.102s-0.027,-0.054,-0.047,-0.075c-0.021,-0.02,-0.045,-0.035,-0.073,-0.046s-0.06,-0.016,-0.094,-0.016c-0.062,0,-0.118,0.013,-0.167,0.038c-0.051,0.024,-0.098,0.057,-0.143,0.096l-0.1,-0.116c0.025,-0.023,0.055,-0.046,0.084,-0.065c0.029,-0.021,0.063,-0.039,0.097,-0.054s0.071,-0.026,0.109,-0.036c0.038,-0.008,0.079,-0.013,0.121,-0.013c0.063,0,0.119,0.009,0.169,0.026c0.051,0.018,0.094,0.043,0.129,0.076c0.035,0.032,0.063,0.072,0.082,0.119c0.019,0.048,0.028,0.101,0.028,0.16c0,0.056,-0.009,0.108,-0.026,0.158c-0.017,0.05,-0.041,0.1,-0.07,0.148c-0.031,0.048,-0.066,0.097,-0.109,0.146c-0.041,0.049,-0.087,0.1,-0.136,0.152L-12.32,5.37l0,0.008l0.673,0L-11.647,5.54z" fill="#787878"/>
        </g>
       </g>
      </g>
     </g>
    </g>
    <g id="connector1pin">
     <path d="M9.9,7.766c-0.193,0,-0.35,-0.157,-0.35,-0.35l0,-7.2c0,-0.193,0.156,-0.35,0.35,-0.35s0.35,0.157,0.35,0.35l0,7.2C10.249,7.609,10.093,7.766,9.9,7.766z" fill="#787878"/>
    </g>
    <g id="connector1terminal">
     <polygon points="9.9,0.216,9.901,0.216,9.901,0.216" fill="none"/>
    </g>
    <g transform="matrix(1, 0, 0, 1, 3.429, 1.3462)">
     <g>
      <g transform="rotate(270)">
       <g>
        <g enable-background="new    ">
         <path d="M-2.616,5.54l-0.172,0L-2.788,4.648c0,-0.028,0,-0.058,0,-0.09s0.001,-0.063,0.002,-0.095c0.001,-0.032,0.002,-0.063,0.003,-0.092c0.001,-0.028,0.002,-0.054,0.002,-0.076c-0.011,0.012,-0.021,0.021,-0.029,0.03s-0.017,0.017,-0.026,0.024s-0.018,0.016,-0.028,0.025c-0.01,0.008,-0.021,0.019,-0.035,0.03l-0.145,0.118l-0.094,-0.12l0.374,-0.292l0.146,0L-2.618,5.54z" fill="#787878"/>
        </g>
       </g>
      </g>
     </g>
    </g>
    <g>
     <path d="M0.18,13.536l1.08,-2.521l1.44,1.438L0.18,13.536z"/>
    </g>
    <g>
     <path d="M0.54,16.776l1.08,-2.521l1.438,1.438L0.54,16.776z"/>
    </g>
   </g>
  </g>
 </g>
 <g partID="61930">
  <g transform="translate(158.75,217.496)">
   <g transform="matrix(-1,0,0,-1,0,0)">
    <g id="schematic" >
     <line y1="3.096" stroke-linecap="round" x1="7.55002" y2="0.216" stroke="#000000" x2="8.63003"  class="other" stroke-width="0.432002"/>
     <line y1="0.216" stroke-linecap="round" x1="8.63003" y2="5.976" stroke="#000000" x2="10.43"  class="other" stroke-width="0.432002"/>
     <line y1="5.976" stroke-linecap="round" x1="10.43" y2="0.216" stroke="#000000" x2="12.23"  class="other" stroke-width="0.432002"/>
     <line y1="0.216" stroke-linecap="round" x1="12.23" y2="5.976" stroke="#000000" x2="14.03"  class="other" stroke-width="0.432002"/>
     <line y1="5.976" stroke-linecap="round" x1="14.03" y2="0.216" stroke="#000000" x2="15.8301"  class="other" stroke-width="0.432002"/>
     <line y1="0.216" stroke-linecap="round" x1="15.8301" y2="5.976" stroke="#000000" x2="17.6301"  class="other" stroke-width="0.432002"/>
     <line y1="5.976" stroke-linecap="round" x1="17.6301" y2="0.216" stroke="#000000" x2="19.4301"  class="other" stroke-width="0.432002"/>
     <line y1="0.216" stroke-linecap="round" x1="19.4301" y2="5.976" stroke="#000000" x2="21.2301"  class="other" stroke-width="0.432002"/>
     <line y1="5.976" stroke-linecap="round" x1="21.2301" y2="3.096" stroke="#000000" x2="21.9501"  class="other" stroke-width="0.432002"/>
     <line y1="3.096" stroke-linecap="round" id="connector1pin" x1="29.1502" y2="3.096" stroke="#787878" x2="21.9501"  connectorname="2" class="pin" stroke-width="0.700001"/>
     <g id="connector1terminal" y="3.096" width="0.000283466" stroke="none"  x="29.1502" height="0.000283465" class="terminal" stroke-width="0" fill="none"/>
     <text font-size="2.50001" y="2.046" stroke="none" text-anchor="middle"  x="25.5501" class="text" font-family="'Droid Sans'" stroke-width="0" fill="#8c8c8c">2</text>
     <line y1="3.096" stroke-linecap="round" id="connector0pin" x1="0.350001" y2="3.096" stroke="#787878" x2="7.55002"  connectorname="1" class="pin" stroke-width="0.700001"/>
     <g id="connector0terminal" y="3.096" width="0.000283466" stroke="none"  x="0.350001" height="0.000283465" class="terminal" stroke-width="0" fill="none"/>
     <text font-size="2.50001" y="2.046" stroke="none" text-anchor="middle"  x="3.95001" class="text" font-family="'Droid Sans'" stroke-width="0" fill="#8c8c8c">1</text>
    </g>
   </g>
  </g>
 </g>
 <g partID="61770">
  <g transform="translate(209.15,217.496)">
   <g transform="matrix(-1,0,0,-1,0,0)">
    <g id="schematic" >
     <line y1="3.096" stroke-linecap="round" x1="7.55002" y2="0.216" stroke="#000000" x2="8.63003"  class="other" stroke-width="0.432002"/>
     <line y1="0.216" stroke-linecap="round" x1="8.63003" y2="5.976" stroke="#000000" x2="10.43"  class="other" stroke-width="0.432002"/>
     <line y1="5.976" stroke-linecap="round" x1="10.43" y2="0.216" stroke="#000000" x2="12.23"  class="other" stroke-width="0.432002"/>
     <line y1="0.216" stroke-linecap="round" x1="12.23" y2="5.976" stroke="#000000" x2="14.03"  class="other" stroke-width="0.432002"/>
     <line y1="5.976" stroke-linecap="round" x1="14.03" y2="0.216" stroke="#000000" x2="15.8301"  class="other" stroke-width="0.432002"/>
     <line y1="0.216" stroke-linecap="round" x1="15.8301" y2="5.976" stroke="#000000" x2="17.6301"  class="other" stroke-width="0.432002"/>
     <line y1="5.976" stroke-linecap="round" x1="17.6301" y2="0.216" stroke="#000000" x2="19.4301"  class="other" stroke-width="0.432002"/>
     <line y1="0.216" stroke-linecap="round" x1="19.4301" y2="5.976" stroke="#000000" x2="21.2301"  class="other" stroke-width="0.432002"/>
     <line y1="5.976" stroke-linecap="round" x1="21.2301" y2="3.096" stroke="#000000" x2="21.9501"  class="other" stroke-width="0.432002"/>
     <line y1="3.096" stroke-linecap="round" id="connector1pin" x1="29.1502" y2="3.096" stroke="#787878" x2="21.9501"  connectorname="2" class="pin" stroke-width="0.700001"/>
     <g id="connector1terminal" y="3.096" width="0.000283466" stroke="none"  x="29.1502" height="0.000283465" class="terminal" stroke-width="0" fill="none"/>
     <text font-size="2.50001" y="2.046" stroke="none" text-anchor="middle"  x="25.5501" class="text" font-family="'Droid Sans'" stroke-width="0" fill="#8c8c8c">2</text>
     <line y1="3.096" stroke-linecap="round" id="connector0pin" x1="0.350001" y2="3.096" stroke="#787878" x2="7.55002"  connectorname="1" class="pin" stroke-width="0.700001"/>
     <g id="connector0terminal" y="3.096" width="0.000283466" stroke="none"  x="0.350001" height="0.000283465" class="terminal" stroke-width="0" fill="none"/>
     <text font-size="2.50001" y="2.046" stroke="none" text-anchor="middle"  x="3.95001" class="text" font-family="'Droid Sans'" stroke-width="0" fill="#8c8c8c">1</text>
    </g>
   </g>
  </g>
 </g>
 <g partID="61870">
  <g transform="translate(108.35,217.496)">
   <g transform="matrix(-1,0,0,-1,0,0)">
    <g id="schematic" >
     <line y1="3.096" stroke-linecap="round" x1="7.55002" y2="0.216" stroke="#000000" x2="8.63003"  class="other" stroke-width="0.432002"/>
     <line y1="0.216" stroke-linecap="round" x1="8.63003" y2="5.976" stroke="#000000" x2="10.43"  class="other" stroke-width="0.432002"/>
     <line y1="5.976" stroke-linecap="round" x1="10.43" y2="0.216" stroke="#000000" x2="12.23"  class="other" stroke-width="0.432002"/>
     <line y1="0.216" stroke-linecap="round" x1="12.23" y2="5.976" stroke="#000000" x2="14.03"  class="other" stroke-width="0.432002"/>
     <line y1="5.976" stroke-linecap="round" x1="14.03" y2="0.216" stroke="#000000" x2="15.8301"  class="other" stroke-width="0.432002"/>
     <line y1="0.216" stroke-linecap="round" x1="15.8301" y2="5.976" stroke="#000000" x2="17.6301"  class="other" stroke-width="0.432002"/>
     <line y1="5.976" stroke-linecap="round" x1="17.6301" y2="0.216" stroke="#000000" x2="19.4301"  class="other" stroke-width="0.432002"/>
     <line y1="0.216" stroke-linecap="round" x1="19.4301" y2="5.976" stroke="#000000" x2="21.2301"  class="other" stroke-width="0.432002"/>
     <line y1="5.976" stroke-linecap="round" x1="21.2301" y2="3.096" stroke="#000000" x2="21.9501"  class="other" stroke-width="0.432002"/>
     <line y1="3.096" stroke-linecap="round" id="connector1pin" x1="29.1502" y2="3.096" stroke="#787878" x2="21.9501"  connectorname="2" class="pin" stroke-width="0.700001"/>
     <g id="connector1terminal" y="3.096" width="0.000283466" stroke="none"  x="29.1502" height="0.000283465" class="terminal" stroke-width="0" fill="none"/>
     <text font-size="2.50001" y="2.046" stroke="none" text-anchor="middle"  x="25.5501" class="text" font-family="'Droid Sans'" stroke-width="0" fill="#8c8c8c">2</text>
     <line y1="3.096" stroke-linecap="round" id="connector0pin" x1="0.350001" y2="3.096" stroke="#787878" x2="7.55002"  connectorname="1" class="pin" stroke-width="0.700001"/>
     <g id="connector0terminal" y="3.096" width="0.000283466" stroke="none"  x="0.350001" height="0.000283465" class="terminal" stroke-width="0" fill="none"/>
     <text font-size="2.50001" y="2.046" stroke="none" text-anchor="middle"  x="3.95001" class="text" font-family="'Droid Sans'" stroke-width="0" fill="#8c8c8c">1</text>
    </g>
   </g>
  </g>
 </g>
 <g partID="64550">
  <line stroke-linecap="round" y1="113.415" x1="266.504" stroke="#ff7300" y2="113.6" x2="108" stroke-width="0.699998"/>
 </g>
 <g partID="64560">
  <line stroke-linecap="round" y1="142.4" x1="266.4" stroke="#ff7300" y2="113.415" x2="266.504" stroke-width="0.699998"/>
 </g>
 <g partID="64630">
  <line stroke-linecap="round" y1="120.868" x1="215.826" stroke="#25cc35" y2="120.8" x2="108" stroke-width="0.699998"/>
 </g>
 <g partID="64640">
  <line stroke-linecap="round" y1="142.4" x1="216" stroke="#25cc35" y2="120.868" x2="215.826" stroke-width="0.699998"/>
 </g>
 <g partID="64710">
  <line stroke-linecap="round" y1="127.824" x1="165.645" stroke="#418dd9" y2="128" x2="108" stroke-width="0.699998"/>
 </g>
 <g partID="64720">
  <line stroke-linecap="round" y1="142.4" x1="165.6" stroke="#418dd9" y2="127.824" x2="165.645" stroke-width="0.699998"/>
 </g>
 <g partID="67120">
  <line stroke-linecap="round" y1="171.185" x1="215.902" stroke="#404040" y2="164" x2="216" stroke-width="0.699998"/>
 </g>
 <circle cx="215.902" stroke="none" r="1.44" stroke-width="0" fill="black" cy="171.185"/>
 <g partID="65760">
  <line stroke-linecap="round" y1="171.408" x1="266.617" stroke="#404040" y2="171.185" x2="215.902" stroke-width="0.699998"/>
 </g>
 <g partID="64950">
  <line stroke-linecap="round" y1="164.093" x1="266.504" stroke="#404040" y2="171.408" x2="266.617" stroke-width="0.699998"/>
 </g>
 <g partID="64960">
  <line stroke-linecap="round" y1="164" x1="266.4" stroke="#404040" y2="164.093" x2="266.504" stroke-width="0.699998"/>
 </g>
 <g partID="65260">
  <line stroke-linecap="round" y1="171.2" x1="57.5999" stroke="#404040" y2="214.275" x2="57.8293" stroke-width="0.699998"/>
 </g>
 <g partID="65310">
  <line stroke-linecap="round" y1="214.275" x1="57.8293" stroke="#404040" y2="214.4" x2="79.2" stroke-width="0.699998"/>
 </g>
 <g partID="68830">
  <line stroke-linecap="round" y1="214.4" x1="180" stroke="#404040" y2="214.4" x2="158.4" stroke-width="0.699998"/>
 </g>
 <g partID="68880">
  <line stroke-linecap="round" y1="214.4" x1="108" stroke="#404040" y2="214.4" x2="129.6" stroke-width="0.699998"/>
 </g>
 <g partID="68930">
  <line stroke-linecap="round" y1="171.185" x1="215.902" stroke="#404040" y2="214.457" x2="216.069" stroke-width="0.699998"/>
 </g>
 <circle cx="215.902" stroke="none" r="1.44" stroke-width="0" fill="black" cy="171.185"/>
 <g partID="69130">
  <line stroke-linecap="round" y1="214.457" x1="216.069" stroke="#404040" y2="214.4" x2="208.8" stroke-width="0.699998"/>
 </g>
 <g partID="69040">
  <line stroke-linecap="round" y1="171.185" x1="215.902" stroke="#404040" y2="171.118" x2="165.814" stroke-width="0.699998"/>
 </g>
 <g partID="69220">
  <line stroke-linecap="round" y1="171.118" x1="165.814" stroke="#404040" y2="164" x2="165.6" stroke-width="0.699998"/>
 </g>
 <g id="partLabel" partID="59660">
  <g transform="translate(108,0)">
   <g id="schematicLabel" font-size="5" font-weight="normal" stroke="none" font-family="'DroidSans'" font-style="normal" fill="#000000" fill-opacity="1">
    <text y="3.75" x="0">Part1</text>
   </g>
  </g>
 </g>
 <g id="partLabel" partID="59690">
  <g transform="translate(169.38,126.184)">
   <g id="schematicLabel" font-size="5" font-weight="normal" stroke="none" font-family="'DroidSans'" font-style="normal" fill="#000000" fill-opacity="1">
    <text y="3.75" x="0">LED1</text>
    <text y="8.75" x="0">0.030</text>
    <text y="13.75" x="0">Red (633nm)</text>
   </g>
  </g>
 </g>
 <g id="partLabel" partID="59740">
  <g transform="translate(270.18,126.184)">
   <g id="schematicLabel" font-size="5" font-weight="normal" stroke="none" font-family="'DroidSans'" font-style="normal" fill="#000000" fill-opacity="1">
    <text y="3.75" x="0">LED3</text>
    <text y="8.75" x="0">0.030</text>
    <text y="13.75" x="0">Red (633nm)</text>
   </g>
  </g>
 </g>
 <g id="partLabel" partID="59720">
  <g transform="translate(219.78,126.184)">
   <g id="schematicLabel" font-size="5" font-weight="normal" stroke="none" font-family="'DroidSans'" font-style="normal" fill="#000000" fill-opacity="1">
    <text y="3.75" x="0">LED2</text>
    <text y="8.75" x="0">0.030</text>
    <text y="13.75" x="0">Red (633nm)</text>
   </g>
  </g>
 </g>
 <g id="partLabel" partID="61770">
  <g transform="translate(194.986,195.304)">
   <g id="schematicLabel" font-size="5" font-weight="normal" stroke="none" font-family="'DroidSans'" font-style="normal" fill="#000000" fill-opacity="1">
    <text y="3.75" x="0">R2</text>
    <text y="8.75" x="0">330&#x3a9;</text>
    <text y="13.75" x="0">0.25</text>
   </g>
  </g>
 </g>
 <g id="partLabel" partID="61870">
  <g transform="translate(93.8643,195.304)">
   <g id="schematicLabel" font-size="5" font-weight="normal" stroke="none" font-family="'DroidSans'" font-style="normal" fill="#000000" fill-opacity="1">
    <text y="3.75" x="0">R3</text>
    <text y="8.75" x="0">100&#x3a9;</text>
    <text y="13.75" x="0">0.25</text>
   </g>
  </g>
 </g>
 <g id="partLabel" partID="61930">
  <g transform="translate(144.264,195.304)">
   <g id="schematicLabel" font-size="5" font-weight="normal" stroke="none" font-family="'DroidSans'" font-style="normal" fill="#000000" fill-opacity="1">
    <text y="3.75" x="0">R1</text>
    <text y="8.75" x="0">220&#x3a9;</text>
    <text y="13.75" x="0">0.25</text>
   </g>
  </g>
 </g>
</svg>
